<?xml version="1.0" encoding="UTF-8"?>
<!-- Generator: Adobe Illustrator 25.2.1, SVG Export Plug-In . SVG Version: 6.00 Build 0)  -->
<svg xmlns="http://www.w3.org/2000/svg" xmlns:xlink="http://www.w3.org/1999/xlink" version="1.1" id="Capa_1" x="0px" y="0px" viewBox="0 0 512 512" style="enable-background:new 0 0 512 512;" xml:space="preserve" width="512" height="512">
<g>
	<ellipse style="fill:#38BFE8;" cx="319.686" cy="498.896" rx="86.688" ry="13.104"/>
	<g>
		<g>
			<g>
				<path style="fill:#38BFE8;" d="M242.51,262.088c0,0,57.661-19.139,65.018-6.679c7.353,12.453,2.575,63.558-6.004,63.185      c-8.578-0.372-10.832-32.638-10.832-32.638s-22.913,57.125-46.404,0.906"/>
				<path style="opacity:0.5;fill:#030E35;" d="M242.51,262.088c0,0,57.661-19.139,65.018-6.679      c7.353,12.453,2.575,63.558-6.004,63.185c-8.578-0.372-10.832-32.638-10.832-32.638s-22.913,57.125-46.404,0.906"/>
			</g>
			<g>
				<path style="fill:#38BFE8;" d="M148.314,129.147c0,0-87.655-21.72-118.455,31.717c-12.992,22.545,22.163,0,22.163,0      s28.277,62.285,61.902,72.986C147.549,244.547,148.314,129.147,148.314,129.147z"/>
				<path style="opacity:0.3;fill:#030E35;" d="M148.314,129.147c0,0-87.655-21.72-118.455,31.717c-12.992,22.545,22.163,0,22.163,0      s28.277,62.285,61.902,72.986C147.549,244.547,148.314,129.147,148.314,129.147z"/>
				<path style="opacity:0.1;fill:#FFFFFF;" d="M34.982,161.337c0,0,20.633-41.335,93.045-30.575      C128.027,130.762,76.811,130.591,34.982,161.337z"/>
			</g>
			<g>
				<g>
					<path style="fill:#38BFE8;" d="M226.261,358.427c7.656,64.561,90.95,31.32,90.95,31.32s-16.049-54.635,7.635-68.003       c23.705-13.391-2.292,61.9-2.292,61.9s47.389,0.757,60.388,19.489c12.978,18.709-43.561,11.464-62.681-5.728       c0,0-108.123,63.414-188.001-22.93C52.407,288.107,128.454,33.231,275.555,3.815       c130.476-26.111,152.141,87.582,111.927,165.076c68.689-49.706,94.047-22.928,94.047-22.928s-65.342,68.393-137.194,75.27       c-12.956,1.238-23.685,0.478-32.464-1.766C278.764,250.466,220.781,312.046,226.261,358.427z"/>
					<path style="opacity:0.3;fill:#030E35;" d="M226.261,358.427c7.656,64.561,90.95,31.32,90.95,31.32       s-16.049-54.635,7.635-68.003c23.705-13.391-2.292,61.9-2.292,61.9s47.389,0.757,60.388,19.489       c12.978,18.709-43.561,11.464-62.681-5.728c0,0-108.123,63.414-188.001-22.93C52.407,288.107,128.454,33.231,275.555,3.815       c130.476-26.111,152.141,87.582,111.927,165.076c68.689-49.706,94.047-22.928,94.047-22.928s-65.342,68.393-137.194,75.27       c-12.956,1.238-23.685,0.478-32.464-1.766C278.764,250.466,220.781,312.046,226.261,358.427z"/>
					<path style="fill:#030E35;" d="M119.111,166.912c0,0,0.584-1.995,1.604-5.487c0.536-1.738,1.187-3.846,1.935-6.264       c0.743-2.417,1.604-5.137,2.791-8.035c1.118-2.915,2.333-6.083,3.682-9.411c1.257-3.376,2.958-6.742,4.606-10.291       c1.733-3.502,3.254-7.265,5.347-10.804c1.993-3.595,4.015-7.245,6.039-10.898c2.169-3.565,4.497-7.036,6.702-10.503       c2.132-3.517,4.595-6.734,6.95-9.864c2.36-3.124,4.568-6.196,6.894-8.926c2.338-2.724,4.591-5.26,6.673-7.592       c1.04-1.165,2.036-2.279,2.985-3.34c1.021-0.996,1.992-1.94,2.903-2.825c1.839-1.751,3.443-3.276,4.763-4.533       c2.673-2.463,4.2-3.872,4.2-3.872s-1.285,1.635-3.537,4.498c-1.141,1.406-2.527,3.115-4.117,5.074       c-0.796,0.976-1.644,2.013-2.537,3.104c-0.838,1.137-1.72,2.334-2.639,3.582c-1.839,2.496-3.831,5.187-5.983,7.995       c-2.117,2.835-4.077,6.03-6.312,9.172c-1.093,1.59-2.205,3.205-3.329,4.84c-1.104,1.648-2.101,3.398-3.2,5.099       c-2.131,3.444-4.374,6.895-6.474,10.43c-2.041,3.575-4.083,7.149-6.092,10.666c-2.082,3.482-3.809,7.082-5.628,10.49       c-1.723,3.451-3.67,6.671-5.105,9.899c-1.504,3.2-2.986,6.204-4.356,8.983c-1.401,2.762-2.575,5.366-3.592,7.683       c-1.051,2.304-1.966,4.312-2.719,5.965C120.003,165.032,119.111,166.912,119.111,166.912z"/>
				</g>
				<path style="opacity:0.2;fill:#FFFFFF;" d="M320.007,397.54c-5.548,3.162-102.688,56.791-179.24-14.535      c-21.964-66.259,40.051-126.74,73.342-117.548c38.38,10.616-33.291,65.047,4.288,114.064      C254.598,426.749,315.629,399.558,320.007,397.54z"/>
			</g>
			<g>
				<path style="fill:#030E35;" d="M278.877,189.756l-39.525,50.828c-9.812-1.333-21.023-7.406-18.821-28.889      c3.828-37.073,61.901-65.731,61.901-65.731C276.814,157.888,274.2,174.876,278.877,189.756z"/>
				<path style="fill:#030E35;" d="M252.904,240.187c-2.982,0.747-6.039,1.165-9.127,1.215c-3.08,0.05-6.206-0.234-9.231-1.081      c-3.024-0.828-5.957-2.257-8.371-4.405c-2.464-2.095-4.244-4.925-5.373-7.914c-1.128-2.999-1.723-6.164-1.868-9.303      c-0.117-3.144-0.092-6.274,0.409-9.381c0.131-1.479,0.59-3.102,0.911-4.661c0.45-1.517,0.859-3.041,1.429-4.511      c1.08-2.961,2.498-5.773,4.062-8.483c1.572-2.704,3.327-5.288,5.222-7.753c1.891-2.47,3.902-4.84,6.019-7.102      c4.207-4.551,8.806-8.694,13.585-12.588c4.762-3.919,9.824-7.439,14.979-10.79c5.184-3.336,10.483-6.372,16.051-9.164      l4.972-2.493l-2.426,4.996c-4.989,10.266-7.089,22.102-6.009,33.584c0.66,5.718,2.059,11.424,4.726,16.561      c2.664,5.117,6.375,9.718,10.992,13.232c4.583,3.537,9.87,6.199,15.467,7.839c5.592,1.668,11.415,2.508,17.252,2.855      c5.849,0.335,11.72,0.008,17.55-0.571l8.693-1.411l4.371-0.712c1.43-0.306,2.823-0.722,4.234-1.079      c45.464-11.486,85.091-40.696,118.401-72.725c-0.051,1.111-0.102,2.223-0.154,3.334c-8.67-7.903-21.981-7.646-33.442-5.142      c-35.406,7.737-64.799,31.554-92.734,54.641c17.392-18.475,37.679-34.22,59.892-46.483c16.122-8.9,34.297-16.125,52.542-13.625      c7.085,0.971,14.225,3.582,19.094,8.82c-33.419,33.923-76.001,63.29-123.124,73.624c-1.457,0.319-2.908,0.702-4.367,0.966      l-4.39,0.583l-8.831,1.162c-5.933,0.372-11.883,0.604-17.831,0.227c-5.936-0.418-11.864-1.338-17.572-3.109      c-5.687-1.784-11.216-4.299-16.016-7.944c-4.848-3.572-8.786-8.327-11.665-13.617c-2.98-5.263-4.668-11.167-5.577-17.121      c-0.798-5.98-0.769-12.075,0.112-18.05c0.854-5.984,2.482-11.866,4.966-17.453l2.546,2.503      c-5.278,2.747-10.456,5.942-15.509,9.195c-5.049,3.291-9.942,6.81-14.666,10.526c-9.392,7.441-18.143,15.939-24.315,26.085      c-1.53,2.533-2.849,5.179-3.961,7.899c-0.58,1.348-1.007,2.762-1.473,4.14c-0.329,1.414-0.792,2.712-0.987,4.264      c-0.577,2.893-0.699,5.886-0.694,8.817c0.032,2.943,0.489,5.854,1.407,8.588c0.913,2.737,2.433,5.235,4.501,7.227      c2.04,2.028,4.634,3.489,7.432,4.42c2.793,0.951,5.784,1.394,8.781,1.507c2.997,0.108,6.041-0.05,9.01-0.586L252.904,240.187z"/>
				<path style="fill:#FF557A;" d="M232.055,236.476c0,0-15.343-11.396-8.913-35.483      C223.142,200.994,241.289,214.983,232.055,236.476z"/>
				<path style="fill:#030E35;" d="M288.782,147.129c0,0-0.036-0.07-0.104-0.204c-0.018-0.065-0.171-0.297-0.332-0.543      c-0.357-0.513-0.99-1.223-1.911-1.947c-0.465-0.357-1.001-0.714-1.622-1.029c-0.601-0.345-1.308-0.596-2.038-0.865      c-1.493-0.445-3.195-0.8-4.954-0.8c-0.878-0.078-1.762,0.005-2.64,0.061c-0.882,0.02-1.741,0.163-2.576,0.304      c-1.688,0.206-3.215,0.682-4.555,0.996c-0.676,0.143-1.255,0.393-1.791,0.556c-0.532,0.176-0.995,0.332-1.377,0.46      c-0.766,0.257-1.204,0.402-1.204,0.402s0.409-0.211,1.125-0.583c0.36-0.186,0.796-0.413,1.297-0.672      c0.508-0.244,1.055-0.589,1.704-0.838c1.289-0.523,2.765-1.247,4.464-1.733c0.838-0.279,1.708-0.566,2.633-0.737      c0.914-0.204,1.845-0.435,2.814-0.505c1.913-0.295,3.906-0.222,5.781,0.037c0.927,0.179,1.846,0.36,2.683,0.669      c0.85,0.277,1.628,0.629,2.331,1.009c1.399,0.772,2.47,1.64,3.16,2.347c0.348,0.375,0.595,0.636,0.809,0.936      c0.166,0.226,0.256,0.349,0.256,0.349L288.782,147.129z"/>
			</g>
			<g>
				<path style="fill:#FFFFFF;" d="M293.137,127.24c0,0,32.479-1.912,54.26,33.624c0,0,16.621-92.782,0-100.112      C324.004,50.435,293.137,127.24,293.137,127.24z"/>
				<path style="fill:#030E35;" d="M325.805,112.536c-2.585,7.982-7.729,13.464-11.495,12.244      c-3.763-1.217-4.722-8.674-2.139-16.659c2.586-7.977,7.731-13.461,11.495-12.241C327.431,97.1,328.389,104.557,325.805,112.536z      "/>
			</g>
			<g>
				<path style="fill:#FFFFFF;" d="M388.95,127.997c-3.129,19.388-12.084,34.067-19.998,32.789      c-7.915-1.278-11.796-18.029-8.665-37.42c3.131-19.385,12.085-34.062,20-32.786C388.202,91.858,392.082,108.612,388.95,127.997z      "/>
				<path style="fill:#030E35;" d="M372.388,126.443c-0.891,5.811-3.831,10.188-6.573,9.766c-2.742-0.417-4.246-5.472-3.357-11.285      c0.888-5.811,3.829-10.183,6.572-9.763C371.773,115.573,373.275,120.629,372.388,126.443z"/>
			</g>
			<g>
				<path style="fill:#38BFE8;" d="M123.199,258.798c0,0,70.327-1.773,74.28,14.505c3.953,16.276-18.56,71.281-27.937,67.978      c-9.377-3.301-1.005-39.81-1.005-39.81s-44.628,55.568-51.711-14.626"/>
				<path style="opacity:0.3;fill:#030E35;" d="M123.199,258.798c0,0,70.327-1.773,74.28,14.505      c3.953,16.276-18.56,71.281-27.937,67.978c-9.377-3.301-1.005-39.81-1.005-39.81s-44.628,55.568-51.711-14.626"/>
				<path style="fill:#030E35;" d="M147.9,259.085c7.166,0.083,14.34,0.455,21.478,1.331c3.569,0.435,7.139,0.951,10.666,1.753      c3.522,0.805,7.039,1.756,10.408,3.271c1.679,0.764,3.329,1.665,4.822,2.888c1.474,1.215,2.814,2.868,3.238,4.991      c0.718,3.658,0.367,7.456-0.15,11.001c-1.197,7.164-3.299,14.067-5.752,20.817c-1.248,3.366-2.499,6.732-3.906,10.032      c-1.406,3.301-2.895,6.568-4.467,9.796c-1.585,3.223-3.335,6.365-5.279,9.406c-1.001,1.504-2.029,2.999-3.268,4.357      c-1.244,1.316-2.56,2.757-4.648,3.248c-0.511,0.166-1.082,0.048-1.638-0.045c-0.606-0.264-0.835-0.292-1.342-0.694      c-0.954-0.654-1.428-1.482-1.935-2.332c-0.868-1.733-1.267-3.57-1.541-5.388c-0.504-3.645-0.456-7.288-0.264-10.895      c0.186-3.615,0.645-7.197,1.16-10.762c0.533-3.567,1.155-7.099,1.913-10.649l2.05,0.993c-2.252,2.757-4.625,5.313-7.177,7.743      c-2.551,2.418-5.236,4.707-8.114,6.767c-1.439,1.029-2.925,2.002-4.479,2.878c-1.551,0.876-3.156,1.683-4.851,2.309      c-0.839,0.335-1.696,0.627-2.59,0.823c-0.872,0.262-1.776,0.41-2.693,0.513c-1.819,0.272-3.701,0.138-5.532-0.201      c-0.892-0.262-1.797-0.531-2.652-0.893c-0.801-0.466-1.691-0.808-2.407-1.391c-1.516-1.069-2.787-2.397-3.907-3.814      l-1.534-2.221l-1.229-2.375c-0.795-1.585-1.376-3.26-1.981-4.911c-0.461-1.693-1.083-3.346-1.405-5.067      c-0.352-1.713-0.809-3.403-1.005-5.139c-0.227-1.728-0.556-3.441-0.697-5.177l-0.483-5.19l0.229-0.025l0.799,5.139      c0.246,1.713,0.679,3.393,1.009,5.087c0.31,1.703,0.85,3.346,1.258,5.016c0.387,1.681,1.068,3.265,1.585,4.898      c0.655,1.572,1.286,3.172,2.108,4.646l1.257,2.199l1.484,2.02c1.063,1.273,2.24,2.433,3.591,3.336      c0.64,0.503,1.42,0.755,2.117,1.152c0.744,0.292,1.525,0.496,2.29,0.707c1.585,0.242,3.204,0.327,4.818,0.04      c0.807-0.113,1.61-0.264,2.397-0.523c0.8-0.196,1.576-0.488,2.351-0.795c1.556-0.583,3.059-1.348,4.521-2.186      c1.464-0.835,2.879-1.774,4.256-2.77c2.753-1.992,5.35-4.231,7.82-6.598c2.44-2.387,4.853-4.873,7.025-7.461l3.113-3.708      l-1.062,4.702c-1.561,6.91-2.747,13.974-3.378,21.028c-0.303,3.525-0.455,7.079-0.085,10.546c0.2,1.72,0.534,3.439,1.229,4.938      c0.367,0.692,0.84,1.457,1.376,1.831c0.143,0.224,0.809,0.478,0.999,0.578c0.328,0.033,0.643,0.164,1.011,0.04      c1.463-0.259,2.858-1.507,4.045-2.729c1.22-1.248,2.279-2.677,3.309-4.118c2.033-2.913,3.75-6.053,5.383-9.223      c1.633-3.172,3.109-6.43,4.422-9.753c1.319-3.318,2.591-6.656,3.662-10.065c2.155-6.797,3.945-13.743,4.842-20.751      c0.458-3.519,0.738-6.978,0.025-10.369c-0.688-2.915-3.799-5.064-6.874-6.488c-3.144-1.477-6.562-2.47-9.997-3.311      c-3.452-0.803-6.942-1.517-10.465-2.068c-7.044-1.109-14.16-1.854-21.294-2.508L147.9,259.085z"/>
				<path style="fill:#030E35;" d="M116.826,274.44c0,0,0.18-0.641,0.669-1.698c0.528-1.029,1.254-2.553,2.459-4.166      c0.576-0.822,1.273-1.665,2.036-2.531c0.8-0.83,1.609-1.753,2.591-2.551c0.933-0.855,1.966-1.655,3.058-2.412      c1.067-0.797,2.273-1.411,3.416-2.131c1.206-0.599,2.433-1.162,3.641-1.703c1.24-0.463,2.479-0.873,3.673-1.268      c1.223-0.284,2.404-0.561,3.526-0.825c1.121-0.242,2.213-0.309,3.201-0.438c1.975-0.307,3.657-0.146,4.807-0.191      c1.157,0.008,1.815,0.045,1.815,0.045s-0.648,0.166-1.776,0.4c-1.126,0.239-2.741,0.493-4.616,1.041      c-0.938,0.269-1.969,0.478-3.028,0.808c-1.052,0.342-2.16,0.704-3.307,1.082c-1.113,0.448-2.264,0.913-3.432,1.384      c-1.136,0.538-2.284,1.099-3.418,1.683c-1.088,0.659-2.246,1.212-3.266,1.945c-1.035,0.709-2.087,1.363-3.009,2.133      c-1.918,1.439-3.548,2.989-4.906,4.37C118.246,272.186,116.826,274.44,116.826,274.44z"/>
				<path style="fill:#030E35;" d="M113.889,270.236c0,0,0.226-2.417,1.782-5.693c0.356-0.832,0.85-1.678,1.374-2.578      c0.572-0.863,1.143-1.811,1.882-2.676c0.724-0.878,1.464-1.802,2.361-2.601c0.832-0.865,1.809-1.6,2.761-2.362      c0.956-0.757,2.05-1.316,3.053-1.97c1.042-0.591,2.149-1.014,3.171-1.504c1.055-0.42,2.121-0.705,3.106-1.019      c0.979-0.342,1.971-0.418,2.849-0.599c1.758-0.382,3.273-0.337,4.308-0.382c1.038-0.008,1.63-0.013,1.63-0.013      s-0.57,0.169-1.567,0.463c-0.496,0.134-1.097,0.295-1.786,0.478c-0.695,0.143-1.442,0.463-2.267,0.732      c-0.811,0.312-1.727,0.523-2.624,0.943c-0.901,0.395-1.849,0.81-2.831,1.243c-0.935,0.511-1.901,1.039-2.881,1.575      c-0.917,0.634-1.923,1.17-2.795,1.894c-1.83,1.331-3.508,2.865-4.956,4.43c-1.444,1.57-2.684,3.152-3.645,4.591      C114.857,268.05,113.889,270.236,113.889,270.236z"/>
				<path style="opacity:0.1;fill:#FFFFFF;" d="M121.149,290.487c0,0,3.437,53.115,45.471,5.731      C166.62,296.218,137.962,321.06,121.149,290.487z"/>
			</g>
			<path style="fill:#030E35;" d="M305.804,9.395c0,1.187-5.231,2.151-11.687,2.151c-6.454,0-11.686-0.964-11.686-2.151     c0-1.188,5.233-2.151,11.686-2.151C300.573,7.244,305.804,8.208,305.804,9.395z"/>
			<path style="opacity:0.1;fill:#FFFFFF;" d="M386.879,41.962c6.922,11.23,9.382,22.273,5.496,24.668     c-3.888,2.395-12.65-4.765-19.573-15.989c-6.92-11.225-9.382-22.271-5.496-24.666C371.194,23.578,379.958,30.735,386.879,41.962z     "/>
		</g>
		<g>
			<path style="fill:#38BFE8;" d="M165.222,449.254c-1.847,4.367-10.642,4.817-19.644,1.011     c-9.002-3.806-14.803-10.438-12.954-14.805c1.848-4.365,10.642-4.815,19.644-1.009     C161.27,438.261,167.068,444.889,165.222,449.254z"/>
			<path style="fill:#38BFE8;" d="M424.345,380.092c-3.073,6.677-7.548,11.175-9.991,10.048c-2.445-1.127-1.934-7.451,1.142-14.123     c3.074-6.671,7.548-11.172,9.992-10.047C427.932,367.096,427.42,373.42,424.345,380.092z"/>
			<path style="fill:#38BFE8;" d="M437.298,355.989c0,4.838-1.54,8.76-3.44,8.76c-1.901,0-3.439-3.922-3.439-8.76     c0-4.842,1.538-8.762,3.439-8.762C435.758,347.228,437.298,351.147,437.298,355.989z"/>
			<g>
				<path style="fill:#38BFE8;" d="M315.212,498.543c0,0-138.707-26.938-140.999-40.698c-2.294-13.756,123.516,20.45,123.516,20.45      s-61.615-27.591-50.152-41.787c11.462-14.199,71.41,27.068,71.41,27.068s-10.08-16.005-2.63-21.76      c7.45-5.748,23.5,24.226,23.5,24.226s51.012-61.58,68.781-62.685c17.769-1.107-46.438,71.686-46.438,71.686      s42.427-32.671,52.742-27.511C425.261,452.688,355.907,487.079,315.212,498.543z"/>
				<path style="opacity:0.4;fill:#FFFFFF;" d="M313.447,498.196c0,0-79.053-15.896-79.818-23.154      c-0.763-7.258,77.52,11.577,77.52,11.577s-22.875-18.835-18.673-24.568c4.203-5.731,27.531,18.075,27.531,18.075      s-4.181-11.962,0-12.342c4.182-0.383,8.005,7.258,8.005,7.258s-2.674-16.809,0-17.577c2.675-0.765,8.406,17.577,8.406,17.577      s20.633-28.271,27.895-28.271c7.26,0-24.456,36.296-24.456,36.296s14.673-11.343,17.196-6.111      C359.576,482.184,313.447,498.196,313.447,498.196z"/>
			</g>
		</g>
	</g>
</g>















</svg>
