<?xml version="1.0" encoding="UTF-8"?>
<!-- Generator: Adobe Illustrator 25.2.1, SVG Export Plug-In . SVG Version: 6.00 Build 0)  -->
<svg xmlns="http://www.w3.org/2000/svg" xmlns:xlink="http://www.w3.org/1999/xlink" version="1.1" id="Capa_1" x="0px" y="0px" viewBox="0 0 512 512" style="enable-background:new 0 0 512 512;" xml:space="preserve" width="512" height="512">
<g>
	<g>
		<path style="fill:#FFFFFF;" d="M240.432,512c-31.162,0-63.746-4.997-89.402-13.708c-9.802-3.323-18.809-9.881-26.798-19.513    H81.434c-11.521,0-21.318-8.686-22.789-20.207c-2.595-20.351-5.263-41.267-7.48-62.436c-1.956,0.781-3.932,1.176-5.877,1.176    c-4.823,0-9.164-2.414-11.613-6.458c-2.581-4.262-2.606-9.488-0.07-14.335l4.284-8.198l-3.165-8.534    c-1.773-4.777-1.269-9.708,1.386-13.525c2.42-3.479,6.376-5.603,10.649-5.739c-2.185-45.644,0.125-83.987,7.117-119.402    c3.943-19.973,9.573-39.566,16.749-58.302c-1.765-8.719-2.877-17.715-3.307-26.776c-0.32-6.919-0.16-12.919,0.49-18.351    c0.08-0.678,0.158-1.306,0.254-1.932c1.168-8.289,3.559-15.721,7.109-22.092c4.392-7.823,11.04-14.326,18.744-18.351    c0.747-0.42,1.493-0.785,2.262-1.108c5.02-2.284,10.212-3.442,15.437-3.442c2.356,0,4.711,0.243,6.998,0.723    c1.686,0.35,3.35,0.828,4.986,1.43c1.153-1.325,2.318-2.635,3.495-3.928l-2.541-0.534c-7.478-1.572-10.873-7.012-11.558-11.578    c-0.685-4.575,0.975-10.785,7.694-14.493l7.896-4.363l1.97-8.831c1.781-7.999,8.089-11.582,13.552-11.582    c5.199,0,9.896,2.987,12.561,7.99l4.074,7.64l5.49,1.152c4.085-2.849,8.246-5.543,12.446-8.058    c0.173-0.274,0.356-0.544,0.55-0.807c2.505-3.399,6.367-5.374,10.629-5.445c0.519-0.273,1.042-0.542,1.566-0.809    C216.291,6.665,243.732,0,270.78,0c33.217,0,62.887,10.092,85.801,29.186c15.542,12.948,28.451,30.556,37.879,51.521    c1.984-1.153,4.05-2.214,6.176-3.166c0.564-0.264,1.242-0.575,1.947-0.859c1.708-0.7,3.351-1.306,4.977-1.833    c0.142-0.045,0.284-0.089,0.426-0.13c0.398-0.113,0.75-0.21,1.1-0.323c0.191-0.064,0.385-0.122,0.581-0.175    c4.285-1.168,8.447-1.817,12.371-1.926c0.437-0.012,0.906-0.019,1.378-0.019l0.618,0.002c10.895,0.159,20.178,4.235,26.931,11.788    c0.608,0.657,1.24,1.413,1.811,2.173c0.336,0.435,0.785,1.048,1.203,1.66c4.787,6.995,6.678,15.898,5.319,25.066    c-0.109,0.807-0.264,1.611-0.424,2.381c-0.309,1.442-0.69,2.809-1.174,4.245c-1.193,3.485-2.814,6.765-4.837,9.788    c-0.051,0.076-0.881,1.261-1.24,1.753c-2.9,3.899-6.379,7.339-10.39,10.285c-1.553,1.145-3.234,2.255-4.979,3.285    c-0.779,0.48-1.594,0.935-2.387,1.362c-6.221,3.362-13.2,5.889-21.713,7.844c0.418,4.701,0.754,9.583,1.014,14.697    c5.327,5.358,8.742,11.916,9.978,19.262c0.16,0.871,0.286,1.79,0.364,2.713c0.064,0.686,0.111,1.392,0.14,2.078    c0.091,2.359-0.078,4.715-0.498,7.038c0.008,0,0.019-0.002,0.029-0.002c0.888-0.128,1.78-0.222,2.653-0.293    c1.703-0.15,3.543-0.231,5.38-0.231c3.049,0,6.136,0.221,9.173,0.653c0.575,0.074,1.326,0.175,2.086,0.311    c1.811,0.317,3.533,0.686,5.207,1.116c0.142,0.037,0.282,0.076,0.422,0.117c0.364,0.107,0.729,0.216,1.104,0.311    c0.191,0.049,0.381,0.103,0.571,0.161c4.237,1.296,8.108,2.972,11.504,4.985c0.511,0.297,1.09,0.661,1.689,1.044    c9.115,5.93,14.858,14.295,16.685,24.238c0.185,0.943,0.323,1.874,0.414,2.797c0.062,0.542,0.128,1.32,0.165,2.076    c0.461,8.466-2.536,17.058-8.445,24.152c-0.517,0.641-1.073,1.252-1.617,1.829c-0.999,1.05-2.039,2.019-3.203,2.991    c-2.845,2.353-5.945,4.289-9.255,5.788c-0.078,0.037-1.362,0.583-1.905,0.805c-4.585,1.802-9.347,2.867-14.299,3.226    c-1.37,0.101-2.795,0.155-4.219,0.155c-0.579,0-1.155-0.01-1.734-0.027c-0.923-0.008-1.866-0.06-2.775-0.126    c-0.445-0.029-0.89-0.064-1.337-0.103c2.097,2.338,4.322,4.668,6.596,7.045c4.76,4.983,9.683,10.135,14.089,16.053    c17.033,22.875,23.964,54.448,19.517,88.903c-3.215,24.92-9.69,49.849-19.795,76.209c-3.467,9.047-11.892,14.895-21.464,14.895    H334.65c-0.449,0.766-0.896,1.493-1.343,2.181C315.842,507.967,267.62,512,240.432,512z"/>
	</g>
	<g>
		<path style="fill:#8F76C9;" d="M430.913,466.194H81.96c-5.222,0-9.63-3.941-10.304-9.217    c-9.879-77.441-19.984-157.042-4.907-233.419c15.676-79.41,59.71-156.975,130.888-193.059    c47.848-24.257,110.044-26.116,151.415,8.355c23.146,19.286,37.548,47.807,44.849,77.349c7.301,29.542,8.054,60.322,7.875,90.785    c-0.127,21.65-0.392,44.579,10.412,63.222c7.922,13.669,20.956,23.431,30.372,36.078c16.566,22.251,20.702,52.087,17.129,79.776    c-3.26,25.261-9.985,49.628-19.063,73.315C439.058,463.47,435.224,466.194,430.913,466.194z"/>
	</g>
	<g>
		<g>
			<g>
				<g>
					<path style="fill:#AFDCF2;" d="M364.567,320.651c-0.166,0.932-0.353,1.969-0.561,3.091c-0.166,0.868-0.333,1.821-0.52,2.795       c-0.873,4.743-1.974,10.629-3.304,17.341c-0.146,0.762-0.291,1.546-0.457,2.35c-6.442,32.713-17.311,82.618-28.637,111.667       c-0.436,1.08-0.852,2.117-1.268,3.134c-2.182,5.272-4.364,9.719-6.546,13.085c-20.512,31.717-112.493,30.998-167.669,12.259       c-8.625-2.922-16.148-9.126-22.653-17.489c-0.457-0.551-0.894-1.122-1.309-1.715c-20.99-28.414-31.464-79.421-36.389-114.356       c-0.166-1.186-0.332-2.329-0.478-3.472c-1.185-8.617-1.995-16.113-2.556-21.829c-0.083-0.889-0.166-1.715-0.25-2.52       c-0.125-1.44-0.228-2.731-0.332-3.854c-0.312-3.959,1.517-7.77,4.821-9.867c11.139-7.008,43.767-20.22,131.841-20.22       c85.476,0,118.914,11.709,131.072,18.442C363.3,311.673,365.378,316.183,364.567,320.651z"/>
				</g>
				<g>
					<g>
						<path style="fill:#FFEEE6;" d="M364.006,323.742c-0.166,0.868-0.333,1.821-0.52,2.795        c-14.776,7.622-49.773,18.188-130.054,18.188c-90.422,0-127.581-11.074-141.214-17.214c-0.083-0.889-0.166-1.715-0.25-2.52        c12.324,5.738,49.025,17.616,141.463,17.616C316.395,342.607,350.643,331.047,364.006,323.742z"/>
					</g>
					<g>
						<path style="fill:#FFEEE6;" d="M360.183,343.878c-0.146,0.762-0.291,1.546-0.457,2.35c-3.304,1.186-6.297,4.171-9.186,7.051        c-3.325,3.303-6.754,6.712-10.91,7.855c-4.177,1.122-8.812-0.085-13.301-1.27c-4.011-1.059-8.167-2.16-11.7-1.397        c-3.512,0.741-6.9,3.43-10.162,6.034c-3.657,2.901-7.419,5.907-11.7,6.564c-4.26,0.656-8.729-1.059-13.072-2.731        c-3.865-1.503-7.876-3.07-11.472-2.689c-3.574,0.339-7.232,2.647-10.765,4.87c-3.928,2.477-8.001,5.039-12.303,5.23        c-0.166,0.021-0.353,0.021-0.52,0.021c-4.135,0-8.23-2.117-12.178-4.171c-3.699-1.927-7.544-3.896-11.139-3.938        c-3.637-0.085-7.461,1.842-11.201,3.663c-4.177,2.033-8.479,4.129-12.802,3.854c-4.302-0.296-8.313-2.964-12.199-5.547        c-3.637-2.414-7.066-4.701-10.64-5.145c-3.574-0.424-7.606,1.016-11.534,2.414c-4.364,1.567-8.874,3.176-13.134,2.414        c-4.239-0.762-7.939-3.875-11.513-6.86c-3.221-2.689-6.526-5.463-10.038-6.31c-3.491-0.826-7.669,0.148-11.7,1.101        c-4.53,1.059-9.186,2.16-13.342,0.911c-2.972-0.911-5.549-2.964-7.96-5.336c-0.166-1.186-0.332-2.329-0.478-3.472        c2.889,3.028,5.694,5.78,9.04,6.776c3.616,1.101,7.814,0.106,12.262-0.953c4.281-0.995,8.687-2.033,12.656-1.08        c3.969,0.953,7.482,3.875,10.869,6.712c3.533,2.964,6.858,5.759,10.578,6.415c3.699,0.678,7.773-0.783,12.074-2.308        c4.136-1.482,8.437-3.028,12.469-2.52c4.053,0.508,7.856,3.028,11.534,5.462c3.824,2.541,7.419,4.955,11.181,5.209        c3.762,0.254,7.648-1.651,11.763-3.642c3.969-1.948,8.105-3.96,12.136-3.875c4.094,0.042,8.147,2.139,12.054,4.15        c4.052,2.117,7.897,4.108,11.679,3.938c3.762-0.148,7.419-2.456,11.305-4.912c3.72-2.35,7.585-4.785,11.659-5.187        c4.053-0.402,8.292,1.228,12.407,2.816c4.26,1.651,8.292,3.197,12.012,2.625c3.741-0.572,7.128-3.282,10.723-6.14        c3.471-2.752,7.045-5.59,11.035-6.436c3.99-0.847,8.375,0.296,12.635,1.418c4.406,1.165,8.583,2.266,12.241,1.27        c3.637-0.995,6.733-4.065,9.996-7.305c3.138-3.134,6.38-6.352,10.245-7.665C359.601,344.026,359.892,343.941,360.183,343.878z        "/>
					</g>
					<g>
						<path style="fill:#FFEEE6;" d="M331.088,457.895c-0.436,1.08-0.852,2.117-1.268,3.134c-6.567,3.98-12.178,9.634-15.981,16.473        c-0.229,0.424-0.686,0.635-1.143,0.508c-0.457-0.106-0.79-0.508-0.79-0.995c-0.208-5.928-5.299-11.603-11.617-12.916        c-5.736-1.186-12.345,0.762-17.665,5.251c-4.323,3.642-7.876,8.744-11.16,16.028c-0.187,0.424-0.603,0.635-1.06,0.614        c-0.436-0.042-0.79-0.381-0.894-0.805c-2.722-11.645-13.966-20.496-25.791-20.199c-11.742,0.318-22.59,9.782-24.689,21.554        c-0.083,0.466-0.457,0.805-0.914,0.868h-0.125c-0.395,0-0.769-0.233-0.935-0.614c-3.45-7.771-8.417-13.868-14.381-17.637        c-6.775-4.298-14.838-5.378-21.551-2.879c-7.191,2.668-12.407,9.824-12.407,17.023c0,0.508-0.354,0.953-0.852,1.038        c-0.478,0.085-0.977-0.19-1.164-0.656c-3.221-8.575-11.035-15.054-19.93-16.494c-4.655-0.762-9.476-0.127-13.82,1.694        c-0.457-0.551-0.894-1.122-1.309-1.715c4.842-2.138,10.225-2.922,15.462-2.075c8.375,1.376,15.857,6.86,19.951,14.355        c1.455-6.691,6.546-12.619,13.363-15.16c7.294-2.71,16.043-1.567,23.359,3.07c5.59,3.536,10.37,8.999,13.903,15.901        c3.387-11.349,14.277-20.072,25.978-20.39c11.825-0.36,23.151,7.898,27.079,19.141c3.096-6.288,6.505-10.883,10.578-14.292        c5.777-4.891,13.03-7.008,19.39-5.695c6.276,1.313,11.347,6.182,12.843,11.92        C317.933,467.148,324.063,461.643,331.088,457.895z"/>
					</g>
					<g>
						<g>
							<ellipse style="fill:#FFEEE6;" cx="126.776" cy="406.549" rx="10.081" ry="10.271"/>
						</g>
						<g>
							<ellipse style="fill:#FFEEE6;" cx="170.639" cy="411.594" rx="10.081" ry="10.271"/>
						</g>
						<g>
							<path style="fill:#FFEEE6;" d="M223.169,414.117c0,5.673-4.514,10.271-10.082,10.271s-10.082-4.599-10.082-10.271         c0-5.673,4.514-10.271,10.082-10.271S223.169,408.444,223.169,414.117z"/>
						</g>
						<g>
							<path style="fill:#FFEEE6;" d="M263.849,413.396c0,5.673-4.514,10.271-10.082,10.271s-10.081-4.598-10.081-10.271         c0-5.673,4.513-10.271,10.081-10.271S263.849,407.724,263.849,413.396z"/>
						</g>
						<g>
							<path style="fill:#FFEEE6;" d="M304.528,410.513c0,5.673-4.514,10.271-10.082,10.271c-5.568,0-10.081-4.599-10.081-10.271         c0-5.673,4.513-10.271,10.081-10.271C300.015,400.242,304.528,404.841,304.528,410.513z"/>
						</g>
						<g>
							<path style="fill:#FFEEE6;" d="M343.439,404.026c0,5.673-4.514,10.271-10.082,10.271c-5.568,0-10.081-4.599-10.081-10.271         c0-5.673,4.513-10.271,10.081-10.271C338.926,393.755,343.439,398.353,343.439,404.026z"/>
						</g>
					</g>
				</g>
				<g>
					<g>
						<path style="fill:#523E3F;" d="M358.645,316.268c0,0.953-0.436,1.906-1.268,2.816l-256.055,0.36        c-1.06-1.038-1.6-2.096-1.6-3.176c0-11.137,57.961-20.178,129.451-20.178C300.684,296.09,358.645,305.13,358.645,316.268z"/>
					</g>
					<path style="fill:#382A2B;" d="M298.585,307.057c-19.992-1.715-43.663-2.689-69.059-2.689c-1.538,0-3.076,0-4.593,0.021       c-2.452,0-4.904,0.021-7.315,0.063c-36.472,0.445-68.56,2.922-89.965,6.627c-13.758,2.372-23.109,5.23-26.331,8.364       c5.258,5.208,23.317,9.76,48.983,12.831l34.809-7.102c0.208,0.021,31.714,11.188,31.714,11.188       c0.852,0.013,1.708,0.025,2.567,0.035l29.498-7.199l19.184,6.324c46.933-2.307,82.342-8.646,89.3-16.437       C351.433,314.023,329.404,309.683,298.585,307.057z"/>
				</g>
			</g>
			<g>
				<g>
					<g>
						<g>
							<g>
								<path style="fill:#9EB777;" d="M450.12,336.198c-0.559,1.552-1.502,2.857-2.723,3.939c-0.283,0.238-0.566,0.476-0.871,0.691          c-1.98,1.445-4.449,2.379-6.869,2.83c-1.966,0.369-3.951,0.519-5.956,0.514c-0.539,0.015-1.099,0.007-1.659-0.022          c-5.3-0.158-10.677-1.129-16.042-1.266c-0.473-0.05-0.948-0.057-1.422-0.019c-0.474-0.028-0.97-0.013-1.444,0.003          c-2.329,0.101-4.704,0.399-7.034,0.588c-0.475,0.038-0.928,0.076-1.381,0.092c-2.48,0.121-4.915,0.067-7.299-0.602          c-1.675-0.461-3.218-1.207-4.629-2.147c-1.219-0.763-2.35-1.678-3.414-2.724c-3.067-2.939-5.583-6.728-7.887-10.36          c-6.657-10.409-13.293-20.796-19.929-31.183c-3.677-5.758-7.417-11.693-8.775-18.431c-1.4-6.826-0.1-14.188,3.511-20.113          c2.84-4.662,7.333-8.841,12.403-10.838c5.849-2.273,8.949,4.796,12.261,8.77c8.726,10.437,17.975,20.419,27.705,29.881          c5.557,5.41,11.267,10.646,17.109,15.686c6.545,5.642,13.35,11.2,18.653,17.99c0.742,0.954,1.442,1.908,2.097,2.926          c0.022,0,0.021,0.022,0.021,0.022c0.318,0.421,0.593,0.842,0.867,1.285C449.758,327.431,451.596,332.045,450.12,336.198z"/>
							</g>
						</g>
						<g>
							<path style="fill:#FFEAD4;" d="M406.1,343.456c-0.475,0.038-0.928,0.076-1.381,0.092         c-18.339-20.621-33.608-43.706-45.552-68.898l0.954-0.471C372.15,299.526,387.567,322.766,406.1,343.456z"/>
						</g>
						<g>
							<path style="fill:#FFEAD4;" d="M416.001,342.884c-0.473-0.05-0.948-0.057-1.422-0.019         c-19.043-22.915-35.32-48.055-48.579-74.934l0.976-0.492C380.318,294.518,396.765,319.835,416.001,342.884z"/>
						</g>
						<g>
							<path style="fill:#FFEAD4;" d="M433.702,344.172c-0.539,0.015-1.099,0.007-1.659-0.022         c-9.678-8.451-19.077-18.567-28.451-30.571c-12.534-16.065-23.541-33.581-34.189-50.521l0.912-0.581         c10.627,16.918,21.612,34.412,34.126,50.41C414.069,325.247,423.745,335.586,433.702,344.172z"/>
						</g>
						<g>
							<path style="fill:#FFEAD4;" d="M447.397,340.137c-0.283,0.238-0.566,0.476-0.871,0.691         c-29.897-23.607-53.843-54.207-77.131-83.963l0.828-0.692C393.511,285.952,417.5,316.552,447.397,340.137z"/>
						</g>
						<g>
							<path style="fill:#FFEAD4;" d="M446.524,322.403c-28.385-20.513-53.855-44.83-75.856-72.417l0.849-0.691         c21.216,26.633,45.704,50.19,72.91,70.182C445.169,320.431,445.869,321.384,446.524,322.403z"/>
						</g>
						<g>
							<path style="fill:#FFEAD4;" d="M392.791,340.799c-1.219-0.763-2.35-1.678-3.414-2.724         c-14.73-19.673-27.089-41.072-36.823-63.798l0.997-0.448C363.809,297.791,376.973,320.255,392.791,340.799z"/>
						</g>
					</g>
					<g>
						<g>
							<path style="fill:#FFBC51;" d="M271.909,273.381c-0.026,0.351-0.052,0.68-0.121,1.008c-0.385,3.113-0.876,6.203-1.497,9.248         c-0.047,0.351-0.116,0.679-0.185,1.008c-0.023,0.11-0.046,0.197-0.069,0.307c-0.068,0.285-0.243,0.48-0.482,0.587         c-0.021,0-0.021,0-0.043,0.021c-0.022,0-0.022,0-0.043-0.001c-0.087,0.021-0.151,0.042-0.238,0.041l-0.151-0.002         c-0.043,0-0.086-0.023-0.107-0.045l-0.022,0c-0.064-0.023-0.128-0.068-0.192-0.134c0,0-0.022,0-0.043-0.023         c-0.043-0.044-0.106-0.089-0.149-0.156c-0.042-0.066-0.084-0.155-0.105-0.243c-0.041-0.176-0.039-0.352,0.006-0.505         c0.023-0.088,0.046-0.197,0.068-0.285c0.024-0.153,0.069-0.306,0.092-0.46c0.644-3.176,1.18-6.375,1.566-9.598         c0.047-0.351,0.095-0.679,0.142-1.03C270.812,273.279,271.328,273.352,271.909,273.381z"/>
						</g>
						<g>
							<path style="fill:#FFBC51;" d="M248.898,300.253c-0.116-0.001-0.232-0.029-0.344-0.084c-0.401-0.2-0.567-0.694-0.37-1.101         c1.775-3.7,4.829-6.927,9.078-9.597c3.705-2.327,7.803-3.922,11.769-5.465c0.417-0.16,0.883,0.052,1.043,0.475         c0.159,0.425-0.049,0.902-0.467,1.064c-3.894,1.516-7.921,3.082-11.496,5.327c-3.983,2.504-6.834,5.505-8.474,8.919         C249.493,300.088,249.201,300.258,248.898,300.253z"/>
						</g>
						<g>
							<path style="fill:#FFBC51;" d="M244.086,296.233c-0.21-0.003-0.418-0.089-0.575-0.254c-0.308-0.33-0.295-0.851,0.027-1.164         c6.821-6.631,16.134-10.677,25.549-11.104c0.436-0.078,0.823,0.33,0.844,0.785c0.02,0.455-0.325,0.838-0.772,0.858         c-9.03,0.41-17.962,4.292-24.506,10.65C244.496,296.161,244.291,296.236,244.086,296.233z"/>
						</g>
						<g>
							<path style="fill:#FFBC51;" d="M294.392,287.35c-0.105-0.001-0.212-0.024-0.315-0.069         c-7.626-3.416-16.601-4.043-24.612-1.723c-0.44,0.127-0.877-0.132-0.999-0.567c-0.122-0.437,0.127-0.893,0.556-1.018         c8.371-2.424,17.741-1.771,25.706,1.798c0.408,0.183,0.595,0.671,0.414,1.086C295.008,287.17,294.706,287.354,294.392,287.35         z"/>
						</g>
					</g>
					<g>
						<path style="fill:#ACC38C;" d="M382.691,236.793c-1.428,8.853-3.78,17.518-7.097,25.819l0,0.022        c-0.022,0.044-0.045,0.109-0.066,0.153c-0.023,0.088-0.045,0.153-0.089,0.24c0,0-0.022,0-0.022,0.022        c-0.089,0.262-0.179,0.503-0.311,0.764c-0.446,1.136-0.934,2.272-1.444,3.407c-3.793,8.449-8.316,18.337-16.101,23.658        c-7.589,5.192-17.336,5.59-26.472,5.316c-18.034-0.524-36.582-4.766-53.083-12.274c-14.68-6.672-29.267-17.252-37.231-31.719        c-8.363-15.241-12.237-32.685-13.288-50.004c-1.072-17.407,0.551-34.822,2.56-52.078c1.863-15.963,0.97-32.181,3.545-48.2        c2.27-14.113,6.998-28.237,16.253-39.029c9.255-10.77,23.445-16.424,37.463-15.316c0.323,0.026,0.646,0.053,0.969,0.101        c16.23,1.73,32.564,13.914,39.073,29.218c6.613,15.591,5.337,36.283-2.678,51.198c5.736,1.525,11.181,3.815,16.296,6.716        c12.99,7.352,23.796,18.695,31.259,31.794c7.19,12.59,10.907,27.089,11.862,41.771c0,0,0,0,0,0.022        c0.126,2,0.208,4.022,0.247,6.043C384.431,221.993,383.861,229.518,382.691,236.793z"/>
					</g>
					<path style="fill:#ACC38C;" d="M227.032,81.753c-1.441,1.882-2.856,3.873-3.434,6.187c-0.578,2.313-0.141,5.038,1.646,6.582       c1.484,1.282,3.939,1.277,5.323,0.016c-5.087,6.394-8.204,13.951-9.558,22.103c-0.578,3.479-0.566,7.585,2.055,9.892       c3.261,2.87,8.528,1.051,11.53-2.099c4.471-4.691,6.029-11.451,7.134-17.892c1.893-11.03,3.029-22.313,6.952-32.773       c3.923-10.46,10.576-19.902,20.937-23.637C252.632,55.659,238.004,67.431,227.032,81.753z"/>
					<g>
						<g>
							<path style="fill:#FFEAD4;" d="M340.966,134.807c-0.422,2.695-0.952,5.368-1.567,7.995         c-1.005,4.423-2.422,9.104-5.886,11.979c-4.183,3.48-10.497,3.331-15.315,0.83c-4.84-2.479-8.5-6.173-11.502-10.759         c-2.316,5.811-5.393,12.227-11.279,14.037c-5.41,1.642-11.17-1.355-15.28-5.253c-6.986-6.615-11.564-16.096-11.785-25.783         c-5.623,1.463-12.085,2.783-16.87-0.552c-4.486-3.134-5.83-9.322-5.588-14.853c0.216-5.092,1.594-10.059,3.85-14.575         l52.192-46.35c11.079,5.065,20.746,14.417,25.413,25.37c6.613,15.591,5.337,36.283-2.678,51.198         c0.064,0.023,0.107,0.023,0.172,0.046l1.076,2.239l4.076-0.612C333.792,131.111,337.456,132.828,340.966,134.807z"/>
						</g>
						<g>
							<path style="fill:#FFBC51;" d="M300.096,62.15c-3.196,5.58-9.459,8.22-15.802,8.641c0.441,9.405-4.336,18.894-12.096,24.019         c-6.564,4.327-15.027,5.402-22.455,3.063c1.747-3.491,4.03-6.732,6.718-9.596c-3.509-0.31-5.962-4.053-6.003-7.612         c-0.04-3.58,1.726-6.895,3.725-9.833c7.952-11.732,20.452-20.065,34.092-23.157c4.628,0.478,9.245,1.835,13.66,3.848         C302.557,55.133,301.926,58.989,300.096,62.15z"/>
						</g>
						<g>
							<path style="fill:#523E3F;" d="M286.638,89.616c-0.062,4.851-3.971,8.732-8.732,8.669c-4.761-0.063-8.57-4.046-8.509-8.896         c0.062-4.851,3.971-8.732,8.732-8.669C282.89,80.783,286.7,84.766,286.638,89.616z"/>
						</g>
						<g>
							<path style="fill:#523E3F;" d="M329.994,129.765c-5.241,5.355-12.523,8.487-20.085,8.19         c-4.524-0.17-9.468-1.223-13.073-4.214c5.1,0.638,10.32,0.356,15.335-0.785c4.41-0.974,8.698-2.608,12.671-4.818         C326.582,128.6,328.299,129.15,329.994,129.765z"/>
						</g>
						<g>
							<path style="fill:#FFBC51;" d="M332.325,74.154c-4.142-7.407-12.082-13.948-20.383-12.87         c-2.564,0.333-4.415,2.652-5.643,4.97c-1.949,3.677-3.041,7.751-4.118,11.784c-0.762,2.854-1.525,5.88-0.735,8.726         c0.576,2.077,2.718,3.631,4.77,4.253c0.656,1.816,2.617,3.526,3.923,4.601c1.083,0.892,2.268,1.657,3.526,2.266         c1.519,0.735,3.213,1.256,4.872,0.979c1.46-0.245,2.755-1.082,3.942-1.983c1.494-1.132,2.916-2.423,3.868-4.053         c0.204-0.348,0.378-0.716,0.529-1.094c1.063,1.912,1.13,4.441,2.026,6.528c0.434,1.008,1.402,2.046,2.427,1.7         c0.579-0.195,0.939-0.772,1.231-1.318C336.56,91.153,336.467,81.561,332.325,74.154z"/>
							<g>
								<path style="fill:#523E3F;" d="M326.937,92.389c-0.27,0-0.505-0.2-0.54-0.474c-0.14-1.1-1.05-2.122-2.264-2.544          c-1.044-0.356-2.307-0.338-3.761,0.064c-0.828,0.231-1.654,0.56-2.453,0.88c-0.468,0.185-0.935,0.373-1.409,0.542          c-3.547,1.283-7.389,1.66-11.115,1.084c-0.297-0.045-0.501-0.323-0.455-0.62c0.045-0.297,0.34-0.484,0.62-0.455          c3.551,0.548,7.205,0.19,10.581-1.03c0.464-0.167,0.919-0.35,1.374-0.531c0.826-0.33,1.681-0.67,2.564-0.915          c1.667-0.468,3.152-0.482,4.408-0.043c1.596,0.552,2.795,1.93,2.989,3.43c0.037,0.299-0.173,0.571-0.47,0.61          C326.982,92.387,326.959,92.389,326.937,92.389z"/>
							</g>
						</g>
					</g>
					<g>
						<g>
							<path style="fill:#FFBC51;" d="M331.66,291.832c-0.026,0.351-0.052,0.68-0.121,1.008c-0.384,3.113-0.876,6.203-1.497,9.248         c-0.048,0.351-0.117,0.679-0.185,1.008c-0.023,0.109-0.046,0.197-0.069,0.306c-0.068,0.285-0.243,0.48-0.482,0.587         c-0.022,0-0.022,0-0.043,0.021c-0.021,0-0.021,0-0.043-0.001c-0.086,0.021-0.151,0.042-0.237,0.041l-0.151-0.002         c-0.043,0-0.086-0.023-0.107-0.045l-0.022,0c-0.064-0.023-0.128-0.068-0.192-0.134c0,0-0.022,0-0.043-0.022         c-0.043-0.045-0.107-0.089-0.149-0.156c-0.042-0.066-0.084-0.155-0.105-0.243c-0.041-0.176-0.039-0.352,0.006-0.505         c0.023-0.088,0.046-0.197,0.068-0.285c0.023-0.153,0.069-0.306,0.092-0.46c0.644-3.176,1.181-6.375,1.566-9.598         c0.048-0.351,0.095-0.679,0.142-1.03C330.563,291.73,331.079,291.803,331.66,291.832z"/>
						</g>
						<g>
							<path style="fill:#FFBC51;" d="M308.649,318.705c-0.116-0.002-0.232-0.029-0.344-0.084c-0.401-0.2-0.567-0.694-0.37-1.101         c1.775-3.7,4.83-6.927,9.078-9.597c3.705-2.327,7.804-3.922,11.769-5.465c0.417-0.16,0.884,0.053,1.043,0.475         c0.159,0.425-0.049,0.902-0.467,1.064c-3.895,1.516-7.921,3.082-11.497,5.327c-3.983,2.504-6.834,5.505-8.474,8.919         C309.245,318.539,308.952,318.709,308.649,318.705z"/>
						</g>
						<g>
							<path style="fill:#FFBC51;" d="M303.838,314.684c-0.21-0.003-0.418-0.089-0.575-0.254c-0.308-0.33-0.296-0.851,0.027-1.164         c6.821-6.631,16.133-10.677,25.549-11.104c0.436-0.078,0.823,0.33,0.843,0.785c0.019,0.455-0.325,0.838-0.772,0.858         c-9.03,0.41-17.963,4.292-24.506,10.65C304.247,314.613,304.042,314.687,303.838,314.684z"/>
						</g>
						<g>
							<path style="fill:#FFBC51;" d="M354.143,305.801c-0.105-0.001-0.212-0.024-0.315-0.069         c-7.626-3.416-16.601-4.043-24.612-1.723c-0.439,0.127-0.877-0.132-0.999-0.567c-0.122-0.437,0.127-0.893,0.556-1.018         c8.371-2.424,17.741-1.771,25.706,1.798c0.408,0.183,0.594,0.671,0.415,1.086         C354.759,305.621,354.458,305.805,354.143,305.801z"/>
						</g>
					</g>
					<g>
						<g>
							<path style="fill:#FFEAD4;" d="M357.7,176.533c-0.104-0.287-0.426-0.401-0.708-0.295c-0.26,0.128-0.394,0.456-0.268,0.721         c11.249,27.292,17.567,57.614,17.795,85.397c-3.816-1.632-7.542-3.592-11.134-5.813c-0.005-0.002-0.01-0.006-0.015-0.009         c-0.002-0.021,0.004-0.041-0.001-0.062c-5.288-25.412-12.329-48.349-22.829-74.37c-0.112-0.282-0.427-0.415-0.703-0.299         c-0.275,0.114-0.406,0.434-0.293,0.715c10.345,25.639,17.32,48.277,22.573,73.249c-0.005-0.003-0.01-0.006-0.015-0.01         c-11.376-7.156-21.277-16.729-27.869-27.182c-9.676-15.39-14.484-33.901-13.562-52.137c0.025-0.285-0.209-0.552-0.51-0.578         c-0.323-0.004-0.542,0.234-0.567,0.52c-0.946,18.478,3.945,37.209,13.748,52.777c9.169,14.593,24.718,27.47,41.763,34.656         c0.133-0.262,0.222-0.502,0.311-0.764c0-0.022,0.022-0.022,0.022-0.022c0.044-0.065,0.11-0.13,0.111-0.218         c0.044-0.065,0.044-0.109,0.045-0.175l0-0.022C375.412,234.611,369.054,204.046,357.7,176.533z"/>
							<g>
								<path style="fill:#FFEAD4;" d="M384.333,214.437c-2.39-12.066-6.617-23.761-12.559-34.424          c-0.148-0.266-0.057-0.594,0.182-0.744c0.261-0.15,0.604-0.058,0.752,0.207c5.015,9.026,8.835,18.783,11.379,28.896          c0,0,0,0,0,0.022C384.212,210.395,384.294,212.416,384.333,214.437z"/>
							</g>
						</g>
						<g>
							<g>
								<path style="fill:#FFEAD4;" d="M250.088,200.667c-2.276,0-4.565-0.853-6.235-2.431c-2.159-2.035-3.362-5.29-3.222-8.703          c0.115-2.785,1.073-5.759,2.849-8.839c0.15-0.262,0.482-0.348,0.743-0.2c0.26,0.15,0.35,0.484,0.2,0.743          c-1.687,2.925-2.598,5.733-2.705,8.34c-0.128,3.102,0.947,6.044,2.88,7.867c2.124,2.004,5.38,2.682,8.103,1.679          c2.725-0.999,4.814-3.642,5.193-6.573c0.035-0.261,0.249-0.459,0.513-0.474c0.255,0.004,0.496,0.165,0.556,0.42          c1.001,4.32,5.658,6.719,9.558,6.528c4.101-0.189,7.904-3.718,8.474-7.864c0.029-0.202,0.167-0.371,0.36-0.439          c0.188-0.072,0.406-0.021,0.554,0.118c1.586,1.504,4.357,1.858,6.596,0.849c2.097-0.951,3.537-3.253,3.502-5.592          c-0.004-0.301,0.235-0.548,0.536-0.552c0.002,0,0.006,0,0.008,0c0.297,0,0.54,0.239,0.544,0.536          c0.043,2.76-1.66,5.473-4.14,6.598c-2.303,1.048-5.119,0.832-7.053-0.457c-1.024,4.297-4.958,7.689-9.331,7.893          c-3.778,0.148-8.217-1.85-10.038-5.593c-0.906,2.554-2.941,4.703-5.457,5.625          C252.121,200.498,251.105,200.667,250.088,200.667z"/>
							</g>
							<g>
								<path style="fill:#FFEAD4;" d="M280.081,220.605c-3.689,0-7.228-2.946-7.932-6.637c-0.058-0.297,0.136-0.581,0.431-0.636          c0.305-0.074,0.581,0.138,0.636,0.431c0.62,3.248,3.712,5.805,7.004,5.753c3.242-0.074,6.264-2.797,6.74-6.07          c0.029-0.202,0.167-0.369,0.361-0.437c0.192-0.064,0.404-0.02,0.552,0.122c2.115,2.012,6.458,2.276,9.438,1.363          c2.89-0.886,5.214-3.39,5.916-6.383c0.07-0.295,0.369-0.48,0.653-0.406c0.292,0.068,0.474,0.361,0.406,0.653          c-0.789,3.364-3.403,6.181-6.657,7.174c-2.941,0.902-7.166,0.791-9.782-1.026c-0.925,3.36-4.157,6.019-7.601,6.097          C280.191,220.605,280.137,220.605,280.081,220.605z"/>
							</g>
							<g>
								<path style="fill:#FFEAD4;" d="M260.233,242.349c-1.504,0-2.964-0.42-4.169-1.246c-2.303-1.582-3.397-4.571-2.604-7.107          c0.089-0.286,0.402-0.441,0.682-0.356c0.286,0.091,0.447,0.395,0.356,0.682c-0.645,2.058,0.293,4.587,2.181,5.883          c1.769,1.217,4.301,1.388,6.458,0.443c1.99-0.871,3.689-2.61,4.781-4.89c0.097-0.204,0.305-0.342,0.534-0.307          c0.224,0.016,0.414,0.171,0.478,0.387c0.55,1.86,3.016,3.218,5.082,3.457c1.988,0.206,4.062-0.853,5.055-2.624          c0.146-0.262,0.478-0.354,0.739-0.208c0.262,0.146,0.356,0.478,0.208,0.739c-1.199,2.144-3.724,3.465-6.126,3.172          c-2.008-0.231-4.389-1.384-5.512-3.162c-1.197,2.033-2.874,3.586-4.801,4.433          C262.494,242.116,261.351,242.349,260.233,242.349z"/>
							</g>
						</g>
						<g>
							<path style="fill:#FFEAD4;" d="M360.73,260.242c-1.665,7.203-4.098,15.45-9.573,22.229         c-4.664,5.736-13.842,10.468-19.402,10.394c-0.086-0.001-0.151-0.002-0.215-0.025c-0.582-0.008-1.12-0.081-1.592-0.241         c-0.129-0.002-0.258-0.047-0.387-0.093c-10.492-3.828-19.49-11.501-24.073-20.565c-4.689-9.263-5.627-20.234-2.592-30.076         c0.089-0.262,0.372-0.412,0.651-0.343c0.279,0.092,0.426,0.401,0.336,0.663c-2.967,9.58-2.047,20.264,2.537,29.285         c4.457,8.821,13.242,16.316,23.498,20.053c0.065,0.023,0.107,0.045,0.172,0.046c0.472,0.16,0.989,0.233,1.57,0.262         c5.15,0.156,14.241-4.534,18.686-10.031c5.343-6.605,7.731-14.721,9.373-21.793c0.068-0.285,0.351-0.457,0.63-0.387         C360.629,259.692,360.798,259.958,360.73,260.242z"/>
						</g>
					</g>
				</g>
				<g>
					<g>
						<path style="fill:#FFEEE6;" d="M321.384,68.998c1.245,1.013,2.589,1.899,4.007,2.639c0.616,0.322,1.408,0.601,1.952,0.167        c0.554-0.442,0.462-1.321,0.218-1.994c-0.817-2.254-2.834-4.041-5.128-4.593C319.294,64.461,319.339,67.333,321.384,68.998z"/>
					</g>
					<g>
						<path style="fill:#FFEEE6;" d="M330.433,73.526c-0.008,0.6-0.522,1.079-1.149,1.071c-0.627-0.008-1.129-0.501-1.121-1.101        c0.008-0.6,0.522-1.079,1.149-1.071C329.939,72.434,330.441,72.926,330.433,73.526z"/>
					</g>
				</g>
			</g>
			<g>
				<g>
					<g>
						<path style="fill:#523E3F;" d="M236.866,334.759l-2.71,0.938c32.947-74.728,82.586-142.466,143.547-195.891l1.384,1.578        C318.354,194.609,269.692,260.31,236.866,334.759z"/>
					</g>
					<g>
						<g>
							<path style="fill:#FFBC51;" d="M447.358,111.216c-0.066,0.526-0.172,1.048-0.278,1.548c-0.207,0.96-0.473,1.892-0.78,2.8         c-0.833,2.434-1.965,4.715-3.375,6.822c-0.309,0.44-0.617,0.881-0.924,1.3c-2.166,2.912-4.803,5.464-7.695,7.589         c-1.313,0.968-2.66,1.848-4.043,2.661c-0.595,0.373-1.229,0.721-1.841,1.049c-6.93,3.746-14.626,5.937-22.285,7.451         c-0.361,0.074-0.722,0.149-1.081,0.202c-1.019,0.208-2.036,0.394-3.053,0.581c0,0,0,0-0.021-0.002         c-8.348,1.517-16.853,2.68-25.255,3.364c-1.512,0.122-2.58-0.079-3.289-0.566c-0.475-0.297-0.793-0.729-0.956-1.274         c-0.373-1.011-0.257-2.382,0.114-4.049c1.918-8.587,4.122-17.106,7.686-24.932c0.516-1.166,1.095-2.326,1.69-3.443         c1.147-2.215,2.435-4.355,3.861-6.418c1.543-2.202,3.244-4.305,5.145-6.305c1.077-1.138,2.276-2.243,3.576-3.298         c0.517-0.443,1.054-0.864,1.588-1.263c3.033-2.304,6.482-4.359,10.168-6.011c0.5-0.232,0.999-0.465,1.517-0.674         c1.362-0.56,2.741-1.076,4.135-1.527c0.513-0.146,1.026-0.292,1.541-0.459c3.118-0.852,6.293-1.401,9.409-1.487         c0.523-0.018,1.024-0.016,1.545-0.013c6.646,0.097,12.925,2.308,17.65,7.591c0.382,0.416,0.762,0.854,1.118,1.331         c0.301,0.388,0.6,0.797,0.878,1.204C447.278,99.626,448.209,105.617,447.358,111.216z"/>
						</g>
						<path style="fill:#523E3F;" d="M424.482,101.549c7.326,5.109,15.051,8.956,22.599,11.215c0.105-0.501,0.212-1.022,0.277-1.548        c-7.095-2.177-14.385-5.752-21.325-10.486c5.743-3.022,11.489-5.342,17.194-6.943c-0.356-0.478-0.736-0.915-1.118-1.331        c-5.688,1.645-11.417,4.01-17.139,7.033c-0.63-4.859-0.821-9.742-0.511-14.624c-0.521-0.004-1.022-0.005-1.545,0.013        c-0.354,5.155-0.144,10.295,0.591,15.396c-2.472,1.355-4.934,2.838-7.407,4.448c-1.576-6.005-2.451-12.16-2.593-18.357        c-0.515,0.167-1.028,0.313-1.541,0.459c0.17,6.348,1.095,12.656,2.762,18.818c-0.972,0.637-1.947,1.316-2.925,2.016        c-2.183-6.228-3.511-12.699-3.972-19.307c-0.518,0.209-1.018,0.442-1.517,0.674c0.537,6.699,1.918,13.282,4.156,19.599        c-1.889,1.364-3.785,2.812-5.667,4.346c-1.68,1.361-3.341,2.745-4.964,4.174c-2.681-6.995-3.935-14.586-3.693-22.109        c-0.534,0.399-1.071,0.82-1.588,1.263c-0.073,7.496,1.291,15.012,4.04,21.948c-5.051,4.464-9.855,9.205-14.48,14.047        c-1.892-6.458-2.608-13.258-2.142-19.975c-0.596,1.117-1.174,2.277-1.69,3.443c-0.053,6.031,0.81,12.079,2.575,17.824        c-3.525,3.685-6.973,7.44-10.376,11.157c-0.551,0.589-1.079,1.158-1.609,1.749l1.139,1.078        c0.481-0.51,0.944-1.043,1.425-1.553c3.45-3.777,6.963-7.568,10.535-11.313c5.932,3.349,11.948,6.196,18.009,8.515        c0.021,0.002,0.021,0.002,0.021,0.002c1.017-0.187,2.034-0.373,3.053-0.581c-6.723-2.378-13.391-5.409-19.94-9.111        c4.625-4.842,9.406-9.563,14.394-14.012c8.843,6.645,18.661,11.888,28.912,15.469c0.612-0.329,1.247-0.676,1.841-1.049        c-10.488-3.496-20.533-8.759-29.535-15.503c1.646-1.449,3.329-2.852,5.032-4.232c3.248-2.625,6.498-5.038,9.77-7.215        c8.165,6.521,17.195,12.205,26.471,16.699c0.307-0.419,0.615-0.86,0.924-1.3c-9.118-4.395-17.991-9.959-26.003-16.318        c2.516-1.627,5.023-3.149,7.539-4.521L424.482,101.549z"/>
					</g>
					<g>
						<g>
							<path style="fill:#FFBC51;" d="M405.758,208.641c-0.333,0.407-0.699,0.788-1.052,1.152c-0.682,0.695-1.4,1.334-2.138,1.931         c-1.989,1.594-4.149,2.893-6.451,3.895c-0.493,0.202-0.986,0.403-1.466,0.588c-3.365,1.264-6.936,1.966-10.496,2.169         c-1.618,0.095-3.219,0.097-4.814,0.022c-0.698-0.012-1.417-0.068-2.106-0.127c-7.819-0.649-15.461-3.028-22.714-5.957         c-0.343-0.135-0.687-0.271-1.018-0.423c-0.968-0.384-1.924-0.785-2.879-1.187c0,0,0,0-0.017-0.013         c-7.834-3.304-15.614-6.994-23.054-11.03c-1.338-0.728-2.132-1.483-2.472-2.283c-0.243-0.511-0.283-1.05-0.131-1.598         c0.22-1.056,1.043-2.147,2.238-3.348c6.157-6.181,12.519-12.148,19.66-16.783c1.051-0.699,2.152-1.359,3.244-1.972         c2.138-1.236,4.354-2.332,6.647-3.287c2.464-1.008,5.01-1.845,7.669-2.487c1.509-0.367,3.104-0.64,4.756-0.815         c0.67-0.089,1.344-0.149,2.006-0.192c3.773-0.276,7.766-0.114,11.745,0.518c0.544,0.079,1.087,0.157,1.635,0.265         c1.443,0.276,2.878,0.598,4.291,0.983c0.51,0.159,1.019,0.317,1.541,0.459c3.077,0.994,6.043,2.275,8.713,3.912         c0.45,0.272,0.871,0.548,1.308,0.837c5.547,3.73,9.668,9.039,10.854,16.084c0.102,0.56,0.191,1.137,0.238,1.735         c0.048,0.492,0.084,1,0.103,1.496C411.82,198.834,409.437,204.391,405.758,208.641z"/>
						</g>
						<path style="fill:#523E3F;" d="M411.496,191.69c-0.047-0.597-0.136-1.175-0.238-1.735c-5.662-1.737-11.738-2.89-18.158-3.484        c2.038-4.439,4.461-8.658,7.304-12.6c-0.437-0.289-0.858-0.565-1.308-0.837c-3.024,4.148-5.566,8.593-7.644,13.294        c-2.799-0.216-5.658-0.318-8.592-0.319c1.848-5.923,4.366-11.589,7.524-16.887c-0.522-0.142-1.031-0.3-1.541-0.459        c-3.214,5.441-5.771,11.263-7.625,17.369c-1.156,0.003-2.336,0.04-3.53,0.093c1.455-6.445,3.758-12.626,6.865-18.445        c-0.547-0.108-1.091-0.187-1.635-0.265c-3.091,5.938-5.408,12.242-6.865,18.793c-2.312,0.112-4.675,0.291-7.073,0.55        c-2.135,0.224-4.266,0.478-6.39,0.791c1.441-7.364,4.399-14.448,8.582-20.652c-0.661,0.043-1.335,0.103-2.006,0.192        c-4.026,6.274-6.851,13.355-8.204,20.707c-6.617,0.987-13.171,2.345-19.627,3.884c1.821-6.479,4.814-12.6,8.759-18.003        c-1.092,0.614-2.193,1.274-3.244,1.972c-3.234,5.052-5.706,10.62-7.257,16.429c-4.918,1.169-9.809,2.44-14.641,3.703        c-0.775,0.194-1.522,0.384-2.281,0.591l0.39,1.534c0.675-0.166,1.347-0.361,2.022-0.526c4.903-1.288,9.869-2.553,14.858-3.747        c3.226,6.078,6.788,11.779,10.667,17.06c0.017,0.013,0.017,0.013,0.017,0.013c0.955,0.401,1.911,0.802,2.879,1.187        c-4.407-5.694-8.42-11.909-11.98-18.621c6.457-1.54,12.982-2.893,19.536-3.902c3.936,10.453,9.433,20.26,16.175,28.903        c0.689,0.059,1.408,0.115,2.106,0.127c-6.986-8.702-12.665-18.65-16.682-29.273c2.152-0.317,4.313-0.575,6.477-0.803        c4.124-0.429,8.138-0.677,12.046-0.714c3.43,9.977,8.03,19.721,13.468,28.6c0.48-0.185,0.973-0.386,1.466-0.588        c-5.356-8.708-9.889-18.266-13.275-28.022c2.98,0.011,5.897,0.105,8.742,0.33l0.017,0.013        c3.47,8.326,7.943,15.808,13.106,21.854c0.353-0.364,0.719-0.745,1.053-1.152c-4.826-5.729-9.076-12.742-12.419-20.541        C399.775,188.707,405.843,189.907,411.496,191.69z"/>
					</g>
				</g>
				<g>
					<g>
						<path style="fill:#523E3F;" d="M268.144,292.714l-1.228-1.701c42.104-30.439,91.517-49.249,142.899-54.395l0.21,2.089        C359.011,243.815,309.949,262.49,268.144,292.714z"/>
					</g>
					<g>
						<g>
							<path style="fill:#FFBC51;" d="M462.58,253.157c-0.327,0.412-0.687,0.798-1.035,1.168c-0.671,0.705-1.38,1.356-2.109,1.963         c-1.965,1.624-4.105,2.957-6.392,3.994c-0.49,0.209-0.98,0.418-1.457,0.61c-3.346,1.315-6.905,2.073-10.462,2.331         c-1.616,0.12-3.217,0.146-4.813,0.097c-0.698-0.002-1.418-0.046-2.108-0.095c-7.828-0.528-15.504-2.789-22.799-5.606         c-0.346-0.13-0.691-0.26-1.024-0.407c-0.974-0.369-1.935-0.756-2.897-1.142c0,0,0,0-0.017-0.013         c-7.882-3.183-15.716-6.752-23.215-10.674c-1.349-0.707-2.154-1.45-2.505-2.244c-0.251-0.507-0.298-1.045-0.155-1.596         c0.204-1.06,1.011-2.163,2.188-3.383c6.065-6.275,12.338-12.339,19.409-17.084c1.041-0.715,2.132-1.392,3.215-2.022         c2.12-1.269,4.319-2.399,6.598-3.389c2.449-1.046,4.982-1.922,7.631-2.605c1.503-0.39,3.094-0.688,4.744-0.888         c0.669-0.1,1.342-0.17,2.003-0.223c3.769-0.335,7.763-0.234,11.751,0.337c0.545,0.07,1.089,0.14,1.638,0.24         c1.447,0.254,2.886,0.554,4.305,0.917c0.512,0.151,1.023,0.301,1.548,0.435c3.091,0.947,6.076,2.182,8.77,3.778         c0.454,0.265,0.879,0.535,1.32,0.817c5.602,3.644,9.8,8.889,11.091,15.915c0.11,0.559,0.207,1.134,0.263,1.731         c0.056,0.491,0.099,0.999,0.126,1.494C468.496,243.257,466.195,248.85,462.58,253.157z"/>
						</g>
						<path style="fill:#523E3F;" d="M468.066,236.119c-0.056-0.597-0.154-1.172-0.263-1.731c-5.687-1.649-11.78-2.708-18.207-3.203        c1.972-4.47,4.332-8.726,7.116-12.711c-0.442-0.282-0.866-0.552-1.321-0.817c-2.962,4.194-5.437,8.678-7.446,13.411        c-2.802-0.173-5.662-0.231-8.596-0.187c1.76-5.951,4.193-11.655,7.273-17.001c-0.524-0.134-1.036-0.284-1.548-0.435        c-3.133,5.49-5.603,11.351-7.367,17.484c-1.155,0.021-2.336,0.076-3.528,0.148c1.359-6.467,3.571-12.682,6.59-18.549        c-0.549-0.1-1.094-0.17-1.638-0.24c-3.002,5.985-5.226,12.323-6.585,18.896c-2.311,0.147-4.671,0.363-7.064,0.659        c-2.132,0.257-4.259,0.543-6.377,0.89c1.331-7.386,4.184-14.513,8.274-20.782c-0.661,0.053-1.334,0.123-2.003,0.223        c-3.932,6.336-6.652,13.459-7.896,20.831c-6.601,1.089-13.134,2.547-19.567,4.186c1.725-6.506,4.627-12.673,8.491-18.136        c-1.083,0.63-2.174,1.307-3.215,2.022c-3.159,5.101-5.547,10.707-7.012,16.539c-4.901,1.244-9.772,2.591-14.585,3.928        c-0.773,0.206-1.516,0.407-2.271,0.626l0.412,1.527c0.673-0.176,1.341-0.382,2.014-0.557        c4.884-1.363,9.829-2.706,14.801-3.976c3.316,6.028,6.962,11.673,10.92,16.894c0.017,0.013,0.017,0.013,0.017,0.013        c0.961,0.386,1.923,0.773,2.897,1.142c-4.491-5.626-8.596-11.777-12.255-18.435c6.433-1.639,12.937-3.092,19.476-4.203        c4.09,10.391,9.733,20.111,16.602,28.651c0.69,0.049,1.409,0.093,2.108,0.095c-7.115-8.594-12.941-18.453-17.115-29.013        c2.148-0.35,4.304-0.641,6.464-0.903c4.117-0.492,8.128-0.802,12.034-0.9c3.578,9.923,8.322,19.595,13.892,28.389        c0.477-0.192,0.967-0.401,1.457-0.61c-5.485-8.624-10.159-18.111-13.69-27.814c2.98-0.035,5.898,0.014,8.746,0.195        l0.017,0.013c3.593,8.271,8.177,15.683,13.429,21.649c0.348-0.369,0.708-0.756,1.035-1.168        c-4.911-5.654-9.264-12.601-12.722-20.347C456.302,233.317,462.387,234.423,468.066,236.119z"/>
					</g>
					<g>
						<g>
							<path style="fill:#FFBC51;" d="M381.483,315.773c-0.489,0.181-0.993,0.324-1.478,0.458c-0.932,0.252-1.868,0.438-2.801,0.576         c-2.505,0.361-5.014,0.379-7.498,0.068c-0.525-0.078-1.051-0.156-1.557-0.241c-3.533-0.629-6.967-1.848-10.145-3.495         c-1.446-0.746-2.831-1.563-4.174-2.444c-0.597-0.368-1.191-0.783-1.758-1.187c-6.442-4.562-11.878-10.529-16.706-16.772         c-0.23-0.293-0.461-0.586-0.672-0.887c-0.648-0.828-1.276-1.663-1.905-2.499c0,0,0,0-0.008-0.02         c-5.146-6.866-10.055-14.037-14.499-21.334c-0.799-1.314-1.113-2.373-1.012-3.239c0.041-0.567,0.273-1.052,0.674-1.449         c0.711-0.801,1.961-1.323,3.586-1.751c8.371-2.195,16.814-4.099,25.274-4.454c1.254-0.066,2.531-0.074,3.778-0.046         c2.459,0.025,4.915,0.211,7.368,0.559c2.628,0.389,5.242,0.967,7.858,1.773c1.486,0.455,3,1.034,4.515,1.729         c0.623,0.266,1.236,0.559,1.829,0.86c3.399,1.692,6.772,3.875,9.901,6.457c0.431,0.346,0.863,0.692,1.283,1.066         c1.112,0.977,2.194,1.99,3.226,3.046c0.362,0.398,0.725,0.796,1.106,1.185c2.171,2.434,4.104,5.059,5.606,7.841         c0.255,0.466,0.483,0.92,0.718,1.393c2.958,6.064,3.904,12.763,1.458,19.462c-0.189,0.536-0.396,1.081-0.65,1.622         c-0.201,0.45-0.421,0.908-0.648,1.347C391.559,310.394,386.758,313.98,381.483,315.773z"/>
						</g>
						<path style="fill:#523E3F;" d="M381.465,290.125c3.951-2.796,8.125-5.204,12.527-7.159c-0.236-0.474-0.463-0.928-0.718-1.393        c-4.66,2.039-9.049,4.583-13.164,7.585c-2.314-1.619-4.736-3.17-7.273-4.672c4.518-4.177,9.488-7.788,14.831-10.754        c-0.382-0.39-0.744-0.787-1.106-1.185c-5.461,3.061-10.543,6.787-15.155,11.118c-1.001-0.589-2.04-1.161-3.099-1.726        c4.435-4.829,9.474-8.995,15.028-12.438c-0.42-0.373-0.852-0.72-1.283-1.066c-5.6,3.554-10.711,7.819-15.199,12.739        c-2.055-1.087-4.187-2.141-6.387-3.143c-1.957-0.899-3.925-1.769-5.916-2.585c4.876-5.631,10.926-10.243,17.601-13.468        c-0.593-0.301-1.205-0.595-1.829-0.86c-6.574,3.366-12.508,8.043-17.302,13.709c-6.209-2.531-12.545-4.711-18.888-6.683        c4.768-4.671,10.374-8.433,16.449-11.087c-1.247-0.028-2.524-0.02-3.778,0.046c-5.287,2.713-10.169,6.265-14.373,10.494        c-4.829-1.506-9.685-2.909-14.487-4.289c-0.766-0.229-1.505-0.447-2.263-0.656l-0.419,1.525        c0.666,0.202,1.343,0.377,2.008,0.58c4.875,1.395,9.793,2.841,14.695,4.362c-0.206,6.906,0.065,13.659,0.816,20.211        c0.008,0.02,0.008,0.02,0.008,0.02c0.629,0.836,1.257,1.671,1.905,2.499c-1.004-7.178-1.412-14.606-1.181-22.232        c6.342,1.972,12.652,4.141,18.817,6.621c-1.749,11.053-1.828,22.346-0.259,33.27c0.567,0.404,1.161,0.819,1.758,1.188        c-1.752-11.1-1.759-22.608,0.004-33.85c2.018,0.827,4.013,1.71,5.997,2.62c3.778,1.739,7.371,3.579,10.769,5.545        c-1.952,10.382-2.776,21.163-2.45,31.623c0.506,0.086,1.032,0.164,1.557,0.242c-0.34-10.271,0.452-20.855,2.332-31.024        c2.572,1.534,5.048,3.108,7.397,4.758l0.008,0.02c-1.103,8.975-0.923,17.733,0.562,25.603c0.485-0.134,0.99-0.276,1.478-0.457        c-1.349-7.423-1.568-15.663-0.614-24.117c5.266,3.818,9.922,7.959,13.931,12.394c0.254-0.541,0.461-1.085,0.65-1.622        C391.409,298.029,386.723,293.923,381.465,290.125z"/>
					</g>
				</g>
			</g>
			<g>
				<g>
					<g>
						<path style="fill:#FFC7C3;" d="M217.784,320.164c0,5.378-0.104,10.883-0.956,16.198c-5.507-0.085-10.908-0.194-16.187-0.406        l-0.803-0.455l-0.82,0.395c-17.997-0.678-34.519-1.927-48.713-3.621c-7.544-7.072-15.108-14.122-22.652-21.194        c-4.489-4.213-8.998-8.427-13.508-12.64c0,0,0.386-0.74,0.089-1.02c-0.389-0.366-2.146-0.907-2.146-0.907        c-0.416-0.381-0.811-0.762-1.226-1.143c-7.772-7.262-15.67-14.694-20.865-24.053c-2.016-3.642-3.596-7.665-4.468-11.772        c0,0,0.809-0.459,0.761-0.702c-0.058-0.297-1.073-0.928-1.073-0.928v-0.021c-1.039-5.929-0.623-12.005,1.808-17.489        c2.951-6.648,8.645-11.941,11.264-18.611c0,0,0.961-0.291,1.059-0.57c0.082-0.235-0.585-0.733-0.518-0.975        c0.125-0.339,0.229-0.699,0.312-1.059c2.245-8.999-2.182-18.146-5.777-26.678c-0.457-1.08-0.894-2.16-1.33-3.239        c0,0,0.473-0.607,0.365-0.885c-0.116-0.299-1.03-0.851-1.03-0.851c-2.889-7.474-5.216-15.139-6.983-22.952        c0,0,0.839-0.466,0.772-0.772c-0.063-0.287-1.147-1.006-1.147-1.006c-1.974-8.998-3.159-18.167-3.595-27.356        c-0.249-5.378-0.229-10.883,0.416-16.261c0,0,0.913-0.441,0.942-0.678c0.037-0.292-0.734-0.91-0.734-0.91        c0.873-6.246,2.598-12.323,5.653-17.807c3.138-5.59,8.001-10.417,13.612-13.339h0.021c-0.021,0,0.956,0.362,1.172,0.252        c0.246-0.125,0.221-0.951,0.221-0.951c4.655-2.16,9.788-3.007,14.838-1.948c6.609,1.376,11.95,5.526,16.418,10.777        c0,0,0.164,1.173,0.351,1.398c0.203,0.245,0.834,0.02,0.834,0.02c2.993,3.748,5.59,7.94,7.918,12.048        c0.728,1.291,1.455,2.604,2.182,3.917c0,0-0.192,1.342-0.049,1.604c0.143,0.262,0.901-0.037,0.901-0.037        c5.071,9.274,9.768,18.738,14.048,28.393c0.935,2.075,1.912,4.214,3.034,6.289c0,0-0.003,1.184,0.17,1.489        c0.14,0.246,0.765,0.163,0.765,0.163c2.868,4.849,6.546,8.956,11.825,10.015c4.593,0.91,9.373-0.847,13.986-0.064        c7.585,1.313,11.825,8.491,14.298,16.325c0,0-0.41,1.303-0.299,1.687c0.088,0.305,0.902,0.388,0.902,0.388        c0.603,2.096,1.06,4.213,1.434,6.246c2.265,12.302,4.26,24.667,5.923,37.053c0,0-0.447,1.381-0.384,1.855        c0.051,0.377,0.717,0.707,0.717,0.707c0,0.021,0,0.021,0,0.021c1.891,14.44,3.346,28.922,4.385,43.426        c0,0-0.407,1.896-0.376,2.368c0.032,0.486,0.563,0.511,0.563,0.511c0.582,8.533,1.018,17.087,1.289,25.619        c0,0-0.507,1.294-0.493,1.794c0.011,0.41,0.576,0.938,0.576,0.938c0.062,1.905,0.104,3.79,0.145,5.695        C217.743,309.704,217.784,314.934,217.784,320.164z"/>
					</g>
					<path style="fill:#523E3F;" d="M217.473,298.757c-0.021-0.91-0.042-1.821-0.083-2.731       c-6.338,9.824-12.885,19.522-19.597,28.986c-1.309-4.912-2.639-9.803-4.032-14.694v-0.021       c4.364-7.728,8.687-15.456,13.009-23.206c3.097-5.569,6.193-11.116,9.331-16.685c-0.062-0.953-0.125-1.905-0.187-2.88       c-3.512,6.267-7.024,12.534-10.516,18.781c-4.073,7.305-8.126,14.588-12.241,21.893c-3.304-11.688-6.837-23.333-10.557-34.893       c6.442-11.053,12.864-21.957,19.306-32.882c3.2-5.442,6.401-10.862,9.622-16.325c0,0,0,0,0-0.021       c-0.104-0.847-0.229-1.694-0.333-2.562c-3.554,6.056-7.087,12.069-10.64,18.082c-6.214,10.544-12.407,21.067-18.6,31.718       c-3.679-11.37-7.544-22.676-11.596-33.899l33.48-59.2c-0.166-0.699-0.374-1.376-0.603-2.075l-33.584,59.37       c-6.775-18.696-14.09-37.18-21.904-55.453c4.967-9.337,10.059-19.331,15.379-30.193c-0.333-0.551-0.644-1.101-0.935-1.652       c-5.279,10.798-10.328,20.75-15.233,30.024c-5.736-13.339-11.742-26.551-18.039-39.636l0.249,0.19       c3.679-5.103,7.232-10.989,10.661-16.663c1.725-2.858,3.492-5.759,5.279-8.596c-0.27-0.529-0.561-1.059-0.852-1.567       c-1.954,3.049-3.866,6.225-5.757,9.337c-3.284,5.442-6.692,11.074-10.204,16.007c-1.476-3.091-2.972-6.161-4.51-9.232       c2.224-6.669,4.385-13.445,6.505-20.029c1.247-3.959,2.556-8.004,3.866-12.048c-0.395-0.487-0.769-0.953-1.185-1.419       c-1.413,4.34-2.806,8.702-4.177,12.979c-1.953,6.077-3.948,12.365-5.985,18.526c-6.733-13.593-13.779-27.038-21.094-40.335       c-0.478,0.19-0.935,0.423-1.392,0.699c7.502,13.636,14.714,27.441,21.613,41.372c-13.238-4.87-26.954-8.3-40.899-10.227       c-0.083,0.529-0.146,1.059-0.208,1.588c14.173,1.948,28.118,5.484,41.585,10.502l0.54,0.191       c8.126,16.494,15.815,33.2,23.047,50.096l-61.993-17.171c0.104,0.593,0.249,1.186,0.374,1.779l62.408,17.256       c2.141,4.997,4.24,9.994,6.297,15.012c-20.574-2.435-41.273-5.547-61.723-9.316c0.208,0.572,0.436,1.143,0.665,1.736       c20.47,3.747,41.19,6.839,61.744,9.274c4.925,12.111,9.622,24.307,14.09,36.587c-22.611-6.479-45.783-11.455-69.038-14.885       c-0.146,0.529-0.333,1.037-0.54,1.545c23.671,3.451,47.259,8.554,70.243,15.181h0.021c4.26,11.73,8.313,23.566,12.137,35.465       c-31.484-6.098-63.572-10.989-95.472-14.525c0.083,0.55,0.187,1.08,0.312,1.63c32.004,3.578,64.175,8.49,95.722,14.631       c3.72,11.582,7.253,23.227,10.557,34.936l-79.72-12.598c0.686,0.635,1.371,1.291,2.057,1.927l78.14,12.365       c2.369,8.342,4.614,16.706,6.733,25.09h0.021c0,0,1.6,0.049,1.6,0.042c-0.748-2.986-1.517-5.971-2.307-8.935       C204.858,317.771,211.28,308.328,217.473,298.757z"/>
				</g>
				<g>
					<g>
						<path style="fill:#FFC7C3;" d="M317.085,277.288c-0.021,0.741-0.104,1.461-0.27,2.16c0,0-0.759,0.613-0.831,0.904        c-0.073,0.297,0.395,0.854,0.395,0.854c-0.395,1.292-0.914,2.562-1.455,3.811c-1.579,3.6-3.367,7.093-5.362,10.481        c0,0-0.966,0.772-1.185,1.135c-0.198,0.329-0.084,0.947-0.062,0.94c3.654-1.182-4.177,6.458-6.546,9.485        c-2.722,3.473-5.632,6.775-8.749,9.845c0,0-1.86,0.724-2.251,1.095c-0.373,0.353-0.035,1.065-0.035,1.065        c-0.499,0.508-0.998,0.974-1.497,1.419c-6.609,5.929-13.533,10.742-21.16,15.04c-11.264,0.487-23.438,0.925-35.721,0.925        h-0.521l-0.626-0.413l-1.057,0.413c-3.408,0-6.804-0.001-10.129-0.043c-0.208,0-0.629-0.007-0.629-0.013        c2.14-8.617,4.42-17.284,6.913-25.817c0,0,0.969-0.06,1.041-0.319c0.11-0.394-0.48-1.629-0.48-1.629        c0.395-1.418,0.811-2.837,1.247-4.235c0.582-1.948,1.185-3.896,1.808-5.823c0,0,0.708-0.137,0.795-0.409        c0.104-0.327-0.213-1.39-0.213-1.39c2.494-7.813,5.237-15.541,8.251-23.1c0,0,0.564-0.137,0.674-0.415        c0.161-0.407,0.137-1.638,0.137-1.638c5.549-13.636,12.054-26.784,19.93-39.213c0,0,0.904-0.021,0.987-0.148l0.135-1.567        c5.071-7.686,11.638-15.266,20.553-16.388c4.925-0.614,9.851,0.974,13.903,3.938c0,0-0.063,0.836,0.144,0.995        c0.208,0.159,1.103-0.042,1.103-0.042c2.036,1.672,3.803,3.705,5.175,5.95c2.993,4.849,4.364,10.523,4.593,16.282        c0,0-0.493,0.694-0.485,0.979c0.008,0.276,0.526,0.715,0.526,0.715c0.021,1.948-0.104,3.896-0.332,5.823        c-0.353,2.922-0.914,5.78-1.642,8.618c0,0-0.837,0.566-0.932,0.93c-0.068,0.261,0.433,0.933,0.433,0.933        c-1.226,4.468-2.785,8.872-4.343,13.233c2.016-1.736,4.676-1.906,7.128-2.901c2.452-0.995,5.403-1.08,7.565,0.445        C316.191,271.719,317.189,274.578,317.085,277.288z"/>
					</g>
					<path style="fill:#523E3F;" d="M316.378,281.205c0.187-0.572,0.333-1.164,0.436-1.757       c-19.618,5.336-40.587,10.163-66.294,15.266c3.616-7.538,7.378-15.054,11.347-22.486c14.111-3.451,28.118-7.749,41.793-12.81       c0.187-0.614,0.333-1.249,0.499-1.863c-13.529,5.039-27.349,9.316-41.294,12.788c2.161-3.98,4.364-7.961,6.65-11.878       l0.021-0.021c8.23-3.557,16.543-7.008,24.606-10.333c3.949-1.651,7.96-3.303,11.991-4.997c0-0.572-0.021-1.122-0.042-1.694       c-4.219,1.779-8.417,3.493-12.531,5.208c-7.44,3.07-15.088,6.246-22.673,9.549c7.627-12.937,16.023-25.408,25.437-36.989       c-0.395-0.339-0.811-0.656-1.247-0.953c-9.892,12.153-18.662,25.281-26.601,38.895l-7.855-26.445       c-0.291,0.444-0.582,0.889-0.873,1.334c-0.083,0.127-0.166,0.254-0.249,0.381l7.897,26.615       c-6.567,11.37-12.573,23.079-18.164,34.809l-9.663-22.211c-0.27,0.677-0.54,1.355-0.811,2.054l9.581,22.02       c-2.639,5.547-5.175,11.095-7.648,16.621c-2.993-5.442-6.401-10.65-10.183-15.541c-0.208,0.593-0.395,1.186-0.582,1.8       c3.699,4.912,7.045,10.12,9.955,15.541c-1.517,3.43-3.014,6.839-4.51,10.227c-2.265-5.526-5.112-10.798-8.5-15.711       c-0.208,0.635-0.395,1.292-0.561,1.948c3.284,4.912,6.006,10.184,8.188,15.71l0.021,0.043       c-1.475,3.409-2.951,6.775-4.364,10.121h1.683c1.392-3.218,2.785-6.458,4.198-9.719c14.485-1.122,34.415-3.092,54.698-7.665       c0.769-0.656,1.538-1.397,2.286-2.16c-20.699,4.891-41.252,7.008-56.257,8.173c1.475-3.388,2.972-6.797,4.51-10.227       c25.021-5.166,47.154-10.84,67.043-17.277c0.436-0.678,0.852-1.376,1.247-2.075c-20.013,6.543-42.25,12.323-67.5,17.553       c2.473-5.505,5.009-11.031,7.627-16.557C275.562,291.389,296.677,286.54,316.378,281.205z"/>
				</g>
			</g>
			<g>
				<g>
					<path style="fill:#FFE4CF;" d="M194.167,90.136c1.283,2.697,4.693,5.515,7.578,6.264l14.105,3.659       c2.885,0.748,3.036,2.451,0.332,3.784l-13.212,6.514c-2.702,1.334-5.561,4.807-6.351,7.72l-3.864,14.242       c-0.79,2.913-2.487,3.09-3.77,0.394l-6.27-13.183c-1.283-2.696-4.693-5.514-7.579-6.263l-14.105-3.658       c-2.886-0.749-3.035-2.452-0.332-3.785l13.213-6.514c2.702-1.334,5.561-4.808,6.351-7.721l3.864-14.241       c0.79-2.914,2.486-3.09,3.768-0.393L194.167,90.136z"/>
				</g>
				<g>
					<path style="fill:#FFE4CF;" d="M201.209,38.092c1.887,1.022,5.074,1.187,7.082,0.366l9.816-4.013       c2.008-0.821,2.812,0.113,1.786,2.075l-5.012,9.592c-1.024,1.963-1.24,5.249-0.479,7.303l3.724,10.044       c0.761,2.054-0.159,2.899-2.046,1.877l-9.225-4.997c-1.887-1.022-5.073-1.187-7.082-0.366l-9.815,4.013       c-2.008,0.82-2.812-0.114-1.787-2.076l5.013-9.592c1.024-1.963,1.24-5.249,0.479-7.304l-3.724-10.044       c-0.762-2.055,0.159-2.899,2.046-1.876L201.209,38.092z"/>
				</g>
				<g>
					<path style="fill:#FFE4CF;" d="M151.072,40.871c1.02,1.914,3.588,3.843,5.707,4.288l10.359,2.173       c2.119,0.444,2.284,1.676,0.366,2.735l-9.376,5.18c-1.917,1.061-3.878,3.679-4.356,5.821l-2.335,10.47       c-0.478,2.142-1.703,2.329-2.723,0.415l-4.986-9.354c-1.02-1.913-3.588-3.842-5.707-4.287l-10.359-2.173       c-2.119-0.445-2.284-1.676-0.366-2.736l9.376-5.18c1.917-1.061,3.878-3.68,4.356-5.822l2.335-10.469       c0.478-2.142,1.702-2.328,2.722-0.414L151.072,40.871z"/>
				</g>
			</g>
		</g>
		<g>
			<g>
				<path style="fill:#FFE4CF;" d="M390.853,358.532c1.887,1.022,5.074,1.187,7.082,0.366l9.816-4.013      c2.008-0.821,2.813,0.113,1.787,2.075l-5.012,9.592c-1.025,1.962-1.241,5.249-0.479,7.303l3.724,10.044      c0.762,2.055-0.159,2.9-2.046,1.878l-9.225-4.997c-1.887-1.022-5.074-1.187-7.082-0.366l-9.815,4.013      c-2.008,0.821-2.812-0.113-1.787-2.076l5.013-9.592c1.024-1.963,1.24-5.25,0.479-7.304l-3.724-10.044      c-0.762-2.055,0.158-2.899,2.046-1.876L390.853,358.532z"/>
			</g>
			<g>
				<path style="fill:#FFE4CF;" d="M58.321,358.532c1.887,1.022,5.074,1.187,7.082,0.366l9.816-4.013      c2.008-0.821,2.812,0.113,1.787,2.075l-5.012,9.592c-1.025,1.962-1.24,5.249-0.479,7.303l3.724,10.044      c0.761,2.055-0.159,2.9-2.046,1.878l-9.225-4.997c-1.887-1.022-5.073-1.187-7.082-0.366l-9.815,4.013      c-2.008,0.821-2.812-0.113-1.787-2.076l5.013-9.592c1.024-1.963,1.24-5.25,0.479-7.304l-3.724-10.044      c-0.762-2.055,0.159-2.899,2.046-1.876L58.321,358.532z"/>
			</g>
			<g>
				<path style="fill:#FFE4CF;" d="M400.249,410.808c3.103,0.171,7.404-1.6,9.558-3.934l10.532-11.413      c2.154-2.335,3.776-1.605,3.603,1.622l-0.846,15.774c-0.172,3.227,1.518,7.695,3.757,9.929l10.946,10.921      c2.239,2.234,1.532,3.922-1.57,3.752l-15.167-0.836c-3.102-0.17-7.403,1.6-9.558,3.934l-10.531,11.413      c-2.155,2.335-3.776,1.604-3.604-1.622l0.847-15.775c0.172-3.227-1.519-7.695-3.757-9.929l-10.945-10.921      c-2.24-2.234-1.533-3.921,1.57-3.75L400.249,410.808z"/>
			</g>
		</g>
	</g>
</g>















</svg>
