<?xml version="1.0" encoding="UTF-8"?>
<!-- Generator: Adobe Illustrator 25.2.1, SVG Export Plug-In . SVG Version: 6.00 Build 0)  -->
<svg xmlns="http://www.w3.org/2000/svg" xmlns:xlink="http://www.w3.org/1999/xlink" version="1.1" id="Capa_1" x="0px" y="0px" viewBox="0 0 512 512" style="enable-background:new 0 0 512 512;" xml:space="preserve" width="512" height="512">
<g>
	<path style="fill:#FFFFFF;" d="M260.205,505.872c-39.777-0.037-81.777-9.86-116.481-28.768   c-14.668-7.744-28.635-17.008-41.524-27.543c-5.545-4.537-10.829-9.268-15.983-14.237c-10.351-10.043-19.895-21.056-28.352-32.719   c-0.478-0.642-1.044-1.413-1.588-2.184c-1.345-1.9-2.682-3.826-3.992-5.805c-2.265-3.384-4.587-7.103-7.033-11.263   c-18.594-10.784-26.515-19.556-27.112-29.781c-0.103-1.757,0.034-3.477,0.393-5.134c-6.615-5.972-9.685-11.686-10.005-18.008   c-0.188-3.741,0.705-7.319,2.54-10.448c-7.32-6.37-10.754-12.435-11.049-19.05c-0.288-6.502,2.699-12.521,8.197-16.513   c1.103-0.802,2.274-1.482,3.494-2.039c-0.915-8.704-1.376-17.534-1.376-26.38c0-28.552,4.773-56.515,14.185-83.117   c0.661-1.974,1.371-3.897,2.116-5.819C44.439,120.29,75.634,80.25,116.817,51.343c42.144-29.58,91.725-45.215,143.388-45.215   c15.793,0,31.512,1.477,46.724,4.39c21.754,4.08,42.927,11.108,62.868,20.877c60.216,29.415,106.776,82.722,127.732,146.247   c2.086,6.287,3.943,12.803,5.512,19.342c4.663,19.192,7.035,39.063,7.035,59.016c0,8.954-0.49,18.061-1.459,27.065   c-0.151,1.4-0.322,2.821-0.512,4.287c2.447,3.217,3.821,7.067,3.892,11.116c0.139,8.048-4.602,14.312-9.531,18.898   c-0.244,0.973-0.491,1.933-0.739,2.88c1.12,2.388,1.733,4.989,1.769,7.68c0.11,8.2-4.878,14.574-10.036,19.231   c0.278,1.269,0.427,2.574,0.435,3.902c0.061,9.25-6.418,16.264-12.447,21.155c-1.332,2.54-2.586,4.819-3.814,6.939   c-12.981,22.963-29.58,43.649-48.94,61.342c-1.911,1.745-3.848,3.46-5.81,5.144c0.144,2.301-0.139,4.651-0.876,6.968   c-1.759,5.544-5.422,17.08-50.838,27.546c-0.332,0.076-0.62,0.14-0.864,0.194C336.175,497.184,298.232,505.881,260.205,505.872z"/>
	<g>
		<path style="fill:#F7BDD6;" d="M496.998,256c0.03,21.128-2.84,42.17-8.417,62.437c0,0-159.739,116.19-232.827,116.19    c-78.235,0-225.043-139.068-225.043-139.068c-6.994-41.336-3.277-84.51,11.82-123.092    C76.215,83.988,161.821,21.121,262.119,21.121c15.017,0,29.685,1.399,43.902,4.123c20.789,3.898,40.629,10.57,59.095,19.615    c56.421,27.561,100.173,77.11,120.088,137.479C493.008,206.116,496.956,230.354,496.998,256z"/>
		<path style="fill:#FFE7E0;" d="M488.578,318.518c-4.298,15.617-10.17,30.559-17.441,44.702c-1.474,2.873-2.998,5.722-4.623,8.521    c-0.975,1.749-1.999,3.498-3.048,5.222c-0.975,1.649-1.999,3.273-3.023,4.897v0.025c-2.599,4.073-5.297,8.046-8.121,11.919    c-0.4,0.575-0.825,1.149-1.249,1.724c-2.424,3.273-4.898,6.472-7.496,9.595c-43.053,52.373-108.369,85.756-181.457,85.756    c-78.235,0-147.524-38.255-190.202-97.075c-0.5-0.675-1-1.349-1.474-2.024c-1.274-1.799-2.523-3.598-3.748-5.447    c-8.221-12.294-15.292-25.387-21.089-39.18c-0.375-0.85-0.724-1.724-1.049-2.574c-1.074-2.574-2.074-5.147-3.023-7.771    c-0.875-2.349-1.699-4.723-2.449-7.096c-2.849-8.546-5.198-17.291-7.021-26.237c-0.65-3.173-1.249-6.372-1.774-9.595    c1.074-0.175,2.174-0.35,3.248-0.5c3.023-0.45,6.022-0.8,9.045-1.124c0.5-0.05,0.999-0.1,1.474-0.125    c1.35-0.15,2.699-0.25,4.048-0.35c1.425-0.1,2.824-0.2,4.248-0.275c10.395-0.575,20.839-0.325,31.234,0.75    c44.527,4.673,87.605,25.287,117.49,58.595c52.073-36.131,114.316-57.82,177.684-57.171c1.774,0.025,3.548,0.05,5.347,0.125    c1.149,0.025,2.274,0.05,3.423,0.1c1.374,0.05,2.774,0.125,4.173,0.225c0.65,0.025,1.324,0.075,1.999,0.1    c2.049,0.15,4.123,0.3,6.172,0.5c0.15,0,0.275,0.025,0.425,0.025c2.099,0.2,4.198,0.4,6.272,0.65    c0.225,0.025,0.45,0.05,0.65,0.075c2.299,0.275,4.597,0.55,6.871,0.9c2.199,0.3,4.373,0.65,6.572,1.024    c0.375,0.05,0.775,0.125,1.174,0.2c1.399,0.225,2.798,0.5,4.198,0.775c1.099,0.2,2.199,0.4,3.324,0.65    c1.749,0.35,3.498,0.725,5.247,1.099c0.45,0.1,0.9,0.2,1.349,0.325c1.999,0.45,3.998,0.924,5.972,1.424    c1.924,0.499,3.848,0.999,5.772,1.524c0.674,0.2,1.374,0.4,2.049,0.6c1.724,0.475,3.448,0.999,5.147,1.524    c0.375,0.125,0.75,0.225,1.124,0.35c2.099,0.65,4.198,1.349,6.297,2.049c2.224,0.775,4.448,1.574,6.671,2.399    c2.224,0.799,4.423,1.674,6.597,2.549c0.15,0.05,0.275,0.1,0.4,0.15c2.024,0.825,4.023,1.674,6.022,2.524    c0.1,0.05,0.175,0.075,0.275,0.125C484.38,316.594,486.479,317.543,488.578,318.518z"/>
		<path style="opacity:0.08;fill:#5E2D42;" d="M488.578,318.518c-4.298,15.617-10.17,30.559-17.441,44.702    c-3.267,6.373-6.857,12.584-10.695,18.64v0.025c-5.177,8.092-10.755,15.852-16.866,23.238c0,0-375.657-16.941-376.881-18.79    c-8.221-12.294-15.292-25.387-21.089-39.18c-0.375-0.85-0.724-1.724-1.049-2.574c-1.074-2.574-2.074-5.147-3.023-7.771    c-0.875-2.349-1.699-4.723-2.449-7.096c-2.849-8.546-5.198-17.291-7.021-26.237c-0.65-3.173-1.249-6.372-1.774-9.595    c1.074-0.175,2.174-0.35,3.248-0.5c3.023-0.45,6.022-0.8,9.045-1.124c0.5-0.05,0.999-0.1,1.474-0.125    c1.35-0.15,2.699-0.25,4.048-0.35c1.425-0.1,2.824-0.2,4.248-0.275c10.395-0.575,20.839-0.325,31.234,0.75    c44.527,4.673,87.605,25.287,117.49,58.595c52.073-36.131,114.316-57.82,177.684-57.171c35.502,0.34,70.961,7.809,103.522,21.989    C484.38,316.594,486.479,317.543,488.578,318.518z"/>
		<g>
			<g>
				<path style="fill:#5E2D42;" d="M83.99,394.919c-0.259,0-0.512-0.134-0.656-0.373c-4.866-8.07-8.411-16.739-12.24-27.278      c-9.417-25.931-17.049-52.776-22.681-79.786c-0.085-0.415,0.181-0.82,0.595-0.908c0.415-0.076,0.822,0.181,0.908,0.595      c5.617,26.937,13.228,53.71,22.623,79.576c3.797,10.451,7.311,19.045,12.108,27.01c0.22,0.361,0.102,0.835-0.261,1.052      C84.264,394.882,84.127,394.919,83.99,394.919z"/>
				<path style="fill:#5E2D42;" d="M53.853,309.451c0,0,3.571-44.381-9.225-44.531C29.647,264.744,53.853,309.451,53.853,309.451z"/>
				<g>
					<path style="fill:#5E2D42;" d="M52.926,326.766c0,0-23.632-37.735-33.987-30.215C6.816,305.353,52.926,326.766,52.926,326.766z       "/>
					<g>
						<path style="fill:#5E2D42;" d="M62.856,322.002c0,0,26.858-35.511,16.147-42.514C66.462,271.29,62.856,322.002,62.856,322.002        z"/>
						<path style="fill:#5E2D42;" d="M60.577,333.529c-0.166,0-0.329-0.054-0.466-0.159c-11.447-8.731-21.661-17.086-31.224-25.544        c-0.32-0.281-0.349-0.766-0.068-1.083c0.283-0.322,0.771-0.349,1.083-0.068c9.275,8.201,19.163,16.308,30.199,24.755        c2.565-10.751,6.337-21.215,11.225-31.119c0.188-0.381,0.644-0.537,1.027-0.349c0.381,0.188,0.537,0.647,0.349,1.027        c-5.01,10.153-8.838,20.9-11.376,31.944c-0.059,0.254-0.244,0.461-0.488,0.549C60.753,333.512,60.665,333.529,60.577,333.529z        "/>
					</g>
				</g>
				<g>
					<path style="fill:#5E2D42;" d="M61.865,356.15c0,0-23.919-37.735-34.399-30.215C15.196,334.738,61.865,356.15,61.865,356.15z"/>
					<g>
						<path style="fill:#5E2D42;" d="M71.915,351.386c0,0,27.184-35.511,16.342-42.514        C75.565,300.675,71.915,351.386,71.915,351.386z"/>
						<path style="fill:#5E2D42;" d="M69.611,362.916c-0.166,0-0.329-0.051-0.464-0.154c-11.566-8.714-21.905-17.069-31.605-25.546        c-0.322-0.281-0.354-0.769-0.073-1.088c0.281-0.322,0.771-0.354,1.088-0.073c9.409,8.218,19.419,16.327,30.575,24.76        c2.591-10.746,6.413-21.212,11.361-31.124c0.19-0.383,0.656-0.539,1.035-0.346c0.383,0.19,0.537,0.654,0.347,1.035        c-5.071,10.158-8.946,20.905-11.513,31.942c-0.059,0.254-0.242,0.461-0.488,0.549        C69.789,362.901,69.699,362.916,69.611,362.916z"/>
					</g>
				</g>
				<g>
					<path style="fill:#5E2D42;" d="M71.469,379.142c0,0-23.918-37.735-34.399-30.215C24.8,357.73,71.469,379.142,71.469,379.142z"/>
					<g>
						<path style="fill:#5E2D42;" d="M81.519,374.378c0,0,27.184-35.511,16.342-42.513C85.17,323.667,81.519,374.378,81.519,374.378        z"/>
						<path style="fill:#5E2D42;" d="M79.213,385.91c-0.166,0-0.329-0.051-0.464-0.154c-11.557-8.709-21.893-17.064-31.602-25.546        c-0.322-0.281-0.354-0.769-0.073-1.088c0.281-0.322,0.771-0.354,1.088-0.073c9.417,8.223,19.426,16.332,30.573,24.76        c2.596-10.754,6.418-21.22,11.364-31.124c0.19-0.383,0.656-0.539,1.035-0.346c0.383,0.19,0.537,0.654,0.347,1.035        c-5.068,10.151-8.943,20.897-11.515,31.942c-0.059,0.254-0.242,0.461-0.488,0.549C79.391,385.895,79.3,385.91,79.213,385.91z"/>
					</g>
				</g>
			</g>
			<g>
				<path style="fill:#5E2D42;" d="M431.839,393.65c-0.137,0-0.273-0.037-0.395-0.112c-0.364-0.217-0.481-0.691-0.261-1.052      c4.805-7.97,8.316-16.561,12.108-27.01c9.392-25.851,17.003-52.624,22.623-79.576c0.088-0.417,0.503-0.676,0.908-0.595      c0.415,0.088,0.681,0.493,0.595,0.908c-5.637,27.025-13.267,53.869-22.681,79.786c-3.824,10.534-7.369,19.204-12.24,27.278      C432.351,393.516,432.098,393.65,431.839,393.65z"/>
				<path style="fill:#5E2D42;" d="M461.978,308.181c0,0-3.571-44.381,9.225-44.531      C486.185,263.474,461.978,308.181,461.978,308.181z"/>
				<g>
					<path style="fill:#5E2D42;" d="M462.905,325.496c0,0,23.632-37.735,33.988-30.215       C509.016,304.083,462.905,325.496,462.905,325.496z"/>
					<g>
						<path style="fill:#5E2D42;" d="M452.975,320.731c0,0-26.858-35.511-16.147-42.514        C449.369,270.02,452.975,320.731,452.975,320.731z"/>
						<path style="fill:#5E2D42;" d="M455.252,332.261c-0.088,0-0.176-0.017-0.261-0.046c-0.244-0.088-0.429-0.295-0.488-0.549        c-2.538-11.042-6.364-21.788-11.374-31.944c-0.188-0.381-0.032-0.839,0.349-1.027c0.381-0.188,0.839-0.032,1.027,0.349        c4.885,9.907,8.66,20.37,11.222,31.119c11.025-8.438,20.912-16.547,30.199-24.758c0.315-0.281,0.798-0.254,1.083,0.068        c0.281,0.317,0.251,0.803-0.068,1.083c-9.578,8.47-19.792,16.825-31.224,25.546        C455.582,332.207,455.418,332.261,455.252,332.261z"/>
					</g>
				</g>
				<g>
					<path style="fill:#5E2D42;" d="M453.966,354.88c0,0,23.919-37.735,34.399-30.215       C500.635,333.468,453.966,354.88,453.966,354.88z"/>
					<g>
						<path style="fill:#5E2D42;" d="M443.916,350.116c0,0-27.184-35.511-16.342-42.514        C440.266,299.405,443.916,350.116,443.916,350.116z"/>
						<path style="fill:#5E2D42;" d="M446.221,361.647c-0.088,0-0.178-0.015-0.264-0.046c-0.246-0.088-0.429-0.295-0.488-0.549        c-2.567-11.032-6.44-21.778-11.513-31.942c-0.19-0.381-0.037-0.844,0.346-1.035c0.376-0.188,0.847-0.034,1.035,0.346        c4.951,9.914,8.77,20.38,11.361,31.124c11.176-8.45,21.188-16.559,30.575-24.76c0.322-0.281,0.81-0.249,1.088,0.073        c0.281,0.32,0.249,0.808-0.073,1.088c-9.678,8.458-20.017,16.813-31.605,25.546        C446.551,361.596,446.387,361.647,446.221,361.647z"/>
					</g>
				</g>
				<g>
					<path style="fill:#5E2D42;" d="M444.362,377.872c0,0,23.919-37.735,34.399-30.215       C491.031,356.46,444.362,377.872,444.362,377.872z"/>
					<g>
						<path style="fill:#5E2D42;" d="M434.312,373.108c0,0-27.184-35.511-16.342-42.514        C430.662,322.396,434.312,373.108,434.312,373.108z"/>
						<path style="fill:#5E2D42;" d="M436.617,384.638c-0.088,0-0.178-0.015-0.264-0.046c-0.246-0.088-0.429-0.295-0.488-0.549        c-2.567-11.032-6.44-21.778-11.513-31.942c-0.19-0.381-0.037-0.844,0.347-1.035c0.376-0.19,0.847-0.037,1.035,0.346        c4.951,9.914,8.77,20.38,11.361,31.124c11.176-8.45,21.188-16.559,30.575-24.76c0.322-0.281,0.81-0.249,1.088,0.073        c0.281,0.32,0.249,0.808-0.073,1.088c-9.678,8.458-20.017,16.813-31.605,25.546        C436.946,384.587,436.783,384.638,436.617,384.638z"/>
					</g>
				</g>
			</g>
		</g>
		<g>
			<g>
				<path style="fill:#491D30;" d="M370.267,254.315c-0.473,0-0.937-0.222-1.232-0.634c-0.483-0.681-0.325-1.623,0.354-2.106      l96.344-68.598c0.681-0.481,1.623-0.322,2.106,0.354c0.483,0.681,0.325,1.623-0.354,2.106l-96.345,68.598      C370.874,254.222,370.569,254.315,370.267,254.315z"/>
				<path style="fill:#491D30;" d="M441.558,203.445c-0.425,0-0.832-0.181-1.12-0.5c-0.315-0.346-0.449-0.822-0.364-1.284      l4.624-25.048c0.151-0.822,0.949-1.354,1.757-1.21c0.82,0.151,1.362,0.937,1.21,1.757l-4.265,23.113l26.942-2.157      c0.778-0.071,1.559,0.554,1.625,1.386c0.066,0.83-0.554,1.557-1.386,1.625l-28.904,2.313      C441.639,203.442,441.597,203.445,441.558,203.445z"/>
			</g>
			<g>
				<path style="fill:#FFFFFF;" d="M277.756,53.284c0,0.675-0.025,1.324-0.1,1.999c-1,11.294-10.495,20.165-22.064,20.165      c-6.346,0-12.094-2.674-16.116-6.971c-3.748-3.948-6.047-9.295-6.047-15.192c0-0.725,0.025-1.449,0.125-2.174      c1.075-11.219,10.52-19.99,22.039-19.99c12.044,0,21.839,9.595,22.139,21.564C277.756,52.884,277.756,53.084,277.756,53.284z"/>
				<path style="fill:#491D30;" d="M277.756,53.284c0,0.675-0.025,1.324-0.1,1.999c-12.844,4.173-25.387,8.92-38.18,13.193      c-3.748-3.948-6.047-9.295-6.047-15.192c0-0.725,0.025-1.449,0.125-2.174c14.593-2.824,29.835-2.249,44.178,1.574      C277.756,52.884,277.756,53.084,277.756,53.284z"/>
				<path style="fill:#FFFFFF;" d="M352.163,173.537c-1.116-10.589-2.246-21.247-5.245-31.463      c-8.56-29.16-33.184-53.038-62.593-60.698c-29.409-7.661-62.552,1.17-84.251,22.448s-31.177,54.242-24.094,83.795      c-18.165,14.932-32.649,35.155-41.595,56.902c-9.755,23.716-12.976,49.676-13.1,75.319c-0.083,17.145,1.221,34.522,6.799,50.734      c5.578,16.212,15.792,31.282,30.468,40.145c29.836,18.017,70.233,19.472,105.082,18.863      c40.744-0.713,83.04-4.954,118.041-25.822c17.377-10.361,22.548-32.785,25.762-52.759c2.532-15.739,1.586-31.816,0.213-47.697      c-1.188-13.744-2.7-27.507-5.946-40.914C394.19,231.349,375.77,195.046,352.163,173.537z"/>
				<g>
					<g>
						<circle style="fill:#F7BDD6;" cx="212.208" cy="177.204" r="24.083"/>
						<circle style="fill:#F7BDD6;" cx="323.533" cy="174.174" r="24.083"/>
					</g>
					<path style="fill:#491D30;" d="M240.119,148.815c0,4.228-3.427,7.656-7.656,7.656c-4.228,0-7.656-3.427-7.656-7.656       c0-4.228,3.428-7.656,7.656-7.656C236.691,141.159,240.119,144.587,240.119,148.815z"/>
					<circle style="fill:#491D30;" cx="297.536" cy="145.944" r="7.656"/>
					<path style="fill:#F5755D;" d="M280.429,173.639c-8.086-3.241-16.292-7.184-23.972-11.295c1.141-3.651,3.482-6.915,6.574-9.167       c0.031-0.022,0.062-0.045,0.093-0.067c4.705-3.38,11.38-0.814,13.05,4.733C277.762,163.121,279.367,168.533,280.429,173.639z"/>
				</g>
				<g>
					<g>
						<path style="fill:#F94A39;" d="M265.957,360.452c-0.671,0-1.213-0.542-1.213-1.213v-16.588c0-0.671,0.542-1.213,1.213-1.213        c0.671,0,1.213,0.542,1.213,1.213v16.588C267.17,359.91,266.628,360.452,265.957,360.452z"/>
						<path style="fill:#F94A39;" d="M273.578,360.452c-0.671,0-1.213-0.542-1.213-1.213v-16.588c0-0.671,0.542-1.213,1.213-1.213        s1.213,0.542,1.213,1.213v16.588C274.791,359.91,274.249,360.452,273.578,360.452z"/>
						<path style="fill:#F94A39;" d="M281.196,360.452c-0.671,0-1.213-0.542-1.213-1.213v-16.588c0-0.671,0.542-1.213,1.213-1.213        c0.671,0,1.213,0.542,1.213,1.213v16.588C282.409,359.91,281.867,360.452,281.196,360.452z"/>
						<path style="fill:#F94A39;" d="M288.817,360.452c-0.671,0-1.213-0.542-1.213-1.213v-16.588c0-0.671,0.542-1.213,1.213-1.213        c0.671,0,1.213,0.542,1.213,1.213v16.588C290.03,359.91,289.488,360.452,288.817,360.452z"/>
						<path style="fill:#F94A39;" d="M296.437,360.452c-0.671,0-1.213-0.542-1.213-1.213v-16.588c0-0.671,0.542-1.213,1.213-1.213        s1.213,0.542,1.213,1.213v16.588C297.65,359.91,297.108,360.452,296.437,360.452z"/>
						<path style="fill:#F94A39;" d="M304.058,360.452c-0.671,0-1.213-0.542-1.213-1.213v-16.588c0-0.671,0.542-1.213,1.213-1.213        c0.671,0,1.213,0.542,1.213,1.213v16.588C305.271,359.91,304.729,360.452,304.058,360.452z"/>
						<path style="fill:#F94A39;" d="M311.679,360.452c-0.671,0-1.213-0.542-1.213-1.213v-16.588c0-0.671,0.542-1.213,1.213-1.213        s1.213,0.542,1.213,1.213v16.588C312.891,359.91,312.35,360.452,311.679,360.452z"/>
					</g>
					<g>
						<g>
							<path style="fill:#F94A39;" d="M318.91,345.459c-1.574,0-3.548,0.075-5.097,0.075h-47.476         c-4.598-18.815-9.12-36.981-10.27-56.296c-0.925-15.092,0.1-30.484,4.173-44.977c0.524-1.924,1.099-3.798,1.749-5.672         c0.725-2.124,1.499-4.223,2.374-6.297c2.474,0.999,4.673,1.374,6.772,1.299c0.525,0,1.024-0.05,1.524-0.125         c3.148-0.375,6.272-1.649,10.045-3.148c1.974,2.124,3.748,4.398,5.347,6.797c0.175,0.25,0.35,0.525,0.525,0.8         c4.323,6.572,7.471,13.968,10.27,21.339c7.371,19.365,12.919,39.805,16.517,60.444c0.175,0.825,0.325,1.649,0.45,2.499         c0.25,1.349,0.45,2.724,0.65,4.098c0.15,0.825,0.275,1.674,0.4,2.499C317.686,334.339,318.36,339.912,318.91,345.459z"/>
							<g>
								<path style="fill:#FFE7E0;" d="M316.861,328.792h-48.125c-0.8,0.075-1.724,0.175-2.649,0.25          c-0.025-0.85-0.025-1.674-0.025-2.499c0.85-0.075,1.699-0.15,2.549-0.225l47.85-0.025          C316.611,327.118,316.736,327.968,316.861,328.792z"/>
								<path style="fill:#FFE7E0;" d="M315.812,322.196h-47.076c-0.825,0.1-1.749,0.175-2.674,0.25c0-0.85,0-1.674,0.025-2.499          c0.85-0.075,1.674-0.15,2.524-0.225l46.751-0.025C315.537,320.522,315.687,321.346,315.812,322.196z"/>
							</g>
							<path style="fill:#491D30;" d="M287.951,345.534h-21.614c-4.598-18.815-9.12-36.981-10.27-56.296         c-1.174-19.315,0.825-39.105,8.296-56.946c3.073,1.249,5.697,1.524,8.296,1.174         C279.381,270.572,284.503,307.978,287.951,345.534z"/>
							<path style="fill:#F94A39;" d="M277.157,345.534c-0.1,0.825-0.225,1.624-0.35,2.449c-0.1,0.825-0.225,1.674-0.375,2.499         c-0.225,1.374-0.45,2.724-0.725,4.098c-0.15,0.825-0.325,1.674-0.5,2.499c-0.949,4.573-2.124,9.12-3.573,13.643h-48.525         c-0.425,0-3.623-0.2-4.048-0.2c-0.425-4.748-0.65-9.07-0.724-13.193c-0.025-0.85-0.025-1.674-0.025-2.499         c-0.025-1.399-0.025-2.749,0-4.098c0-0.85,0-1.674,0.025-2.499c0.15-6.946,0.6-13.593,0.999-20.939         c1.474-25.962,3.948-52.398,11.719-77.035c1.075-3.423,2.249-6.797,3.548-10.12c1.599-4.173,3.398-8.296,5.372-12.319         c8.471,1.624,20.614-0.35,29.235-0.7c0.7,2.124,1.325,4.298,1.924,6.472c0.375,1.474,0.75,2.948,1.074,4.423         c0.275,1.174,0.525,2.324,0.749,3.498c2.849,13.818,3.748,28.086,4.548,42.203         C278.681,304.58,279.78,325.269,277.157,345.534z"/>
						</g>
						<path style="fill:#491D30;" d="M288.576,237.914c-4.822,1.149-9.695,2.274-14.543,3.348c-0.35,0.1-0.724,0.175-1.074,0.25        c-4.223,0.95-8.471,1.874-12.718,2.749c-9.745,2.099-19.49,4.073-29.185,5.997c1.075-3.423,2.249-6.797,3.548-10.12        c9.12-0.525,18.266-1.024,27.386-1.549c3.398-0.2,6.822-0.375,10.22-0.575c0.425-0.025,0.8-0.05,1.224-0.075h0.025        c4.872-0.275,9.72-0.55,14.592-0.825C288.226,237.364,288.401,237.639,288.576,237.914z"/>
						<g>
							<path style="fill:#F94A39;" d="M222.574,386.927c-0.671,0-1.213-0.542-1.213-1.213v-16.588c0-0.671,0.542-1.213,1.213-1.213         c0.671,0,1.213,0.542,1.213,1.213v16.588C223.787,386.385,223.245,386.927,222.574,386.927z"/>
							<path style="fill:#F94A39;" d="M230.195,386.927c-0.671,0-1.213-0.542-1.213-1.213v-16.588c0-0.671,0.542-1.213,1.213-1.213         s1.213,0.542,1.213,1.213v16.588C231.407,386.385,230.866,386.927,230.195,386.927z"/>
							<path style="fill:#F94A39;" d="M237.815,386.927c-0.671,0-1.213-0.542-1.213-1.213v-16.588c0-0.671,0.542-1.213,1.213-1.213         c0.671,0,1.213,0.542,1.213,1.213v16.588C239.028,386.385,238.486,386.927,237.815,386.927z"/>
							<path style="fill:#F94A39;" d="M245.436,386.927c-0.671,0-1.213-0.542-1.213-1.213v-16.588c0-0.671,0.542-1.213,1.213-1.213         c0.671,0,1.213,0.542,1.213,1.213v16.588C246.649,386.385,246.107,386.927,245.436,386.927z"/>
							<path style="fill:#F94A39;" d="M253.056,386.927c-0.671,0-1.213-0.542-1.213-1.213v-16.588c0-0.671,0.542-1.213,1.213-1.213         c0.671,0,1.213,0.542,1.213,1.213v16.588C254.269,386.385,253.727,386.927,253.056,386.927z"/>
							<path style="fill:#F94A39;" d="M260.674,386.927c-0.671,0-1.213-0.542-1.213-1.213v-16.588c0-0.671,0.542-1.213,1.213-1.213         c0.671,0,1.213,0.542,1.213,1.213v16.588C261.887,386.385,261.346,386.927,260.674,386.927z"/>
							<path style="fill:#F94A39;" d="M268.295,386.927c-0.671,0-1.213-0.542-1.213-1.213v-16.588c0-0.671,0.542-1.213,1.213-1.213         s1.213,0.542,1.213,1.213v16.588C269.508,386.385,268.966,386.927,268.295,386.927z"/>
						</g>
						<g>
							<path style="fill:#FFE7E0;" d="M275.708,354.579c-0.15,0.825-0.325,1.674-0.5,2.499h-54.222         c-0.8,0.075-1.724,0.175-2.649,0.25c-0.025-0.85-0.025-1.674-0.025-2.499c0.85-0.075,1.699-0.15,2.549-0.225L275.708,354.579         z"/>
							<path style="fill:#FFE7E0;" d="M276.807,347.982c-0.1,0.825-0.225,1.674-0.375,2.499h-55.447         c-0.825,0.1-1.749,0.175-2.674,0.25c0-0.85,0-1.674,0.025-2.499c0.849-0.075,1.674-0.15,2.524-0.225L276.807,347.982z"/>
						</g>
					</g>
				</g>
				<path style="fill:#F94A39;" d="M174.727,181.742c0,0,95.005,18.924,177.436-8.205l0.824,0.424c0,0,28.762,7.24,28.762,34.823      c0,5.742-57.311,22.909-76.875,26.496s-112.814,16.077-160.449-11.185C144.423,224.095,143.147,187.093,174.727,181.742z"/>
				<g>
					<path style="fill:#F94A39;" d="M349.994,116.352c0,10.22-7.296,14.193-7.296,14.193s-0.25-0.475-0.775-1.299       c-0.079-0.138,0.204-1.707,0.104-1.862c-0.154-0.238-0.707,0.925-0.903,0.638c-1.774-2.574-5.098-6.821-10.42-11.244       c-0.26-0.241,0.002-1.458-0.268-1.675c-0.093-0.075-0.71,0.853-0.806,0.776c-4.098-3.298-9.27-6.647-15.692-9.495       c-0.205-0.089-0.429-1.59-0.636-1.676c-0.199-0.082-0.38,1.249-0.588,1.176c-5.397-2.299-11.644-4.223-18.815-5.447       c-0.187-0.035-0.431-1.442-0.626-1.474c-0.222-0.037-0.397,1.301-0.623,1.274c-6.297-0.999-13.293-1.449-21.039-1.199       c-0.165,0.01-0.615-1.35-0.788-1.345c-0.244,0.008-0.213,1.38-0.462,1.395c-4.848,0.225-9.995,0.725-15.467,1.549       c-2.249,0.35-4.448,0.75-6.597,1.249c-0.18,0.032-0.806-1.583-0.979-1.544c-0.235,0.053-0.015,1.761-0.245,1.819       c-6.197,1.449-12.044,3.448-17.516,5.772c-0.176,0.077-0.907-1.711-1.076-1.634c-0.214,0.098,0.136,2.06-0.074,2.158       c-6.372,2.799-12.243,6.072-17.591,9.57c-0.174,0.116-0.935-2.017-1.109-1.904c-0.201,0.131,0.185,2.508-0.016,2.628       c-5.247,3.523-9.97,7.221-14.117,10.794c-0.134,0.123-0.755-0.458-0.889-0.335c-0.166,0.152,0.155,1.008-0.011,1.16       c-5.097,4.448-9.245,8.745-12.393,12.244c-0.167,0.179-1.109-1.002-1.262-0.833c-0.146,0.161,0.497,1.674,0.363,1.832       c-4.123,4.673-6.297,7.771-6.297,7.771s-18.166-14.393-2.649-31.034c0,0,0.025-0.4,0.1-1.174       c0.03-0.332,1.268-1.865,1.33-2.338c0.04-0.309-1.104,0.48-1.055,0.114c1.999-12.619,13.443-56.521,77.835-63.517       c64.367-6.996,83.332,31.909,87.53,43.403v0.025c0.161,0.422-1.255-0.272-1.14,0.079c0.117,0.356,1.765,1.756,1.84,2.02v0.025       c0.2,0.625,0.275,0.974,0.275,0.974s2.749,1.574,5.472,4.423c0.278,0.293,0.616,2.354,0.901,2.681       c0.202,0.231,0.352-1.28,0.548-1.032C348.195,108.705,349.994,112.204,349.994,116.352z"/>
					<g>
						<path style="fill:#FFFFFF;" d="M262.09,78.396c0.025,0.35-0.25,0.65-0.575,0.675c-5.897,0.45-11.494,1.174-16.791,2.149        c-0.4,0.05-0.8,0.125-1.199,0.225c-6.822,1.274-13.118,2.973-18.915,4.922c-0.4,0.125-0.8,0.25-1.2,0.4        c-6.397,2.199-12.194,4.698-17.366,7.321c-0.4,0.175-0.775,0.375-1.175,0.625c-5.272,2.699-9.895,5.547-13.868,8.296        c-0.425,0.3-0.85,0.6-1.275,0.9c-5.272,3.748-9.345,7.246-12.194,9.995c-0.4,0.375-0.775,0.75-1.124,1.099        c-2.099,2.074-3.398,3.573-3.873,4.173c0.05-0.55,0.15-1.299,0.275-2.224c2.499-2.749,8.171-8.471,17.166-14.742        c8.296-5.772,19.39-11.994,33.433-16.766c0.2-0.075,0.375-0.15,0.575-0.175c10.744-3.648,23.213-6.397,37.431-7.446        C261.74,77.771,262.065,78.046,262.09,78.396z"/>
						<path style="fill:#FFFFFF;" d="M338.875,98.961c-2.199-1.724-4.548-3.348-6.971-4.798c-0.45-0.275-0.875-0.55-1.325-0.8        v-0.025c-5.872-3.423-12.118-6.122-18.015-8.221c-0.475-0.2-0.95-0.35-1.424-0.525c-7.821-2.699-14.943-4.348-19.615-5.297        c-0.475-0.075-0.899-0.175-1.324-0.25c-2.699-0.5-4.323-0.725-4.398-0.725c-0.35-0.05-0.6-0.35-0.55-0.7        c0.05-0.35,0.35-0.6,0.7-0.525c0.325,0.025,31.134,4.148,52.223,19.74v0.025C338.5,97.711,338.725,98.436,338.875,98.961z"/>
						<path style="fill:#FFFFFF;" d="M182.281,142.613c-0.325,0.35-0.625,0.675-0.9,0.999c-4.498-8.745-6.247-18.865-4.973-28.61        c0.025-0.25,0.075-0.475,0.1-0.725c0.05-0.325,0.375-0.575,0.724-0.525c0.125,0.025,0.225,0.075,0.3,0.15        c0.175,0.125,0.25,0.35,0.225,0.575C176.334,124.023,177.933,133.992,182.281,142.613z"/>
						<path style="fill:#FFFFFF;" d="M195.574,129.545c-0.3,0.275-0.6,0.55-0.9,0.825c-0.1-0.075-0.175-0.175-0.225-0.3        c-3.248-8.246-4.872-17.266-4.723-26.162c0-0.425,0-0.85,0.025-1.274c0.025-0.175,0.1-0.3,0.225-0.425        c0.05-0.05,0.125-0.075,0.2-0.125c0.075-0.025,0.15-0.05,0.225-0.05c0.35,0.025,0.625,0.3,0.6,0.65v0.325        C190.726,112.004,192.3,121.174,195.574,129.545z"/>
						<path style="fill:#FFFFFF;" d="M210.816,118.026c-0.375,0.25-0.75,0.5-1.125,0.725c-2.199-7.871-3.823-15.942-4.823-24.038        c-0.05-0.3-0.1-0.575-0.125-0.875c-0.05-0.275,0.1-0.5,0.325-0.625c0.075-0.05,0.15-0.05,0.225-0.075        c0.35-0.05,0.65,0.2,0.7,0.55c0.025,0.125,0.025,0.275,0.05,0.4C207.018,102.159,208.642,110.18,210.816,118.026z"/>
						<path style="fill:#FFFFFF;" d="M229.556,107.931c-0.4,0.175-0.775,0.35-1.15,0.525c-1.774-7.221-3.423-14.518-4.997-21.689        c-0.075-0.25-0.125-0.525-0.175-0.775c-0.05-0.2,0.025-0.425,0.175-0.55c0.075-0.075,0.175-0.15,0.3-0.175        c0.1-0.025,0.2-0.025,0.275,0h0.025c0.225,0.05,0.4,0.225,0.45,0.475c0.05,0.2,0.1,0.425,0.15,0.625        C226.158,93.488,227.832,100.735,229.556,107.931z"/>
						<path style="fill:#FFFFFF;" d="M248.297,101.884c-0.425,0.075-0.825,0.175-1.224,0.275l-3.548-20.714l-0.075-0.375        c-0.05-0.325,0.175-0.65,0.5-0.7c0.35-0.075,0.675,0.15,0.724,0.5l0.05,0.35L248.297,101.884z"/>
						<path style="fill:#FFFFFF;" d="M271.61,99.035c-0.4,0.025-0.825,0.025-1.249,0.05c-0.6-6.672-1.624-13.343-3.049-19.89        c-0.075-0.35,0.125-0.675,0.475-0.75c0.35-0.075,0.65,0.125,0.725,0.475C269.96,85.542,270.985,92.264,271.61,99.035z"/>
						<path style="fill:#FFFFFF;" d="M293.898,100.435c-0.4-0.075-0.825-0.15-1.249-0.2c-0.075-7.146-0.9-14.218-2.449-21.189        c-0.025-0.1-0.05-0.2-0.075-0.3c-0.075-0.325,0.15-0.675,0.475-0.75c0.325-0.075,0.675,0.15,0.75,0.475        c0.05,0.275,0.125,0.55,0.175,0.825C293.048,86.217,293.848,93.338,293.898,100.435z"/>
						<path style="fill:#FFFFFF;" d="M313.938,106.382c-0.4-0.175-0.8-0.35-1.224-0.5c0.3-7.121,0.45-14.393-1.574-21.289        c0-0.025-0.025-0.05-0.025-0.075c-0.1-0.325,0.075-0.675,0.425-0.775c0.325-0.1,0.675,0.1,0.775,0.425        c0.1,0.325,0.175,0.625,0.25,0.95C314.438,92.089,314.238,99.335,313.938,106.382z"/>
						<path style="fill:#FFFFFF;" d="M330.704,116.776c-0.35-0.325-0.699-0.6-1.074-0.9c1.424-7.421,1.749-15.067,0.949-22.513        v-0.025c-0.025-0.35,0.225-0.625,0.575-0.675c0.35-0.025,0.65,0.225,0.675,0.575c0.025,0.3,0.05,0.625,0.075,0.925        C332.628,101.659,332.203,109.355,330.704,116.776z"/>
						<path style="fill:#FFFFFF;" d="M341.923,129.245c-0.2-0.35-0.475-0.75-0.8-1.224c3.148-6.996,4.523-16.167,3.498-23.638        c0.475,0.5,0.975,1.049,1.45,1.649C346.746,113.678,345.197,122.423,341.923,129.245z"/>
					</g>
				</g>
			</g>
			<g>
				<path style="fill:#491D30;" d="M150.031,266.523c-0.32,0-0.644-0.095-0.925-0.295L47.095,193.596      c-0.72-0.512-0.886-1.51-0.376-2.23c0.512-0.715,1.51-0.888,2.23-0.376l102.011,72.631c0.72,0.512,0.886,1.51,0.376,2.23      C151.024,266.289,150.531,266.523,150.031,266.523z"/>
				<path style="fill:#491D30;" d="M74.547,212.661c-0.041,0-0.085-0.002-0.127-0.005l-30.604-2.447      c-0.881-0.071-1.537-0.842-1.467-1.72c0.071-0.881,0.839-1.518,1.72-1.467l28.528,2.282l-4.519-24.472      c-0.161-0.869,0.412-1.701,1.281-1.862c0.854-0.151,1.701,0.412,1.862,1.281l4.897,26.522c0.09,0.488-0.051,0.991-0.386,1.362      C75.43,212.471,74.999,212.661,74.547,212.661z"/>
			</g>
		</g>
		<path style="fill:#FFF3F0;" d="M443.576,405.123c-11.294,13.718-24.113,26.162-38.205,36.981    c-11.069,8.571-22.938,16.167-35.457,22.638c-0.325,0.175-0.65,0.325-0.949,0.475l-0.025,0.025    c-0.425,0.225-0.825,0.425-1.249,0.625c-31.734,16.017-67.615,25.012-105.571,25.012c-24.337,0-47.825-3.698-69.889-10.57    c-0.725-0.225-1.449-0.45-2.149-0.7c-7.946-2.549-15.692-5.497-23.238-8.895c-0.05,0-0.1-0.025-0.15-0.05    c-4.548-1.999-9.02-4.173-13.418-6.497c-0.05-0.025-0.075-0.05-0.125-0.075c-32.208-16.891-60.019-41.029-81.233-70.289    c-0.5-0.675-1-1.349-1.474-2.024c-1.274-1.799-2.523-3.598-3.748-5.447c10.07-5.597,20.939-9.72,32.234-11.969    c24.512-4.872,51.024-0.574,71.863,13.218c17.816-23.963,50.949-31.884,80.459-27.111c29.485,4.748,55.696,22.289,76.136,44.078    c20.514-21.089,53.647-26.786,81.883-18.615C421.987,389.606,433.631,396.378,443.576,405.123z"/>
		<g>
			<g>
				<g>
					<path style="fill:#F94A39;" d="M389.184,108.6c3.962,4.339,3.657,11.069-0.682,15.032c-4.339,3.962-11.069,3.657-15.032-0.682       c-3.962-4.339-3.657-11.069,0.682-15.032C378.491,103.955,385.221,104.26,389.184,108.6z"/>
					<path style="fill:#5E2D42;" d="M440.543,168.463c-0.242,0-0.483-0.09-0.666-0.276c-17.415-17.523-36.168-34.047-55.738-49.11       c-0.41-0.317-0.486-0.905-0.171-1.318c0.317-0.41,0.905-0.481,1.318-0.171c19.633,15.117,38.447,31.695,55.923,49.276       c0.364,0.368,0.364,0.961-0.005,1.327C441.021,168.373,440.782,168.463,440.543,168.463z"/>
					<path style="fill:#F94A39;" d="M408.906,91.039c3.962,4.339,3.657,11.069-0.682,15.032s-11.069,3.657-15.032-0.682       c-3.962-4.339-3.657-11.069,0.682-15.032C398.213,86.394,404.943,86.699,408.906,91.039z"/>
					<path style="fill:#F94A39;" d="M394.602,140.006c3.962,4.339,3.657,11.069-0.682,15.032s-11.069,3.657-15.032-0.682       c-3.962-4.339-3.657-11.069,0.682-15.032C383.91,135.362,390.64,135.667,394.602,140.006z"/>
					<path style="fill:#5E2D42;" d="M429.696,157.509c-0.386,0-0.747-0.239-0.883-0.625c-6.474-18.099-15.229-36.378-26.761-55.879       c-0.264-0.447-0.115-1.022,0.329-1.286c0.449-0.259,1.022-0.115,1.286,0.329c11.593,19.607,20.397,37.991,26.912,56.206       c0.173,0.486-0.081,1.022-0.569,1.198C429.909,157.49,429.801,157.509,429.696,157.509z"/>
					<path style="fill:#5E2D42;" d="M423.396,151.989c-0.066,0-0.132-0.007-0.2-0.022c-12.408-2.694-25.077-3.982-37.817-3.838       c-0.002,0-0.007,0-0.01,0c-0.512,0-0.932-0.412-0.937-0.927c-0.007-0.517,0.408-0.942,0.927-0.947       c12.823-0.181,25.69,1.157,38.237,3.877c0.505,0.11,0.827,0.61,0.717,1.118C424.218,151.689,423.828,151.989,423.396,151.989z"/>
				</g>
				<path style="fill:#5E2D42;" d="M433.862,161.35c0,0-12.519-42.887,0.05-45.785C448.628,112.172,433.862,161.35,433.862,161.35z"/>
				<path style="fill:#5E2D42;" d="M422.069,150.568c0,0-29.507,33.547-38.687,24.486      C372.633,164.447,422.069,150.568,422.069,150.568z"/>
			</g>
			<g>
				<g>
					<path style="fill:#F94A39;" d="M140.063,108.6c-3.962,4.339-3.657,11.069,0.682,15.032c4.339,3.962,11.069,3.657,15.032-0.682       c3.962-4.339,3.657-11.069-0.682-15.032C150.756,103.955,144.026,104.26,140.063,108.6z"/>
					<path style="fill:#5E2D42;" d="M88.705,168.463c-0.239,0-0.478-0.09-0.661-0.271c-0.368-0.366-0.368-0.959-0.005-1.327       c17.476-17.581,36.29-34.16,55.923-49.276c0.412-0.31,1-0.239,1.318,0.171c0.315,0.412,0.239,1-0.171,1.318       c-19.57,15.063-38.323,31.588-55.738,49.11C89.188,168.373,88.946,168.463,88.705,168.463z"/>
					<path style="fill:#F94A39;" d="M120.341,91.039c-3.962,4.339-3.657,11.069,0.682,15.032c4.339,3.962,11.069,3.657,15.032-0.682       c3.962-4.339,3.657-11.069-0.682-15.032C131.033,86.394,124.303,86.699,120.341,91.039z"/>
					<path style="fill:#F94A39;" d="M134.645,140.006c-3.962,4.339-3.657,11.069,0.682,15.032s11.069,3.657,15.032-0.682       c3.962-4.339,3.657-11.069-0.682-15.032C145.337,135.362,138.607,135.667,134.645,140.006z"/>
					<path style="fill:#5E2D42;" d="M99.551,157.509c-0.105,0-0.212-0.02-0.315-0.056c-0.488-0.173-0.742-0.713-0.569-1.198       c6.513-18.213,15.314-36.597,26.91-56.206c0.266-0.447,0.839-0.591,1.286-0.329c0.444,0.264,0.593,0.839,0.329,1.286       c-11.535,19.504-20.287,37.783-26.759,55.879C100.298,157.27,99.937,157.509,99.551,157.509z"/>
					<path style="fill:#5E2D42;" d="M105.852,151.989c-0.432,0-0.822-0.3-0.917-0.739c-0.11-0.508,0.212-1.008,0.717-1.118       c12.547-2.721,25.453-4.073,38.235-3.877c0.52,0.005,0.935,0.429,0.927,0.947c-0.005,0.515-0.425,0.927-0.937,0.927       c-0.002,0-0.007,0-0.01,0c-12.738-0.151-25.409,1.144-37.815,3.838C105.984,151.982,105.918,151.989,105.852,151.989z"/>
				</g>
				<path style="fill:#5E2D42;" d="M95.384,161.35c0,0,12.519-42.887-0.05-45.785C80.619,112.172,95.384,161.35,95.384,161.35z"/>
				<path style="fill:#5E2D42;" d="M107.178,150.568c0,0,29.507,33.547,38.687,24.486      C156.613,164.447,107.178,150.568,107.178,150.568z"/>
			</g>
			<g>
				<g>
					<g>
						<path style="fill:#F94A39;" d="M393.036,401.273c-1.893,5.563-7.937,8.538-13.501,6.645        c-5.563-1.893-8.538-7.937-6.645-13.501c1.893-5.563,7.937-8.538,13.5-6.645C391.953,389.666,394.929,395.71,393.036,401.273z        "/>
						<path style="fill:#5E2D42;" d="M383.282,402.175c-0.325,2.099-0.675,4.198-1.024,6.297        c-2.674,16.167-6.097,32.308-10.195,48.225c-0.35,1.324-0.675,2.649-1.049,3.973c-0.3,1.174-0.6,2.324-0.925,3.473        c-0.05,0.2-0.1,0.4-0.175,0.6c-0.05,0.275-0.125,0.525-0.2,0.8c-0.875,0.2-1.374,0.3-1.374,0.3s0.2-0.2,0.6-0.6        c-0.425,0.225-0.825,0.425-1.249,0.625c1.274-4.673,2.524-9.345,3.673-14.068c0.15-0.525,0.275-1.049,0.4-1.574        c0.025-0.075,0.05-0.15,0.05-0.225c0.15-0.55,0.275-1.124,0.425-1.699c3.223-13.268,5.947-26.686,8.171-40.129        c0.375-2.099,0.7-4.173,1.024-6.272c0.075-0.5,0.525-0.875,1.074-0.775C383.007,401.2,383.357,401.675,383.282,402.175z"/>
						<path style="fill:#F94A39;" d="M417.926,410.094c-1.893,5.563-7.937,8.538-13.501,6.645        c-5.563-1.893-8.538-7.937-6.645-13.501c1.893-5.563,7.937-8.538,13.501-6.645        C416.844,398.486,419.82,404.531,417.926,410.094z"/>
						<path style="fill:#F94A39;" d="M368.126,421.154c-1.893,5.563-7.937,8.538-13.501,6.645        c-5.563-1.893-8.538-7.937-6.645-13.501c1.893-5.563,7.937-8.538,13.501-6.645        C367.044,409.547,370.019,415.591,368.126,421.154z"/>
						<path style="fill:#5E2D42;" d="M370.522,460.825c-0.222,0-0.444-0.078-0.622-0.235c-0.388-0.344-0.425-0.937-0.08-1.325        c12.747-14.401,24.545-30.878,36.073-50.373c0.266-0.448,0.837-0.592,1.286-0.331c0.444,0.264,0.593,0.84,0.329,1.285        c-11.588,19.6-23.457,36.171-36.283,50.664C371.039,460.717,370.78,460.825,370.522,460.825z"/>
						<path style="fill:#5E2D42;" d="M372.323,452.644c-0.405,0-0.778-0.264-0.9-0.671c-3.616-12.168-8.616-23.939-14.858-34.987        c-0.254-0.45-0.095-1.024,0.356-1.277c0.451-0.258,1.022-0.098,1.279,0.355c6.31,11.17,11.366,23.072,15.024,35.375        c0.146,0.496-0.137,1.019-0.632,1.166C372.501,452.632,372.411,452.644,372.323,452.644z"/>
					</g>
					<path style="fill:#5E2D42;" d="M369.714,465.542c-0.875,0.2-1.374,0.3-1.374,0.3s0.2-0.2,0.6-0.6l0.025-0.025       c0.275-0.275,0.65-0.625,1.124-1.074c5.972-5.697,25.737-23.738,35.282-22.039c1.224,0.225,2.299,0.775,3.123,1.724       C417.539,453.948,377.735,463.693,369.714,465.542z"/>
					<path style="fill:#5E2D42;" d="M372.105,450.311c0,0-43.613-9.692-40.097-22.102       C336.124,413.68,372.105,450.311,372.105,450.311z"/>
				</g>
				<g>
					<g>
						<path style="fill:#F94A39;" d="M166.089,412.97c1.893,5.563,7.937,8.538,13.501,6.645c5.563-1.893,8.538-7.937,6.645-13.501        c-1.893-5.563-7.937-8.538-13.5-6.645C167.171,401.362,164.196,407.406,166.089,412.97z"/>
						<path style="fill:#5E2D42;" d="M192.23,480.31c-0.725-0.225-1.449-0.45-2.149-0.7c-0.225-0.8-0.45-1.574-0.675-2.374        c-0.125-0.475-0.25-0.925-0.375-1.399c-0.325-1.149-0.625-2.299-0.925-3.473c-0.375-1.325-0.7-2.649-1.049-3.973        c-4.098-15.917-7.521-32.059-10.195-48.225c-0.375-2.099-0.7-4.173-1.024-6.272c-0.075-0.525,0.275-0.999,0.799-1.074        c0.525-0.075,0.975,0.275,1.05,0.775c0.325,2.099,0.65,4.173,1.024,6.272c2.224,13.418,4.947,26.836,8.171,40.129        c0.15,0.574,0.275,1.149,0.425,1.724c0.025,0.075,0.05,0.15,0.075,0.225c0.1,0.525,0.225,1.049,0.375,1.549        C189.157,469.14,190.631,474.738,192.23,480.31z"/>
						<path style="fill:#F94A39;" d="M141.198,421.79c1.893,5.563,7.937,8.538,13.501,6.645c5.563-1.893,8.538-7.937,6.645-13.501        c-1.893-5.563-7.937-8.538-13.501-6.645C142.281,410.182,139.305,416.227,141.198,421.79z"/>
						<path style="fill:#F94A39;" d="M190.999,432.85c1.893,5.563,7.937,8.538,13.501,6.645c5.563-1.893,8.538-7.937,6.645-13.501        c-1.893-5.563-7.937-8.538-13.501-6.645C192.081,421.243,189.106,427.287,190.999,432.85z"/>
						<path style="fill:#5E2D42;" d="M188.601,472.521c-0.259,0-0.517-0.107-0.703-0.316c-12.82-14.486-24.689-31.058-36.28-50.664        c-0.264-0.445-0.115-1.021,0.329-1.285c0.449-0.259,1.022-0.117,1.286,0.331c11.53,19.502,23.328,35.979,36.07,50.373        c0.344,0.388,0.308,0.981-0.08,1.325C189.045,472.442,188.823,472.521,188.601,472.521z"/>
						<path style="fill:#5E2D42;" d="M186.803,464.34c-0.088,0-0.178-0.012-0.268-0.039c-0.495-0.148-0.778-0.67-0.632-1.166        c3.658-12.304,8.714-24.205,15.024-35.374c0.256-0.449,0.825-0.609,1.279-0.355c0.452,0.255,0.61,0.827,0.356,1.277        c-6.242,11.047-11.242,22.817-14.858,34.986C187.581,464.077,187.208,464.34,186.803,464.34z"/>
					</g>
					<path style="fill:#5E2D42;" d="M190.784,477.537c0,0-31.548-31.634-40.144-22.017       C140.578,466.779,190.784,477.537,190.784,477.537z"/>
					<path style="fill:#5E2D42;" d="M187.02,462.008c0,0,43.613-9.692,40.097-22.102C223,425.376,187.02,462.008,187.02,462.008z"/>
				</g>
			</g>
		</g>
		<path style="fill:#FFE7E0;" d="M169.623,132.865c0,3.171-2.571,5.742-5.742,5.742c-3.171,0-5.742-2.571-5.742-5.742    c0-3.171,2.571-5.742,5.742-5.742C167.052,127.124,169.623,129.694,169.623,132.865z"/>
		<g>
			<g>
				<path style="fill:#FFE7E0;" d="M113.481,226.221c-0.43,0-0.779-0.348-0.779-0.779v-44.799c0-0.431,0.348-0.779,0.779-0.779      c0.431,0,0.779,0.348,0.779,0.779v44.799C114.26,225.872,113.911,226.221,113.481,226.221z"/>
				<path style="fill:#FFE7E0;" d="M135.882,203.821H91.081c-0.43,0-0.779-0.348-0.779-0.779c0-0.43,0.348-0.779,0.779-0.779h44.801      c0.431,0,0.779,0.348,0.779,0.779C136.661,203.473,136.313,203.821,135.882,203.821z"/>
				<path style="fill:#FFE7E0;" d="M122.362,212.039c-0.186,0-0.371-0.065-0.519-0.198l-17.627-15.773      c-0.321-0.287-0.348-0.779-0.062-1.1c0.29-0.321,0.783-0.346,1.099-0.061l17.627,15.773c0.321,0.287,0.348,0.779,0.062,1.1      C122.787,211.951,122.575,212.039,122.362,212.039z"/>
				<path style="fill:#FFE7E0;" d="M105.662,212.967c-0.186,0-0.371-0.065-0.519-0.198c-0.321-0.287-0.348-0.779-0.062-1.1      l15.772-17.629c0.29-0.321,0.785-0.346,1.099-0.061c0.321,0.287,0.348,0.779,0.062,1.099l-15.772,17.629      C106.088,212.879,105.875,212.967,105.662,212.967z"/>
			</g>
			<g>
				<path style="fill:#FFE7E0;" d="M176.002,96.713c-0.43,0-0.779-0.348-0.779-0.779V51.135c0-0.431,0.348-0.779,0.779-0.779      c0.431,0,0.779,0.348,0.779,0.779v44.799C176.781,96.364,176.433,96.713,176.002,96.713z"/>
				<path style="fill:#FFE7E0;" d="M198.403,74.313h-44.801c-0.43,0-0.779-0.348-0.779-0.779c0-0.431,0.348-0.779,0.779-0.779      h44.801c0.431,0,0.779,0.348,0.779,0.779C199.182,73.965,198.834,74.313,198.403,74.313z"/>
				<path style="fill:#FFE7E0;" d="M184.882,82.531c-0.185,0-0.371-0.065-0.518-0.198l-17.627-15.773      c-0.321-0.287-0.348-0.779-0.062-1.1c0.291-0.321,0.783-0.346,1.1-0.061l17.627,15.773c0.321,0.287,0.348,0.779,0.062,1.1      C185.309,82.444,185.095,82.531,184.882,82.531z"/>
				<path style="fill:#FFE7E0;" d="M168.183,83.459c-0.185,0-0.371-0.065-0.518-0.198c-0.321-0.287-0.348-0.779-0.062-1.1      l15.772-17.629c0.291-0.321,0.785-0.346,1.1-0.061c0.321,0.287,0.348,0.779,0.062,1.1L168.764,83.2      C168.609,83.371,168.396,83.459,168.183,83.459z"/>
			</g>
			<g>
				<path style="fill:#FFE7E0;" d="M353.358,96.713c-0.43,0-0.779-0.348-0.779-0.779V51.135c0-0.431,0.348-0.779,0.779-0.779      c0.431,0,0.779,0.348,0.779,0.779v44.799C354.136,96.364,353.788,96.713,353.358,96.713z"/>
				<path style="fill:#FFE7E0;" d="M375.759,74.313h-44.801c-0.43,0-0.779-0.348-0.779-0.779c0-0.431,0.348-0.779,0.779-0.779      h44.801c0.431,0,0.779,0.348,0.779,0.779C376.538,73.965,376.189,74.313,375.759,74.313z"/>
				<path style="fill:#FFE7E0;" d="M362.238,82.531c-0.186,0-0.371-0.065-0.519-0.198l-17.627-15.773      c-0.321-0.287-0.348-0.779-0.062-1.1c0.29-0.321,0.783-0.346,1.099-0.061l17.627,15.773c0.321,0.287,0.348,0.779,0.062,1.1      C362.664,82.444,362.451,82.531,362.238,82.531z"/>
				<path style="fill:#FFE7E0;" d="M345.539,83.459c-0.186,0-0.371-0.065-0.519-0.198c-0.321-0.287-0.348-0.779-0.062-1.1      l15.772-17.629c0.29-0.321,0.785-0.346,1.099-0.061c0.321,0.287,0.348,0.779,0.062,1.1L346.12,83.2      C345.965,83.371,345.752,83.459,345.539,83.459z"/>
			</g>
			<g>
				<path style="fill:#FFE7E0;" d="M455.433,260.671c-0.431,0-0.779-0.348-0.779-0.779v-44.799c0-0.431,0.348-0.779,0.779-0.779      c0.431,0,0.779,0.348,0.779,0.779v44.799C456.211,260.323,455.863,260.671,455.433,260.671z"/>
				<path style="fill:#FFE7E0;" d="M477.834,238.271h-44.801c-0.431,0-0.779-0.348-0.779-0.779c0-0.431,0.348-0.779,0.779-0.779      h44.801c0.431,0,0.779,0.348,0.779,0.779C478.613,237.923,478.265,238.271,477.834,238.271z"/>
				<path style="fill:#FFE7E0;" d="M464.313,246.489c-0.185,0-0.371-0.065-0.518-0.199l-17.627-15.773      c-0.321-0.287-0.348-0.779-0.062-1.099c0.291-0.321,0.783-0.346,1.1-0.061l17.627,15.773c0.321,0.287,0.348,0.779,0.062,1.1      C464.739,246.402,464.526,246.489,464.313,246.489z"/>
				<path style="fill:#FFE7E0;" d="M447.614,247.417c-0.185,0-0.371-0.065-0.518-0.199c-0.321-0.287-0.348-0.779-0.062-1.099      l15.772-17.629c0.291-0.321,0.785-0.346,1.1-0.061c0.321,0.287,0.348,0.779,0.062,1.1l-15.772,17.629      C448.04,247.33,447.827,247.417,447.614,247.417z"/>
			</g>
			<path style="fill:#FFE7E0;" d="M82.859,254.718c0,3.171-2.571,5.742-5.742,5.742c-3.171,0-5.742-2.571-5.742-5.742     s2.571-5.742,5.742-5.742C80.289,248.976,82.859,251.547,82.859,254.718z"/>
			<path style="fill:#FFE7E0;" d="M77.117,162.85c0,3.171-2.57,5.742-5.742,5.742s-5.742-2.571-5.742-5.742     c0-3.171,2.571-5.742,5.742-5.742S77.117,159.679,77.117,162.85z"/>
			<circle style="fill:#FFE7E0;" cx="305.511" cy="44.188" r="5.742"/>
			<path style="fill:#FFE7E0;" d="M368.67,159.022c0,3.171-2.571,5.742-5.742,5.742s-5.742-2.571-5.742-5.742     c0-3.171,2.57-5.742,5.742-5.742S368.67,155.851,368.67,159.022z"/>
			<path style="fill:#FFE7E0;" d="M465.003,167.316c0,3.171-2.571,5.742-5.742,5.742s-5.742-2.57-5.742-5.742     c0-3.171,2.571-5.742,5.742-5.742S465.003,164.145,465.003,167.316z"/>
			<path style="fill:#FFE7E0;" d="M430.553,269.391c0,3.171-2.571,5.742-5.742,5.742s-5.742-2.571-5.742-5.742     c0-3.171,2.571-5.742,5.742-5.742S430.553,266.22,430.553,269.391z"/>
		</g>
	</g>
</g>















</svg>
