<?xml version="1.0" encoding="UTF-8"?>
<!-- Generator: Adobe Illustrator 25.2.1, SVG Export Plug-In . SVG Version: 6.00 Build 0)  -->
<svg xmlns="http://www.w3.org/2000/svg" xmlns:xlink="http://www.w3.org/1999/xlink" version="1.1" id="Capa_1" x="0px" y="0px" viewBox="0 0 512 512" style="enable-background:new 0 0 512 512;" xml:space="preserve" width="512" height="512">
<g>
	<path style="fill:#FFEEE6;" d="M428.317,421.406c0.083,3.189,1.969,6.041,4.053,8.456c2.432,2.817,5.505,5.445,9.208,5.821   c2.515,0.255,5.067-0.591,7.134-2.045c8.061-5.668,6.832-18.504-1.618-23.268C440.039,406.394,428.1,413.155,428.317,421.406z"/>
	<path style="fill:#FFFFFF;" d="M505.476,193.449c-3.782-4.552-9.042-7.793-15.037-9.366c-0.554-10.241-5.365-19.437-13.136-24.903   c-4.96-3.476-10.947-5.312-17.316-5.312c-6.026,0-12,1.62-17.252,4.67c-2.268,1.312-4.439,2.822-6.486,4.499   c-4.198-2.242-8.585-3.369-13.132-3.369c-0.853,0-1.714,0.04-2.578,0.125c-7.677,0.744-14.85,4.93-19.78,11.4   c-7.362-8.288-15.345-15.898-23.898-22.779c3.016-8.382,4.875-17.526,5.224-26.192c0.044-0.692,0.064-1.419,0.077-2.231   c0.002-0.075,0.002-0.315,0.002-0.391c0.002-0.555-0.007-1.089-0.035-1.633c-0.138-6.976-1.418-12.87-3.916-18.034   c-4.286-8.814-12.198-15.084-21.193-16.777c-1.635-0.305-3.317-0.46-4.998-0.46c-4.248,0-8.536,0.99-12.551,2.863   c-6.402-6.927-14.932-10.861-23.688-10.861c-0.765,0-1.532,0.031-2.33,0.095c-11.958,0.981-22.562,9.469-27.004,21.59   c-0.906,2.454-1.611,4.999-2.112,7.591c-2.756,0.579-5.145,1.464-7.196,2.499c-0.389-0.052-0.773-0.1-1.158-0.149   c-0.749-1.431-1.633-2.725-2.618-3.886c0.599-1.027,1.071-2.078,1.418-3.114c1.859-5.54,1.169-13.596-6.341-19.592l-7.268-5.803   l-0.244-9.093C260.621,53.317,251.844,47.1,243.74,47.1c-3.097,0-9.04,0.901-14.07,6.938l-6.035,7.249l-9.633,0.253   c-9.633,0.252-15.053,6.265-16.914,11.808c-1.861,5.538-1.174,13.593,6.338,19.596l7.268,5.802l0.244,9.096   c0.002,0.077,0.014,0.148,0.016,0.224l-2.823-5.567c-3.35-6.601-9.398-10.542-16.178-10.542c-8.237,0-14.993,5.593-17.209,14.241   l-3.031,11.795l-11.072,5.609c-4.156,2.106-6.881,4.973-8.528,8.032c-0.255-0.365-0.514-0.726-0.78-1.083   c-6.356-8.611-16.16-13.751-26.226-13.751c-1.943,0-3.884,0.197-5.803,0.59c-9.265,1.923-17.325,8.441-21.913,17.631   c-1.582-0.243-3.168-0.367-4.732-0.367c-4.571,0-8.874,1.005-12.811,3c-8.138,4.139-13.975,12.381-15.615,22.073   c-0.943,5.628-0.515,11.643,1.309,18.374c0.132,0.558,0.288,1.118,0.476,1.749c0.023,0.08,0.107,0.35,0.132,0.43   c0.196,0.63,0.405,1.279,0.635,1.906c2.979,8.834,8.554,19.68,16.456,28.909c-3.146,1.077-6.077,2.699-8.635,4.812   c-0.943,0.768-1.838,1.623-2.655,2.522c-4.769,5.157-7.108,11.855-6.594,18.725c0.112,1.689,0.395,3.369,0.84,5.02   c-7.423,0.73-14.233,3.983-19.047,9.19c-6.038,6.558-8.724,15.88-7.413,25.4c-5.025,2.718-9.096,6.74-11.645,11.638   c-4.075,7.862-4.024,17.641,0.148,26.183c0.547,1.116,1.159,2.205,1.84,3.273c-1.503,8.333-2.235,16.774-2.19,25.203   c-0.579,0.439-1.145,0.881-1.698,1.326C9.498,357.78-0.291,376.927,0.007,395.633c0.042,2.349,0.218,4.504,0.535,6.585   c0.13,0.945,0.292,1.872,0.486,2.76c3.15,16.144,13.702,30.843,28.28,39.367c9.777,5.708,21.247,8.724,33.169,8.724   c7.228,0,14.391-1.093,21.378-3.278c4.255-1.356,10.535-3.732,16.036-8.811c6.378-6.008,9.726-14.26,9.149-22.234h52.319   c0.299,0.042,2.165,0.285,2.268,0.295l1.899-15.862l-1.657,15.89c0.415,0.051,0.842,0.1,1.24,0.14c0,0,1.67,0.147,1.749,0.154   c2.211,0.189,4.793,0.328,7.459,0.4c1.336,0.037,2.712,0.057,4.103,0.057c0.93,0,1.855-0.009,2.767-0.027   c1.774,0.623,3.626,0.94,5.508,0.94c0.046,0,0.092,0,0.138-0.001c2.437,0.478,4.82,0.825,7.103,1.133l62.995,8.308   c4.305,0.568,8.545,1.078,13.099,1.078c5.068,0,9.576-0.65,13.694-1.959c0.829-0.258,1.662-0.563,2.242-0.797   c0.671-0.258,1.292-0.519,1.816-0.762c2.14-0.962,4.191-2.192,6.092-3.64c-0.98,5.208-0.651,10.454,1.097,15.395   c2.864,8.102,9.36,14.754,17.822,18.249c4.648,1.922,9.837,2.897,15.422,2.897c1.356,0,2.765-0.057,4.187-0.169   c1.103-0.086,2.169-0.204,3.207-0.353c0.339,0.15,0.686,0.297,1.035,0.442c6.864,2.845,14.503,4.348,22.092,4.348   c5.943,0,11.763-0.889,17.292-2.641c7.642-2.416,14.114-6.224,19.85-9.598c2.69-1.585,5.472-3.223,8.055-4.498   c3.534-1.743,7.015-2.742,9.554-2.742c0.95,0,1.681,0.139,2.169,0.409c0.798,0.443,2.204,1.7,3.556,2.909   c1.09,0.976,2.186,1.946,3.321,2.878c6.826,5.598,13.958,8.436,21.197,8.436c0.442,0,0.879-0.01,1.33-0.032   c14.719-0.711,23.27-12.522,26.916-17.557c5.514-7.602,3.824-18.284-3.769-23.816c-2.936-2.138-7.34-4.075-10.973-4.075   c-1.29,0-2.509,0.198-3.665,0.55c1.098-0.824,2.119-1.771,3.031-2.846c5.147-6.065,9.02-15.062,4.253-63.927   c-1.521-15.592-3.679-32.486-5.754-47.03c0.127,0,0.255,0.001,0.38,0.001c3.222,0,6.336-0.313,9.266-0.932   c0.927-0.16,1.837-0.377,2.723-0.645c0.743-0.194,1.481-0.425,2.211-0.69c5.756-2.049,10.503-5.53,13.659-9.962   c4.114-5.685,5.635-12.61,4.305-19.388c-0.25-1.33-0.569-2.538-0.971-3.69c-1.321-3.854-3.554-7.416-6.442-10.38   c7.925-4.852,14.714-10.732,19.565-16.113c0.444-0.469,0.881-0.965,1.299-1.451c0,0,0.389-0.456,0.451-0.53   c0.354-0.423,0.688-0.837,1.011-1.272c4.349-5.457,7.132-10.81,8.503-16.362C513.399,210.387,511.318,200.504,505.476,193.449z"/>
	<g>
		<path style="fill:#FF7A79;" d="M442.824,402.77c0,0-128.87,0-239.049,0H49.689c-6.177-0.027-5.458-49.152-5.698-54.876    c-0.533-11.689,0.612-23.112,3.275-34.161c0.799-3.408,1.757-6.763,2.849-10.091c1.677-5.059,3.648-10.065,5.938-14.91    c0.852-1.811,1.73-3.595,2.663-5.378c3.488-6.657,7.535-13.073,12.061-19.224c1.305-1.784,2.663-3.541,4.074-5.272    c0.985-1.251,1.997-2.503,3.035-3.728c0.559-0.692,1.145-1.385,1.731-2.05c2.237-2.636,4.553-5.219,6.896-7.775    c0.399-0.453,0.799-0.879,1.198-1.305c0.852-0.932,1.704-1.837,2.556-2.769c1.784-1.89,3.568-3.781,5.379-5.645l0.319-0.319    c0.293-0.32,0.612-0.666,0.932-0.985c0.373-0.4,0.772-0.825,1.171-1.225c0.32-0.32,0.639-0.666,0.958-0.985    c1.092-1.118,2.157-2.263,3.249-3.381c3.355-3.488,6.71-7.003,9.985-10.57c1.145-1.225,2.29-2.476,3.408-3.754    c0.799-0.879,1.598-1.784,2.396-2.689c0.825-0.959,1.651-1.917,2.476-2.903c0.027-0.027,0.053-0.027,0.053-0.053    c1.438-1.677,2.822-3.381,4.207-5.112c7.029-8.813,13.34-18.266,19.943-27.452c0.559-0.772,1.118-1.571,1.678-2.343    c5.032-6.923,10.278-13.659,16.162-19.757c3.142-3.275,6.443-6.39,10.011-9.266c26.2-21.061,62.092-26.28,95.588-23.245    c83.978,7.668,145.938,66.672,165.508,147.668C436.3,280.05,455.338,402.77,442.824,402.77z"/>
	</g>
	<g>
		<g>
			<g>
				<path style="fill:#523E3F;" d="M346.415,339c-0.064,0-0.127-0.004-0.192-0.013c-0.728-0.106-1.233-0.78-1.128-1.508      c9.48-65.821,4.913-134.436-13.207-198.422c-0.2-0.708,0.211-1.444,0.919-1.644c0.697-0.193,1.443,0.209,1.644,0.919      c18.221,64.344,22.814,133.339,13.28,199.525C347.635,338.521,347.066,339,346.415,339z"/>
			</g>
			<g>
				<g>
					<path style="fill:#523E3F;" d="M327.999,169.442c3.925,5.243,9.268,9.413,15.307,11.948c3.685-5.947,6.098-12.99,6.667-19.964       C342.257,159.708,333.543,163.809,327.999,169.442z"/>
				</g>
				<g>
					<g>
						<path style="fill:#AFDCF2;" d="M366.161,118.606c0.034,0.381-1.099,0.676-1.1,1.063c-0.01,0.53,1.112,1.151,1.068,1.687        c-0.724,19.799-11.473,46.648-30.764,48.155c-18.598,1.452-37.568-6.775-49.439-21.103c-0.327-0.394,0.467-1.466,0.149-1.877        c-0.25-0.324-1.616,0.016-1.846-0.315c-0.272-0.338-0.55-0.71-0.788-1.054c-2.361-3.339-4.39-6.985-5.047-11.018        c-0.657-4.033,0.236-8.452,3.124-11.365c4.585-4.627,12.172-3.918,18.528-2.424c-1.224-6.008-0.736-12.675,1.391-18.442        c2.1-5.727,7.221-10.696,13.323-11.198c5.272-0.422,10.372,2.494,13.745,6.566c3.333,4.044,5.199,9.126,6.609,14.22        c1.901-3.509,4.691-6.968,7.801-9.428c3.144-2.467,7.241-3.944,11.173-3.21c4.298,0.809,7.855,4.144,9.756,8.058        C365.582,110.512,366.109,114.604,366.161,118.606z"/>
					</g>
					<g>
						<path style="fill:#523E3F;" d="M366.161,118.606c0.034,0.381,0.027,0.734,0.026,1.121c-0.01,0.53-0.014,1.093-0.058,1.629        c-2.959-1.191-6.304-1.397-9.343-0.498c-5.745,1.704-9.946,6.507-10.478,11.952c-0.044,0.536-0.42,0.99-0.959,1.123        c-0.539,0.133-1.065-0.054-1.39-0.488c-2.744-3.904-6.008-8.347-10.364-11.432c-4.523-3.231-9.595-4.428-13.976-3.357        c-4.579,1.142-8.658,4.868-11.178,10.213c-2.315,4.921-3.204,10.922-3.977,16.199c-0.056,0.467-0.376,0.842-0.801,1.024        c-0.465,0.154-0.932,0.098-1.307-0.222c-3.764-3.121-9.609-3.335-13.602-0.504c-1.156,0.807-2.094,1.855-2.829,3.043        c-0.584-0.704-1.175-1.442-1.697-2.192c0.816-1.132,1.834-2.125,3.018-2.972c4.31-3.029,10.399-3.212,14.948-0.618        c0.767-4.923,1.71-10.23,3.897-14.882c2.852-6.038,7.579-10.268,12.896-11.613c5.119-1.274,10.961,0.101,16.121,3.744        c3.759,2.7,6.755,6.242,9.237,9.665c1.668-5.191,6.036-9.462,11.678-11.148C359.331,117.409,362.908,117.539,366.161,118.606z        "/>
					</g>
				</g>
			</g>
			<g>
				<g>
					<path style="fill:#523E3F;" d="M383.289,178.052c0.548,2.467,0.064,5.061-0.893,7.377c-0.163,0.401-0.336,0.778-0.542,1.139       c-0.088,0.215-0.96,0.084-1.068,0.282c-0.111,0.204,0.541,0.736,0.411,0.929c-1.898,3.376-4.636,6.326-7.51,8.757       c-0.631,0.519-1.271,1.012-1.921,1.481c-0.26,0.203-1.258,0.014-1.523,0.203c-0.229,0.163,0.275,0.706,0.043,0.858       c-3.653,2.551-7.583,4.666-11.521,6.755c-2.656,1.414-7.872,4.574-10.094,4.406c-0.212-0.035-0.178-0.774-0.324-0.862       c-0.224-0.144-0.628,0.363-0.724,0.03l-0.009-0.025c-1.059-3.384,4.088-16.206,7.586-23.529       c0.163-0.355,0.586,0.154,0.744-0.168c0.193-0.391,0.118-1.605,0.287-1.948c0.648-1.235,1.172-2.197,1.525-2.698       c2.522-3.608,5.536-7.115,9.456-9.026c0.272-0.186,0.343,0.413,0.633,0.277c0.29-0.136,0.842-0.967,1.151-1.054       c2.873-0.983,6.111-0.908,8.787,0.255c0.21,0.087,0.054,0.631,0.25,0.732c0.241,0.125,0.831-0.189,1.054-0.053       C381.133,173.4,382.717,175.368,383.289,178.052z"/>
				</g>
				<path style="fill:#FFE4CF;" d="M365.63,185.186l0.025-0.009c4.878,0.743,10.195,1.522,15.54,2.602      c0.257-0.379,0.479-0.775,0.658-1.21c-5.226-1.068-10.41-1.868-15.204-2.614c4.027-4.679,8.139-8.594,12.436-11.782      c-0.404-0.248-0.834-0.486-1.304-0.68c-4.073,3.105-7.997,6.836-11.814,11.238c0.354-3.938,1.375-7.84,3.027-11.494      c-0.309,0.086-0.633,0.207-0.923,0.343c-0.29,0.136-0.59,0.248-0.861,0.434c-1.576,3.938-2.51,8.149-2.702,12.368      c0.009,0.025,0.009,0.025,0.019,0.05c-0.632,0.746-1.254,1.517-1.876,2.288c-1.47,1.853-2.887,3.772-4.226,5.747      c-1.123-2.792-1.857-5.758-2.194-8.729c-0.307,0.625-0.671,1.329-1.031,2.116c0.447,2.731,1.237,5.392,2.309,7.891l0.009,0.025      c-3.533,5.092-6.754,10.408-9.904,15.613l0.009,0.025c0.096,0.334,0.254,0.531,0.478,0.675c0.146,0.088,0.358,0.122,0.57,0.158      c3.1-5.187,6.306-10.469,9.773-15.508c3.544,2.12,7.553,3.583,11.842,4.346c0.503-0.329,0.996-0.683,1.48-1.062      c-4.582-0.711-8.922-2.222-12.593-4.38c1.446-2.071,2.96-4.112,4.526-6.086C364.335,186.747,364.974,185.941,365.63,185.186z"/>
			</g>
		</g>
		<g>
			<g>
				<g>
					<path style="fill:#523E3F;" d="M473.114,275.647c-1.464,2.059-3.715,3.438-6.076,4.279c-0.407,0.148-0.802,0.272-1.209,0.36       c-0.177,0.063-0.988-0.677-1.166-0.631c-0.267,0.069,0.099,0.915-0.174,0.953c-3.778,0.852-7.802,0.795-11.533,0.29       c-0.808-0.121-1.603-0.266-2.386-0.434c-0.296-0.052-1.117-0.91-1.407-0.973c-0.304-0.066-0.075,0.664-0.373,0.585       c-4.342-1.003-8.544-2.504-12.733-4.029c-2.829-1.025-8.67-2.78-10.033-4.542c-0.116-0.181,1.295-0.782,1.262-0.95       c-0.043-0.263-1.53-0.091-1.346-0.386l0.012-0.024c1.803-3.053,14.771-7.821,22.551-10.13c0.363-0.114,0.214,0.8,0.55,0.704       c0.43-0.122,1.336-1.249,1.712-1.356c1.352-0.346,2.416-0.602,3.025-0.675c4.368-0.544,8.991-0.656,13.036,0.974       c0.32,0.077-0.197,0.633,0.099,0.757c0.295,0.124,1.402-0.124,1.673,0.047c2.655,1.475,4.768,3.928,5.697,6.695       c0.072,0.202-0.776,0.495-0.723,0.695c0.073,0.276,1.041,0.459,1.092,0.728C475.124,270.93,474.724,273.424,473.114,275.647z"/>
				</g>
				<path style="fill:#FFE4CF;" d="M474.663,268.588c-0.087-0.466-0.198-0.944-0.369-1.423c-5.033-0.944-10.433-1.358-16.259-1.243      c3.161-2.375,6.742-4.232,10.562-5.452c-0.271-0.172-0.578-0.332-0.873-0.456c-0.296-0.124-0.579-0.272-0.899-0.349      c-3.979,1.468-7.731,3.595-10.993,6.279c-0.012,0.024-0.012,0.024-0.025,0.047c-0.977,0.031-1.966,0.085-2.956,0.14      c-2.361,0.15-4.735,0.383-7.098,0.712c1.321-2.705,3.031-5.236,5.011-7.477c-0.67,0.191-1.436,0.392-2.262,0.652      c-1.728,2.161-3.174,4.53-4.312,7l-0.012,0.024c-6.147,0.788-12.252,1.957-18.227,3.106l-0.012,0.024      c-0.184,0.294-0.224,0.544-0.181,0.807c0.033,0.167,0.149,0.348,0.265,0.528c5.927-1.173,11.997-2.331,18.06-3.132      c0.8,4.051,2.4,8.008,4.706,11.704c0.581,0.153,1.174,0.282,1.78,0.388c-2.542-3.879-4.327-8.113-5.185-12.284      c2.506-0.314,5.035-0.557,7.551-0.716c1.025-0.066,2.05-0.132,3.051-0.15l0.024,0.012c2.716,4.12,5.7,8.589,8.478,13.281      c0.454-0.064,0.896-0.163,1.339-0.322c-2.708-4.596-5.587-8.98-8.244-13.039C463.756,267.103,469.418,267.533,474.663,268.588z"/>
			</g>
			<g>
				<g>
					<path style="fill:#523E3F;" d="M403.934,252.927c2.209,1.226,3.83,3.309,4.928,5.562c0.192,0.388,0.36,0.767,0.493,1.161       c0.122,0.249-0.362,0.679-0.276,0.934c0.06,0.178,0.699,0.179,0.745,0.361c1.268,3.659,1.659,7.665,1.573,11.429       c-0.03,0.816-0.085,1.623-0.165,2.42c-0.02,0.333-0.559,0.864-0.594,1.191c-0.03,0.276,0.446,0.349,0.406,0.621       c-0.514,4.426-1.538,8.769-2.586,13.103c-0.703,2.925-1.798,8.926-3.397,10.477c-0.167,0.135-0.333,0.271-0.496,0.322       c-0.256,0.072-0.509,0.06-0.822-0.09l-0.025-0.009c-3.235-1.452-9.418-13.808-12.577-21.283c-0.35-0.792-0.636-1.531-0.9-2.176       c-0.494-1.305-0.867-2.334-1.007-2.931c-1.027-4.28-1.653-8.862-0.484-13.063c0.041-0.327,0.156-0.625,0.247-0.932       c0.091-0.308,0.215-0.63,0.355-0.919c1.17-2.802,3.373-5.176,6.02-6.407c0.457-0.223,0.92-0.386,1.373-0.525       C399.022,251.455,401.545,251.575,403.934,252.927z"/>
				</g>
				<path style="fill:#FFE4CF;" d="M411.232,274.794c-3.571,2.958-7.581,5.204-11.63,6.52c-0.591-2.456-1.114-4.942-1.553-7.424      c-0.18-1.012-0.359-2.023-0.489-3.016l0.01-0.025c3.791-3.158,7.901-6.621,12.254-9.904c-0.114-0.444-0.262-0.872-0.469-1.295      c-4.266,3.203-8.302,6.552-12.04,9.645c-0.831-6.117-1.033-11.791-0.569-17.122c-0.453,0.139-0.916,0.302-1.374,0.525      c-0.377,5.107-0.188,10.52,0.575,16.296c-2.713-2.877-4.956-6.229-6.594-9.889c-0.14,0.289-0.265,0.611-0.355,0.919      c-0.09,0.308-0.206,0.606-0.247,0.932c1.902,3.791,4.434,7.283,7.463,10.225c0.025,0.01,0.025,0.01,0.05,0.019      c0.139,0.967,0.304,1.945,0.468,2.922c0.412,2.329,0.908,4.663,1.498,6.975c-2.835-1.011-5.541-2.429-7.988-4.147      c0.264,0.645,0.55,1.383,0.9,2.176c2.341,1.476,4.856,2.65,7.437,3.506l0.025,0.009c1.468,6.021,3.31,11.958,5.116,17.768      l0.025,0.01c0.313,0.15,0.565,0.162,0.822,0.089c0.163-0.051,0.329-0.186,0.496-0.322c-1.825-5.76-3.652-11.663-5.124-17.599      c3.937-1.246,7.692-3.276,11.107-5.98C411.132,276.012,411.195,275.408,411.232,274.794z"/>
			</g>
			<g>
				<path style="fill:#523E3F;" d="M449.005,232.784c-1.225,2.237-2.476,4.473-3.701,6.657c-1.012,1.837-2.023,3.648-3.062,5.432      c-2.103,3.728-4.233,7.375-6.337,10.943c-2.423,4.154-4.872,8.174-7.296,12.115c-0.399,0.639-0.799,1.305-1.225,1.944      c-0.319,0.506-0.639,1.038-0.958,1.544c-0.053,0.107-0.107,0.186-0.186,0.293c-24.895,39.593-50.59,70.16-89.064,106.398      c-0.772-0.479-1.571-0.958-2.396-1.385c28.304-26.626,49.658-50.11,68.855-76.364c0.027,0,0.027-0.027,0.053-0.053      c0.319-0.453,0.639-0.905,0.985-1.358c0.799-1.092,1.571-2.183,2.37-3.301c9.213-12.914,17.946-26.546,26.812-41.59      c1.944-3.302,3.914-6.683,5.858-10.145c1.038-1.784,2.05-3.595,3.062-5.432c1.305-2.29,2.583-4.606,3.887-6.976      c0.346-0.639,1.172-0.879,1.811-0.532C449.111,231.319,449.351,232.145,449.005,232.784z"/>
			</g>
			<g>
				<g>
					<path style="fill:#523E3F;" d="M430.744,237.21c-0.33,6.541,1.116,13.163,4.143,18.971c6.635-2.221,12.991-6.097,17.883-11.099       C447.932,238.831,438.608,236.418,430.744,237.21z"/>
				</g>
				<g>
					<g>
						<path style="fill:#AFDCF2;" d="M492.581,222.483c-0.218,0.315-1.852-0.383-2.1-0.086c-0.346,0.401,0.695,1.797,0.318,2.181        c-13.206,14.769-38.628,28.557-54.432,17.391c-15.235-10.765-24.573-29.214-24.552-47.82c0-0.444,0.738-0.821,0.751-1.271        c0.014-0.478-0.696-1.03-0.656-1.499c0.007-0.434,0.03-0.898,0.067-1.315c0.317-4.077,1.085-8.178,3.157-11.701        c2.072-3.523,5.581-6.351,9.664-6.748c6.483-0.63,11.867,4.762,15.803,9.972c2.897-5.403,7.531-10.221,12.852-13.299        c5.274-3.064,12.389-3.615,17.404-0.103c4.326,3.043,6.386,8.545,6.379,13.832c-0.02,5.24-1.831,10.342-4,15.162        c3.704-1.485,8.06-2.363,12.025-2.269c3.995,0.111,8.09,1.592,10.647,4.669c2.789,3.368,3.395,8.206,2.357,12.432        C497.306,215.886,495.097,219.37,492.581,222.483z"/>
					</g>
					<g>
						<path style="fill:#523E3F;" d="M492.581,222.483c-0.218,0.315-0.449,0.582-0.696,0.879c-0.346,0.401-0.709,0.832-1.086,1.216        c-1.516-2.806-3.957-5.102-6.87-6.352c-5.508-2.359-11.809-1.348-15.696,2.501c-0.376,0.384-0.956,0.494-1.455,0.251        c-0.499-0.243-0.785-0.722-0.757-1.264c0.383-4.757,0.71-10.26-0.67-15.416c-1.416-5.376-4.552-9.536-8.607-11.512        c-4.253-2.047-9.771-1.786-15.124,0.716c-4.925,2.307-9.443,6.355-13.409,9.921c-0.342,0.324-0.827,0.407-1.27,0.276        c-0.456-0.178-0.78-0.521-0.863-1.005c-0.902-4.807-5.261-8.705-10.142-9.078c-1.405-0.118-2.796,0.09-4.121,0.534        c0-0.915,0.018-1.86,0.095-2.771c1.351-0.35,2.768-0.463,4.22-0.358c5.25,0.423,10.052,4.173,11.895,9.074        c3.735-3.298,7.852-6.778,12.506-8.959c6.052-2.823,12.391-3.057,17.341-0.695c4.752,2.29,8.368,7.08,10.01,13.18        c1.167,4.479,1.208,9.118,0.931,13.337c4.6-2.928,10.688-3.423,16.106-1.115C488.091,217.198,490.76,219.583,492.581,222.483z        "/>
					</g>
				</g>
			</g>
		</g>
		<g>
			<g>
				<path style="fill:#523E3F;" d="M161.502,380.273c-0.506,0-0.989-0.289-1.213-0.779c-27.731-60.853-42.694-128.362-43.269-195.23      c-0.006-0.736,0.585-1.337,1.319-1.343c0.74-0.01,1.338,0.587,1.343,1.32c0.572,66.499,15.452,133.634,43.029,194.148      c0.304,0.67,0.009,1.459-0.659,1.764C161.874,380.235,161.686,380.273,161.502,380.273z"/>
			</g>
			<g>
				<g>
					<path style="fill:#523E3F;" d="M131.947,212.312c-2.295,6.134-6.253,11.637-11.337,15.764       c-5.207-4.673-9.5-10.755-12.003-17.289C115.529,206.972,125.044,208.462,131.947,212.312z"/>
				</g>
				<g>
					<g>
						<path style="fill:#AFDCF2;" d="M81.047,174.234c0.075,0.375,2.524,0.341,2.634,0.713c0.158,0.506-2.023,1.416-1.831,1.918        c6.254,18.8,24.107,41.551,43.046,37.581c18.257-3.827,34.155-17.05,41.526-34.134c0.154-0.357-1.023-1.7-0.875-2.066        c0.2-0.495,1.721-0.016,1.888-0.514c0.166-0.401,0.329-0.836,0.46-1.233c1.329-3.868,2.253-7.936,1.751-11.992        c-0.502-4.056-2.599-8.046-6.189-10.031c-5.699-3.153-12.782-0.343-18.464,2.875c-0.512-6.109-2.852-12.372-6.512-17.31        c-3.623-4.907-9.933-8.239-15.931-7.007c-5.179,1.075-9.254,5.305-11.349,10.16c-2.063,4.817-2.427,10.219-2.351,15.504        c-2.81-2.834-6.458-5.371-10.134-6.859c-3.71-1.485-8.057-1.752-11.625,0.056c-3.898,1.983-6.375,6.182-7.102,10.473        C79.331,166.303,79.975,170.379,81.047,174.234z"/>
					</g>
					<g>
						<path style="fill:#523E3F;" d="M81.047,174.234c0.075,0.375,0.181,0.712,0.29,1.083c0.158,0.506,0.32,1.045,0.513,1.547        c2.506-1.973,5.658-3.111,8.828-3.1c5.992,0.023,11.373,3.453,13.412,8.529c0.193,0.502,0.681,0.833,1.235,0.809        c0.555-0.024,1.007-0.351,1.197-0.859c1.538-4.517,3.423-9.698,6.738-13.882c3.434-4.371,7.965-6.944,12.471-7.146        c4.716-0.189,9.676,2.241,13.595,6.664c3.603,4.073,6.141,9.583,8.365,14.431c0.185,0.433,0.597,0.702,1.056,0.758        c0.489,0.017,0.922-0.168,1.192-0.58c2.737-4.053,8.286-5.898,12.913-4.303c1.336,0.449,2.53,1.193,3.57,2.127        c0.363-0.84,0.723-1.714,1.013-2.581c-1.101-0.858-2.356-1.525-3.731-2.005c-4.987-1.697-10.882-0.163-14.52,3.603        c-2.118-4.51-4.513-9.339-7.919-13.19c-4.433-4.995-10.157-7.727-15.638-7.526c-5.27,0.214-10.492,3.174-14.422,8.12        c-2.85,3.647-4.731,7.887-6.152,11.87c-3.058-4.515-8.449-7.387-14.338-7.421C87.267,171.168,83.87,172.296,81.047,174.234z"/>
					</g>
				</g>
			</g>
			<g>
				<g>
					<path style="fill:#523E3F;" d="M81.298,236.098c0.167,2.521,1.36,4.876,2.929,6.83c0.269,0.34,0.54,0.653,0.84,0.941       c0.137,0.171,1.146-0.139,1.296,0.013c0.172,0.174-0.513,0.808-0.325,0.964c2.769,2.707,6.226,4.77,9.667,6.297       c0.751,0.321,1.504,0.615,2.259,0.882c0.323,0.129,1.242-0.162,1.566-0.05c0.249,0.086-0.098,0.578,0.152,0.654       c4.223,1.423,8.588,2.349,12.954,3.249c2.946,0.611,8.84,2.18,10.925,1.395c0.194-0.093,0.387-0.186,0.503-0.311       c0.175-0.201,0.271-0.435,0.269-0.782l0.002-0.027c0.067-3.545-8.473-14.407-13.887-20.453       c-0.229-0.264-0.672,0.268-0.89,0.029c-0.323-0.353-0.413-1.463-0.694-1.77c-0.969-1.004-1.741-1.78-2.221-2.161       c-3.433-2.755-7.311-5.275-11.609-6.009c-0.313-0.102-0.474,0.237-0.79,0.187c-0.317-0.049-0.82-0.436-1.141-0.432       c-3.033-0.137-6.12,0.844-8.362,2.712c-0.141,0.113,0.345,0.785,0.217,0.904c-0.234,0.217-1.071-0.112-1.277,0.115       C82.061,231.028,81.093,233.361,81.298,236.098z"/>
				</g>
				<path style="fill:#FFE4CF;" d="M110.447,243.949l0.002-0.027c0.327-2.699,0.338-5.475,0.001-8.222      c-0.567-0.654-1.113-1.227-1.584-1.742c0.51,2.946,0.639,5.999,0.345,8.994c-1.84-1.52-3.739-2.964-5.67-4.33      c-0.814-0.566-1.628-1.131-2.443-1.67c0.002-0.027,0.002-0.027,0.004-0.053c-1.369-3.995-3.448-7.774-6.066-11.111      c-0.313-0.102-0.632-0.125-0.948-0.175c-0.317-0.049-0.662-0.074-0.983-0.07c2.612,3.043,4.687,6.502,6.133,10.182      c-4.9-3.153-9.714-5.633-14.495-7.47c-0.397,0.318-0.742,0.667-1.06,1.018c5.019,1.854,10.065,4.457,15.244,7.817      c-4.392,2.062-9.142,4.285-13.858,6.777c0.294,0.368,0.618,0.685,0.971,0.977c4.826-2.538,9.711-4.778,14.185-6.86l0.027,0.002      c0.842,0.54,1.681,1.134,2.519,1.728c2.058,1.455,4.084,2.988,6.053,4.57c-2.918,3.102-6.659,5.77-10.857,7.739      c0.571,0.228,1.144,0.429,1.719,0.603c3.902-1.937,7.34-4.467,10.146-7.496c4.742,3.863,9.302,8.033,13.733,12.14      c0.194-0.093,0.387-0.186,0.503-0.311c0.175-0.201,0.271-0.434,0.269-0.782l0.002-0.026      C119.852,252.042,115.267,247.844,110.447,243.949z"/>
			</g>
		</g>
		<g>
			<g>
				<g>
					<path style="fill:#523E3F;" d="M78.091,360.584c1.742,1.587,4.066,2.399,6.384,2.699c0.401,0.054,0.785,0.089,1.173,0.089       c0.436,0.057,0.859,0.061,1.285,0.029c3.612,0.03,7.269-0.818,10.57-2.015c0.712-0.27,1.409-0.559,2.089-0.867       c0.531-0.216,1.046-0.451,1.545-0.705c3.759-1.773,7.293-3.972,10.81-6.19c2.376-1.493,7.353-4.249,8.248-6.124       c0.07-0.188,0.14-0.375,0.137-0.534c-0.013-0.248-0.098-0.468-0.324-0.7l-0.016-0.019c-2.247-2.427-15.01-4.209-22.558-4.775       c-0.804-0.073-1.542-0.106-2.191-0.147c-1.3-0.048-2.321-0.071-2.89-0.017c-4.089,0.367-8.325,1.18-11.69,3.465       c-0.277,0.133-0.505,0.324-0.751,0.496c-0.245,0.172-0.493,0.378-0.706,0.588c-2.128,1.869-3.569,4.523-3.869,7.229       c-0.061,0.471-0.067,0.929-0.054,1.37C75.326,356.681,76.184,358.876,78.091,360.584z"/>
				</g>
				<g>
					<path style="fill:#FFE4CF;" d="M75.282,354.455c4.573-1.998,9.648-3.51,15.302-4.598c0.483-0.079,0.951-0.178,1.45-0.238       l0.019-0.016c0.916-0.181,1.863-0.323,2.811-0.466c2.325-0.352,4.678-0.631,7.024-0.84c0.407-0.016,0.817-0.067,1.224-0.082       c5.685-0.468,11.447-0.612,17.082-0.715c0.07-0.188,0.14-0.375,0.137-0.534c-0.013-0.248-0.098-0.468-0.324-0.7l-0.016-0.019       c-5.673,0.135-11.469,0.275-17.228,0.773L102.748,347c-0.48,0.044-0.976,0.069-1.46,0.149       c-2.219,0.168-4.429,0.424-6.611,0.754c-0.913,0.146-1.825,0.292-2.722,0.457c-0.716,0.111-1.38,0.244-2.045,0.378       c-5.333,1.047-10.173,2.492-14.574,4.348C75.276,353.556,75.27,354.014,75.282,354.455z"/>
				</g>
				<g>
					<path style="fill:#FFE4CF;" d="M85.648,363.372c0.436,0.057,0.859,0.061,1.285,0.029c1.604-4.826,3.441-9.49,5.102-13.782       l0.019-0.016c0.051-0.171,0.102-0.343,0.169-0.496c0.096-0.273-0.016-0.601-0.267-0.747c-0.016-0.019-0.016-0.019-0.032-0.038       c-3.503-1.801-7.344-2.998-11.261-3.55c-0.277,0.133-0.505,0.324-0.751,0.496c-0.245,0.172-0.493,0.378-0.706,0.588       c3.723,0.357,7.354,1.341,10.705,2.882c0.321,0.153,0.626,0.286,0.948,0.439c-0.073,0.223-0.181,0.442-0.274,0.68       C88.965,354.082,87.208,358.648,85.648,363.372z"/>
				</g>
				<g>
					<path style="fill:#FFE4CF;" d="M99.592,360.519c0.531-0.216,1.046-0.451,1.545-0.705c1.372-3.825,2.048-7.748,1.976-11.599       c0.016-0.175-0.003-0.353-0.003-0.547c-0.006-0.124-0.047-0.251-0.127-0.347c-0.079-0.095-0.14-0.207-0.219-0.302L102.748,347       c-1.525-2.026-3.312-3.9-5.314-5.528c-0.804-0.073-1.542-0.106-2.191-0.147c2.248,1.651,4.307,3.62,6.046,5.824       c0.207,0.248,0.413,0.496,0.601,0.76c0.006,0.124-0.007,0.264,0,0.388C101.932,352.268,101.142,356.481,99.592,360.519z"/>
				</g>
			</g>
			<g>
				<g>
					<path style="fill:#523E3F;" d="M136.657,326.197c-1.771,1.554-2.837,3.774-3.393,6.044c-0.099,0.392-0.176,0.77-0.219,1.156       c-0.106,0.427-0.156,0.846-0.172,1.274c-0.432,3.586,0.003,7.315,0.826,10.729c0.189,0.738,0.399,1.462,0.629,2.173       c0.155,0.552,0.332,1.09,0.529,1.615c1.343,3.933,3.135,7.69,4.948,11.432c1.22,2.527,3.403,7.78,5.168,8.878       c0.179,0.09,0.357,0.181,0.516,0.196c0.248,0.015,0.476-0.046,0.732-0.244l0.02-0.014c2.662-1.963,5.855-14.448,7.257-21.886       c0.162-0.791,0.276-1.521,0.39-2.161c0.193-1.287,0.329-2.299,0.339-2.871c0.09-4.104-0.246-8.404-2.142-12.003       c-0.102-0.29-0.266-0.539-0.409-0.801c-0.143-0.263-0.321-0.532-0.506-0.767c-1.62-2.323-4.098-4.051-6.753-4.65       c-0.461-0.113-0.915-0.17-1.356-0.207C140.843,323.884,138.567,324.492,136.657,326.197z"/>
				</g>
				<path style="fill:#FFE4CF;" d="M147.425,350.747c0.08-2.224,0.072-4.449-0.014-6.653c-0.043-0.924-0.087-1.847-0.151-2.756      c0.021-0.014,0.021-0.014,0.041-0.027c2.18-3.281,3.797-6.964,4.781-10.796c-0.102-0.29-0.266-0.538-0.409-0.801      c-0.143-0.263-0.321-0.532-0.506-0.767c-0.77,3.66-2.152,7.159-4.056,10.317c-0.447-5.416-1.344-10.387-2.698-14.968      c-0.461-0.113-0.915-0.17-1.356-0.207c1.477,4.767,2.414,9.98,2.866,15.719c-4.018-2.08-8.36-4.335-12.881-6.411      c-0.106,0.427-0.156,0.846-0.172,1.273c4.618,2.132,9.048,4.476,13.128,6.605l0.014,0.021c0.078,0.93,0.114,1.888,0.15,2.845      c0.091,2.349,0.106,4.719,0.053,7.074c-3.951-0.4-8.05-1.654-11.89-3.644c0.155,0.552,0.332,1.09,0.529,1.614      c3.648,1.789,7.472,2.898,11.307,3.255c-0.168,5.702-0.666,11.444-1.191,17.055c0.179,0.091,0.357,0.181,0.516,0.195      c0.248,0.015,0.476-0.046,0.732-0.244l0.02-0.014c0.498-5.652,1.003-11.429,1.15-17.207l0.021-0.014      c2.184-1.29,4.244-2.857,6.086-4.666c0.162-0.791,0.276-1.521,0.39-2.161C151.996,347.437,149.81,349.265,147.425,350.747z"/>
			</g>
			<g>
				<path style="fill:#523E3F;" d="M188.97,402.77h-4.367c-2.663-1.89-5.272-3.754-7.855-5.645      c-1.358-1.012-2.716-1.997-4.047-3.009c-18.825-14.112-35.599-28.943-52.64-46.383c-0.106-0.053-0.186-0.16-0.266-0.24      c-0.399-0.399-0.799-0.825-1.198-1.225c-0.479-0.506-0.985-1.012-1.464-1.518l-0.026-0.027c-3.009-3.115-6.018-6.31-9.053-9.585      c0,0,0,0-0.027-0.027c-2.609-2.822-5.219-5.698-7.881-8.653v-0.027c-1.305-1.438-2.583-2.876-3.888-4.34      c-1.544-1.758-3.115-3.515-4.66-5.352c-0.453-0.506-0.399-1.305,0.106-1.757c0.532-0.453,1.331-0.399,1.784,0.133      c1.624,1.891,3.275,3.755,4.873,5.592c1.331,1.464,2.609,2.929,3.887,4.34c2.476,2.743,4.899,5.432,7.349,8.068      c11.05,11.982,21.701,22.659,32.644,32.59l0.027,0.027c0.959,0.852,1.864,1.704,2.822,2.556c0.399,0.32,0.745,0.639,1.145,1.012      h0.027c0,0.027,0.027,0.053,0.053,0.08c7.855,6.976,15.896,13.579,24.31,20.049c1.358,1.012,2.689,2.023,4.047,3.035      C179.305,395.927,184.071,399.335,188.97,402.77z"/>
			</g>
			<g>
				<g>
					<path style="fill:#523E3F;" d="M109.112,317.171c1.594,5.897,1.585,12.219-0.025,18.111       c-6.487-0.712-13.047-2.989-18.495-6.581C93.765,322.047,101.787,318.004,109.112,317.171z"/>
				</g>
				<g>
					<g>
						<path style="fill:#AFDCF2;" d="M49.835,315.972c0,0,1.045,0.061,1.33,0.283c0.395,0.297,0.709,1.275,0.709,1.275        c14.958,10.851,40.856,18.393,53.054,5.091c11.759-12.824,16.622-31.487,12.925-48.443c0,0-1.339-0.594-1.428-0.958        c-0.116-0.478,0.793-1.549,0.793-1.549c-0.092-0.394-0.205-0.812-0.321-1.185c-1.095-3.654-2.606-7.24-5.191-10.041        c-2.585-2.801-6.343-4.686-10.143-4.24c-6.034,0.707-9.875,6.687-12.433,12.214c-3.709-4.352-8.886-7.828-14.344-9.581        c-5.413-1.75-12.007-0.846-15.884,3.347c-3.341,3.629-4.132,9.051-3.08,13.869c1.054,4.773,3.714,9.065,6.644,13.03        c-3.67-0.621-7.814-0.561-11.409,0.309c-3.62,0.891-7.06,3.051-8.781,6.36c-1.877,3.622-1.472,8.151,0.309,11.798        C44.224,310.894,46.927,313.633,49.835,315.972z"/>
					</g>
					<g>
						<path style="fill:#523E3F;" d="M49.835,315.972c0.261,0.244,0.524,0.442,0.809,0.664c0.395,0.297,0.811,0.618,1.23,0.894        c0.827-2.858,2.598-5.433,5.007-7.148c4.554-3.24,10.497-3.563,14.801-0.824c0.419,0.276,0.969,0.261,1.376-0.059        c0.407-0.32,0.573-0.814,0.44-1.302c-1.289-4.26-2.676-9.212-2.438-14.185c0.228-5.18,2.264-9.592,5.569-12.194        c3.472-2.707,8.553-3.56,13.927-2.338c4.945,1.129,9.864,3.926,14.183,6.392c0.376,0.227,0.834,0.208,1.213,0.001        c0.38-0.253,0.608-0.629,0.588-1.087c-0.128-4.559,3.075-8.974,7.45-10.28c1.257-0.386,2.566-0.471,3.862-0.328        c-0.181-0.834-0.384-1.692-0.635-2.507c-1.301-0.052-2.615,0.125-3.918,0.508c-4.702,1.424-8.337,5.791-9.048,10.623        c-4.057-2.268-8.497-4.626-13.171-5.694c-6.075-1.377-11.898-0.337-15.944,2.795c-3.879,3.026-6.228,8.108-6.518,13.993        c-0.178,4.313,0.701,8.55,1.788,12.34c-4.772-1.76-10.419-1.007-14.901,2.168C52.883,310.268,50.922,312.969,49.835,315.972z"/>
					</g>
				</g>
			</g>
		</g>
	</g>
	<g>
		<g>
			<g>
				<path style="fill:#FFCCAE;" d="M167.483,346.782c-23.457,6.896-46.942,13.792-69.76,22.552      c-6.736,2.583-13.606,5.458-18.531,10.73c-3.142,3.381-5.272,8.041-5.405,12.567c-0.027,0.479-0.027,0.958,0,1.438v0.026      c0.133,2.024,0.666,3.994,1.677,5.805c2.21,3.861,6.204,6.284,9.825,8.92c3.595,2.636,7.189,6.017,7.748,10.437      c0.506,3.754-1.358,7.508-4.101,10.091c-2.769,2.556-6.337,4.074-9.932,5.219c-13.712,4.287-29.235,3.222-41.643-4.021      c-10.517-6.15-18.425-16.908-20.688-28.809c-0.133-0.586-0.24-1.198-0.32-1.811c-0.239-1.518-0.346-3.035-0.373-4.58      c-0.24-15.017,8.494-29.102,20.209-38.502c11.689-9.399,26.067-14.777,40.445-19.118c8.334-2.556,16.748-4.792,25.215-6.843      c7.375-1.811,14.804-3.461,22.233-5.059c6.47-1.358,14.272-4.366,20.848-4.366c5.165,0.027,10.144,6.284,13.26,9.958      C159.149,332.564,168.229,346.542,167.483,346.782z"/>
			</g>
		</g>
		<g>
			<path style="fill:#FFCCAE;" d="M193.941,402.537c23.725-5.717,42.08-16.85,65.143-24.829     c18.432-6.377,36.54-14.202,52.449-25.487c15.908-11.285,29.593-26.245,37.155-44.223c8.044-19.124,8.768-40.905,3.911-61.075     c-10.801-44.856-54.185-71.459-98.007-74.961c-41.429-3.311-87.051,12.42-112.505,46.432c-1.857,2.481-3.6,5.048-5.222,7.689     c-3.088,5.027-5.722,10.332-7.857,15.832c-2.362,6.086-4.119,12.41-5.186,18.852c-6.104,36.846,10.43,76.514,40.897,98.117     c-6.2,4.623-13.716,9.149-17.149,16.08c-3.433,6.931-3.546,16.03,1.618,21.787c4.532,5.051,12.463,6.127,19.035,6.694     C175.348,404.057,187.345,404.126,193.941,402.537z"/>
		</g>
		<path style="fill:#FCBE9F;" d="M352.588,246.934c-10.784-44.865-54.184-71.465-97.984-74.979    c-41.43-3.301-87.067,12.435-112.522,46.436c-1.864,2.476-3.594,5.059-5.219,7.695c-3.089,5.033-5.724,10.331-7.855,15.816    c-2.37,6.097-4.127,12.434-5.192,18.851c-3.511,21.219,0.494,43.367,10.329,62.466c-3.473,0.904-6.924,1.949-10.063,2.608    c-7.428,1.598-14.857,3.248-22.233,5.059c-8.467,2.05-16.881,4.286-25.215,6.843c-14.378,4.34-28.756,9.719-40.445,19.117    c-11.716,9.399-20.449,23.485-20.209,38.501c0.027,1.544,0.133,3.062,0.373,4.58c0.08,0.612,0.186,1.225,0.32,1.81    c2.263,11.902,10.171,22.659,20.689,28.81c12.408,7.242,27.931,8.307,41.643,4.02c3.595-1.145,7.163-2.663,9.932-5.219    c2.743-2.583,4.606-6.337,4.101-10.091c-0.559-4.42-4.154-7.801-7.748-10.438c-3.621-2.636-7.615-5.059-9.825-8.92    c-1.012-1.81-1.544-3.781-1.677-5.804v-0.027c-0.027-0.479-0.027-0.959,0-1.438c0.133-4.527,2.263-9.186,5.405-12.568    c4.926-5.272,11.795-8.148,18.531-10.73c18.648-7.159,37.741-13.069,56.9-18.755c3.167,2.986,6.53,5.766,10.091,8.291    c-6.204,4.633-13.712,9.16-17.147,16.083c-3.435,6.949-3.541,16.029,1.624,21.806c0.985,1.092,2.13,1.997,3.408,2.743    c0.506,0.319,1.065,0.612,1.624,0.879c3.302,1.571,7.136,2.317,10.81,2.743c0.559,0.053,1.118,0.133,1.651,0.186    c0.533,0.053,1.039,0.08,1.545,0.133c7.109,0.612,19.117,0.692,25.721-0.905c23.724-5.725,42.069-16.854,65.127-24.842    c18.452-6.364,36.558-14.192,52.454-25.481c15.922-11.289,29.608-26.227,37.17-44.226    C356.742,288.87,357.461,267.09,352.588,246.934z"/>
		<g>
			<path style="fill:#523E3F;" d="M73.786,392.632c-0.027,0.479-0.027,0.958,0,1.438c-3.248-1.252-7.029-1.198-10.144,0.293     c-4.101,1.97-7.136,7.163-7.029,12.062c0,0.346-0.24,0.639-0.586,0.666c-0.346,0.053-0.639-0.187-0.719-0.506     c-1.039-4.713-5.805-8.334-10.624-8.094c-5.139,0.266-9.719,4.18-10.225,8.733c-0.027,0.346-0.346,0.586-0.719,0.586     c-0.346-0.027-0.612-0.346-0.612-0.692c0.186-3.515-1.89-7.003-5.032-8.547c-3.142-1.518-7.189-0.985-9.852,1.305     c-0.612,0.533-1.171,1.172-1.571,1.864c-0.133-0.586-0.24-1.198-0.32-1.811c0.32-0.399,0.666-0.745,1.038-1.065     c3.036-2.636,7.668-3.248,11.263-1.491c2.636,1.278,4.607,3.754,5.432,6.55c1.837-3.701,5.991-6.524,10.517-6.763     c4.447-0.24,8.84,2.449,10.943,6.337c0.852-4.447,3.728-8.521,7.508-10.331C66.41,391.541,70.324,391.407,73.786,392.632z"/>
		</g>
		<path style="fill:#FFCCAE;" d="M412.683,379.825c-0.474-18.987-5.187-37.813-13.473-54.901    c7.187-11.924,9.511-21.926,9.931-23.966c0.053-0.266,0.08-0.506,0.053-0.772c-0.184-2.178-1.352-13.375-6.598-26.958    c0,0,3.323-72.763,2.711-73.269c-0.106-0.133-0.213-0.213-0.346-0.32c-2.583-2.29-5.911-3.461-9.159-3.781    c-5.032-0.426-10.038,0.905-14.911,1.97c-12.936,2.804-28.236,10.06-38.887,20.792c-10.589-2.637-22.82-3.862-36.997-3.079    c-1.331,0.053-2.716,0.16-4.1,0.266c-11.342,0.906-21.401,2.948-30.333,5.857c-12.711-6.702-27.785-9.514-41.99-10.605    c-6.124-0.479-12.434-1.198-18.532-0.16c-4.526,0.799-9.026,2.769-12.008,6.124c-0.346,0.399-0.692,0.799-0.985,1.225    c-3.967,5.512-3.568,12.834-2.609,19.117c0.826,5.645,1.97,11.21,3.461,16.721c2.598,9.899,6.125,19.578,10.156,29.054    c-0.473,1.297-0.918,2.582-1.335,3.854c-8.025,12.091-16.151,24.354-22.08,37.361c-7.828,17.201-16.449,32.335-16.769,51.213    c-0.133,7.136,2.983,17.594,7.829,22.813c5.032,5.378,12.993,6.656,20.316,7.642c20.981,2.769,41.989,5.538,62.997,8.307    c6.656,0.879,13.659,1.704,19.943-0.293c0.426-0.133,0.852-0.293,1.252-0.453c0.346-0.133,0.666-0.266,1.012-0.426    c2.663-1.198,5.032-3.248,6.683-5.698c0.32-0.426,0.586-0.852,0.826-1.305c2.024-3.568,2.556-7.775,0.559-11.342    c13.1-0.852,26.892-3.009,39.966-4.473c0.213-0.027,0.426-0.053,0.639-0.08c-0.187,0.772-0.266,1.571-0.293,2.343    c-0.186,4.633,2.077,9.026,5.672,12.115c0.373,0.346,0.772,0.665,1.198,0.959c0.16,0.133,0.319,0.239,0.479,0.346    c3.408,2.316,7.349,3.594,11.449,4.313c0.426,0.106,0.879,0.186,1.331,0.24c1.757,0.266,3.515,0.452,5.245,0.559    c13.366,0.905,26.946-1.065,39.513-5.725c6.39-2.37,12.967-5.831,16.029-11.902C412.63,389.331,412.79,384.485,412.683,379.825z"/>
		<g>
			<g>
				<path style="fill:#523E3F;" d="M154.223,400.38c-0.559-0.266-1.118-0.559-1.624-0.879c-1.092-4.127-1.012-8.547,0.373-12.594      c0.107-0.346,0.506-0.532,0.852-0.426c0.346,0.133,0.532,0.506,0.399,0.852C152.812,391.541,152.865,396.174,154.223,400.38z"/>
			</g>
			<g>
				<path style="fill:#523E3F;" d="M166.684,403.309c-0.532-0.053-1.092-0.133-1.651-0.187c-1.944-3.807-2.902-8.121-2.716-12.408      c0.027-0.373,0.346-0.692,0.692-0.639c0.373,0.027,0.666,0.346,0.639,0.692C163.436,395.135,164.528,399.529,166.684,403.309z"/>
			</g>
		</g>
		<g>
			<g>
				<path style="fill:#FF9797;" d="M261.926,245.39c-6.018,11.13-12.941,21.7-20.848,31.499      c-8.44,7.455-17.414,14.405-26.866,20.848c-0.08,0.053-0.187,0.133-0.266,0.186c-0.373-0.799-0.746-1.571-1.118-2.37      c-6.151-13.073-11.609-26.546-15.257-40.445c-1.491-5.512-2.636-11.076-3.461-16.721c-0.959-6.284-1.831-13.606,2.136-19.118      c0.293-0.426,0.639-0.825,0.986-1.225C221.061,218.444,245.152,228.429,261.926,245.39z"/>
			</g>
			<g>
				<path style="fill:#FF9797;" d="M410.899,220.248c-0.133,5.618-0.532,11.183-1.198,16.721      c-1.624,13.979-4.713,27.691-8.414,41.137c-0.239,0.799-0.453,1.624-0.692,2.423c-0.08-0.053-0.16-0.106-0.239-0.16      c-12.275-8.068-23.777-17.28-34.428-27.691l-0.027-0.027c8.44-20.422,22.153-38.688,39.407-52.693      c0.612,0.506,1.171,1.118,1.651,1.811C410.686,206.775,411.059,214.018,410.899,220.248z"/>
			</g>
		</g>
		<g>
			<g>
				<path style="fill:#523E3F;" d="M300.873,372.333c-18.823,0-36.835-3.438-52.545-10.072      c-20.009-8.453-36.889-22.439-47.529-39.384c-0.196-0.312-0.101-0.723,0.21-0.916c0.311-0.2,0.722-0.103,0.917,0.209      c10.497,16.716,27.16,30.519,46.92,38.866c17.937,7.576,38.925,10.93,60.676,9.727c18.756-1.048,35.747-5.244,50.5-12.472      c16.51-8.088,29.89-19.881,38.692-34.103c0.192-0.314,0.6-0.411,0.916-0.218c0.312,0.193,0.409,0.604,0.215,0.917      c-8.934,14.437-22.503,26.402-39.238,34.6c-14.914,7.308-32.078,11.547-51.012,12.604      C306.674,372.254,303.763,372.333,300.873,372.333z"/>
			</g>
			<g>
				<g>
					<g>
						<path style="fill:#FFEEE6;" d="M376.924,248.558c-2.37,5.325-7.988,8.68-13.739,9.639c-5.751,0.985-11.662-0.08-17.28-1.571        c-11.529-3.009-22.898-8.015-31.019-16.721c-5.911-6.337-9.905-15.017-9.905-23.777c0-0.186,0-0.399,0.027-0.586        c33.735-1.864,56.581,7.535,72.024,20.688C378.415,240.331,378.655,244.618,376.924,248.558z"/>
					</g>
					<g>
						<path style="fill:#FFEEE6;" d="M288.366,313.633c-7.109,8.893-17.307,15.044-28.277,18.053        c-12.328,3.381-25.748,2.822-37.543-2.024c-6.736-2.796-12.86-6.949-17.973-12.115c-1.331-1.358-2.53-2.689-3.594-4.074        c0.239-2.21,0.586-4.686,1.038-7.376c3.035-17.84,11.343-45.051,34.001-65.021c3.515-3.115,7.375-6.044,11.636-8.733        c2.023,0,4.074,0.133,6.097,0.373c17.706,2.157,34.002,14.032,41.137,30.407C301.998,279.471,299.522,299.707,288.366,313.633        z"/>
					</g>
					<g>
						<path style="fill:#523E3F;" d="M275.18,297.902c0,6.289-5.098,11.387-11.387,11.387s-11.387-5.098-11.387-11.387        c0-6.289,5.098-11.387,11.387-11.387S275.18,291.613,275.18,297.902z"/>
					</g>
					<g>
						<path style="fill:#523E3F;" d="M362.876,290.084c0,6.289-5.098,11.387-11.387,11.387c-6.289,0-11.387-5.098-11.387-11.387        c0-6.289,5.098-11.387,11.387-11.387C357.778,278.697,362.876,283.795,362.876,290.084z"/>
					</g>
				</g>
				<g>
					<g>
						<g>
							<path style="fill:#523E3F;" d="M319.891,306.648c-0.705-0.012-1.41,0.01-2.112,0.065c-1.791,0.139-3.537,0.496-5.262,0.983         c-1.205,0.34-2.377,0.733-3.54,1.193c-1.08,0.428-2.184,0.897-3.023,1.727c-0.417,0.412-0.764,0.927-0.842,1.508         c-0.106,0.785,0.3,1.569,0.875,2.113c0.575,0.544,1.304,0.892,2.02,1.23c2.853,1.356,5.75,2.639,8.575,4.051         c0.435,0.205,0.848,0.577,1.35,0.329c0.365-0.181,0.671-0.473,0.957-0.757c0.315-0.313,0.673-0.588,1.022-0.871         c0.761-0.616,1.521-1.235,2.279-1.855c1.81-1.478,3.73-2.842,5.274-4.618c0.321-0.369,0.63-0.761,0.805-1.218         c0.175-0.457,0.202-0.992-0.03-1.422c-0.389-0.72-1.328-1.059-2.047-1.324c-0.883-0.325-1.793-0.576-2.716-0.759         C322.295,306.79,321.094,306.668,319.891,306.648z"/>
						</g>
						<path style="fill:#523E3F;" d="M333.557,319.332c-0.4-0.282-0.951-0.186-1.233,0.21c-0.283,0.4-0.189,0.951,0.209,1.233        c2.168,1.536,4.275,3.418,3.485,5.73c-0.569,1.657-1.87,2.895-3.667,3.481c-2.237,0.732-4.876,0.363-6.733-0.934        c-2.721-1.897-4.443-4.972-6.111-7.945c-0.369-0.658-0.743-1.296-1.118-1.934c0.006-0.02,0.012-0.041,0.018-0.06        c0.145-0.468-0.117-0.962-0.583-1.107c-0.184-0.058-0.369-0.037-0.54,0.022c-0.184-0.017-0.373,0.008-0.541,0.113        c-0.415,0.256-0.548,0.8-0.292,1.217c0.007,0.012,0.014,0.025,0.021,0.036c-0.12,0.398-0.241,0.793-0.36,1.194        c-0.976,3.276-1.985,6.664-3.811,9.452c-1.498,2.291-4.252,3.824-6.877,3.828c-1.399-0.001-3.362-0.453-4.766-2.601        c-1.392-2.13,0.243-4.56,2.028-6.655c0.316-0.372,0.271-0.929-0.101-1.247c-0.37-0.314-0.927-0.271-1.247,0.102        c-1.335,1.568-4.464,5.243-2.16,8.767c1.433,2.193,3.652,3.401,6.245,3.401c0.355,0.001,0.711-0.021,1.068-0.066        c2.847-0.357,5.681-2.099,7.292-4.56c1.89-2.888,2.929-6.243,3.904-9.516c0.091,0.162,0.185,0.316,0.277,0.479        c1.763,3.146,3.587,6.401,6.642,8.532c1.837,1.281,4.288,1.831,6.595,1.54c0.58-0.072,1.15-0.197,1.7-0.377        c2.335-0.763,4.037-2.394,4.789-4.59C339.018,323.202,335.19,320.49,333.557,319.332z"/>
					</g>
					<g>
						<g>
							<g>
								<path style="fill:#523E3F;" d="M375.264,303.633c-0.286,0-0.55-0.185-0.637-0.473c-0.107-0.354,0.093-0.725,0.445-0.831          l54.465-16.448c0.344-0.112,0.722,0.092,0.83,0.444c0.106,0.354-0.093,0.725-0.445,0.831l-54.465,16.448          C375.393,303.624,375.328,303.633,375.264,303.633z"/>
							</g>
							<g>
								<path style="fill:#523E3F;" d="M374.428,310.804c-0.34,0-0.63-0.259-0.661-0.604c-0.034-0.365,0.235-0.69,0.601-0.725          l57.23-5.336c0.367,0.009,0.69,0.235,0.724,0.602c0.034,0.365-0.235,0.69-0.601,0.725l-57.23,5.336          C374.47,310.802,374.449,310.804,374.428,310.804z"/>
							</g>
							<g>
								<path style="fill:#523E3F;" d="M425.879,323.404c-0.021,0-0.043-0.002-0.064-0.002l-51.281-4.868          c-0.366-0.035-0.635-0.361-0.6-0.727c0.035-0.365,0.364-0.602,0.725-0.6l51.281,4.868c0.366,0.035,0.635,0.361,0.6,0.728          C426.508,323.145,426.217,323.404,425.879,323.404z"/>
							</g>
						</g>
					</g>
					<g>
						<g>
							<g>
								<path style="fill:#523E3F;" d="M257.353,321.835c-0.018,0-0.035,0-0.052-0.002l-60.672-4.67          c-0.367-0.029-0.642-0.347-0.613-0.714c0.027-0.369,0.367-0.661,0.714-0.613l60.672,4.67          c0.367,0.029,0.642,0.347,0.613,0.714C257.99,321.569,257.697,321.835,257.353,321.835z"/>
							</g>
							<g>
								<path style="fill:#523E3F;" d="M198.097,335.527c-0.334,0-0.623-0.253-0.66-0.593c-0.041-0.365,0.223-0.695,0.588-0.734          l61.494-6.824c0.359-0.017,0.696,0.224,0.735,0.589c0.041,0.365-0.223,0.695-0.588,0.734l-61.494,6.824          C198.146,335.525,198.122,335.527,198.097,335.527z"/>
							</g>
							<g>
								<path style="fill:#523E3F;" d="M207.599,351.925c-0.288,0-0.554-0.189-0.638-0.479c-0.103-0.352,0.099-0.723,0.452-0.826          l53.276-15.593c0.355-0.103,0.723,0.101,0.825,0.453c0.103,0.351-0.099,0.723-0.452,0.826l-53.276,15.593          C207.723,351.916,207.661,351.925,207.599,351.925z"/>
							</g>
						</g>
					</g>
				</g>
			</g>
		</g>
		<g>
			<path style="fill:#523E3F;" d="M368.244,369.787c-8.52-0.958-17.28,0.959-24.629,5.405c-6.044,3.648-11.05,8.92-14.352,15.15     c0.213-0.027,0.426-0.053,0.639-0.08c-0.187,0.772-0.266,1.571-0.293,2.343c3.169-6.71,8.307-12.435,14.698-16.269     c7.109-4.287,15.55-6.151,23.777-5.246c0.346,0.054,0.692-0.213,0.746-0.585C368.856,370.16,368.617,369.814,368.244,369.787z"/>
			<path style="fill:#523E3F;" d="M343.295,388.319c-4.234,4.473-7.056,10.304-8.014,16.402c0.373,0.346,0.772,0.665,1.198,0.959     c0.825-6.098,3.594-11.982,7.801-16.455c0.24-0.266,0.24-0.692-0.027-0.932C343.988,388.026,343.562,388.053,343.295,388.319z"/>
			<path style="fill:#523E3F;" d="M355.224,392.259c-0.293-0.213-0.719-0.133-0.905,0.186c-3.568,5.245-5.645,11.529-5.911,17.893     c0.426,0.106,0.879,0.186,1.331,0.24c0.213-6.177,2.21-12.275,5.671-17.387C355.623,392.872,355.543,392.473,355.224,392.259z"/>
			<path style="fill:#523E3F;" d="M252.156,370.494c-5.559-0.59-11.352-0.449-17.43,0.408c-0.011-0.013-0.014-0.029-0.026-0.041     c-5.044-5.237-12.034-8.002-19.712-7.76c-0.368,0.011-0.657,0.319-0.645,0.685c0.011,0.37,0.312,0.692,0.685,0.646     c6.929-0.212,13.305,2.184,18.032,6.717c-8.217,1.327-16.96,3.959-26.378,7.934c-0.338,0.143-0.497,0.534-0.354,0.872     c0.144,0.336,0.532,0.49,0.872,0.354c16.87-7.121,31.531-9.894,44.815-8.492c16.454,1.741,30.765,10.628,37.347,23.195     c0.12,0.226,0.35,0.356,0.591,0.356c0.103,0,0.209-0.024,0.308-0.077c0.325-0.169,0.452-0.571,0.281-0.899     C283.754,381.439,269.046,372.281,252.156,370.494z"/>
			<path style="fill:#523E3F;" d="M270.952,401.073c-0.266-0.213-0.692-0.16-0.932,0.133c-0.213,0.266-0.16,0.692,0.133,0.932     c3.941,3.089,7.003,7.242,8.813,11.902c0.426-0.133,0.852-0.293,1.252-0.453C278.328,408.688,275.106,404.321,270.952,401.073z"/>
			<path style="fill:#523E3F;" d="M280.83,396.227c-0.293-0.213-0.719-0.186-0.958,0.08c-0.24,0.293-0.186,0.719,0.08,0.932     c3.301,2.796,6.044,6.337,7.961,10.224c0.32-0.426,0.586-0.852,0.826-1.305C286.768,402.377,284.052,398.969,280.83,396.227z"/>
		</g>
		<g>
			<path style="fill:#523E3F;" d="M186.696,404.755c-0.075,0-0.151-0.013-0.224-0.04c-7.685-2.751-14.102-9.545-17.165-18.173     c-2.605-7.334-2.915-16.072-0.897-25.268c1.836-8.36,5.352-16.349,8.878-23.734c8.065-16.899,17.438-33.351,27.861-48.905     c0.204-0.303,0.619-0.385,0.923-0.182c0.305,0.207,0.387,0.62,0.182,0.925c-10.387,15.499-19.728,31.896-27.765,48.734     c-3.492,7.314-6.972,15.217-8.779,23.448c-1.966,8.951-1.671,17.437,0.851,24.538c2.931,8.253,9.046,14.745,16.358,17.365     c0.346,0.123,0.526,0.505,0.402,0.851C187.226,404.586,186.97,404.755,186.696,404.755z"/>
		</g>
		<g>
			<g>
				<path style="fill:#523E3F;" d="M171.281,352.896c-0.19,0-0.379-0.081-0.511-0.24c-19.211-22.98-27.437-54.98-21.469-83.507      c0.075-0.36,0.423-0.602,0.788-0.514c0.359,0.075,0.59,0.427,0.515,0.787c-5.887,28.138,2.232,59.705,21.188,82.382      c0.235,0.281,0.198,0.701-0.084,0.936C171.583,352.846,171.431,352.896,171.281,352.896z"/>
			</g>
			<g>
				<path style="fill:#523E3F;" d="M151.084,344.995c-0.166,0-0.333-0.061-0.462-0.187c-7.159-6.901-13.147-14.855-17.796-23.637      c-0.173-0.326-0.048-0.728,0.277-0.901c0.327-0.174,0.729-0.046,0.899,0.277c4.585,8.659,10.488,16.499,17.544,23.303      c0.265,0.255,0.273,0.677,0.018,0.941C151.433,344.927,151.259,344.995,151.084,344.995z"/>
			</g>
		</g>
	</g>
	<g>
		<g>
			<g>
				<path style="fill:#8F76C9;" d="M421.367,379.033c0,7.456-1.679,14.541-4.665,20.863c-0.174,0.414-0.371,0.807-0.589,1.199      c-0.959,1.94-2.049,3.793-3.27,5.559c-0.218,0.349-0.458,0.676-0.698,1.003c-1.264,1.766-2.638,3.466-4.142,5.036      c-0.261,0.283-0.545,0.567-0.828,0.85c-0.807,0.85-1.657,1.657-2.55,2.42c-0.262,0.24-0.545,0.48-0.828,0.719      c-8.546,7.173-19.577,11.511-31.611,11.511c-12.819,0-24.46-4.905-33.202-12.928c-0.327-0.305-0.654-0.61-0.959-0.916      c-0.85-0.785-1.657-1.635-2.42-2.507c-0.349-0.371-0.676-0.741-1.003-1.134c-1.7-2.005-3.248-4.164-4.6-6.431v-0.022      c-0.349-0.567-0.676-1.112-0.981-1.7c-1.94-3.532-3.444-7.303-4.469-11.293c0,0,0,0,0-0.022c-0.283-1.09-0.523-2.18-0.698-3.314      v-0.065c-0.545-2.856-0.828-5.821-0.828-8.829c0-9.592,2.747-18.531,7.499-26.095c0.196-0.327,0.393-0.654,0.61-0.959      c0.981-1.504,2.071-2.965,3.227-4.338c0.24-0.305,0.501-0.611,0.763-0.916c1.395-1.613,2.899-3.117,4.513-4.535      c0.327-0.283,0.654-0.567,0.981-0.85c1.592-1.351,3.292-2.594,5.058-3.728c0.392-0.261,0.807-0.523,1.221-0.763      c7.391-4.447,16.023-6.998,25.289-6.998c2.551,0,5.058,0.196,7.499,0.567h0.022c1.046,0.153,2.071,0.349,3.096,0.611h0.022      c2.638,0.545,5.189,1.352,7.63,2.333c0.632,0.24,1.221,0.501,1.809,0.785h0.022c3.881,1.722,7.478,3.946,10.726,6.562      c0.392,0.305,0.763,0.632,1.133,0.959c2.987,2.529,5.668,5.428,7.936,8.633c0.262,0.349,0.523,0.698,0.763,1.068      C418.227,359.238,421.367,368.764,421.367,379.033z"/>
			</g>
			<g>
				<path style="fill:#523E3F;" d="M339.767,355.314c0.458-0.567,0.937-1.134,1.417-1.679c0.785-0.894,1.592-1.744,2.42-2.594      c0.283-0.283,0.567-0.567,0.85-0.828c1.635-1.613,3.357-3.139,5.145-4.556c0.305-0.262,0.632-0.502,0.959-0.741      c1.613-1.265,3.314-2.442,5.058-3.554c0.371-0.24,0.763-0.48,1.134-0.719c7.957-4.84,16.895-8.153,26.052-9.614      c-1.025-0.262-2.049-0.458-3.096-0.611h-0.022c-8.589,1.7-16.83,4.992-24.22,9.68c-2.812-1.221-5.668-2.311-8.568-3.248      c-0.414,0.24-0.829,0.501-1.221,0.763c2.921,0.916,5.821,1.962,8.677,3.183c-1.7,1.112-3.357,2.311-4.971,3.597      c-2.899-1.177-5.821-2.202-8.764-3.052c-0.327,0.284-0.654,0.567-0.981,0.85c2.965,0.807,5.886,1.81,8.786,2.965      c-1.744,1.439-3.444,2.965-5.058,4.6c-2.703-1.112-5.45-2.136-8.241-3.031c-0.262,0.305-0.523,0.611-0.763,0.916      c2.769,0.872,5.494,1.875,8.175,2.965c-0.741,0.741-1.461,1.526-2.158,2.311c-0.567,0.654-1.112,1.308-1.635,1.962      c-2.507-1.046-5.036-2.006-7.608-2.899c-0.218,0.305-0.414,0.632-0.61,0.959c2.529,0.85,5.014,1.809,7.478,2.834      c-7.347,9.309-12.187,20.449-14.149,32.09v0.066c0.174,1.133,0.414,2.223,0.698,3.313c1.57-12.71,6.605-25.07,14.497-35.033      C339.288,355.902,339.527,355.597,339.767,355.314z"/>
				<path style="fill:#523E3F;" d="M347.877,359.129c0.85-0.981,1.722-1.94,2.616-2.878c0.458-0.48,0.915-0.959,1.395-1.417      c0.262-0.262,0.523-0.523,0.807-0.785c1.635-1.591,3.357-3.096,5.123-4.491c0.305-0.261,0.61-0.501,0.916-0.741      c1.613-1.242,3.27-2.398,4.971-3.51c0.349-0.218,0.676-0.436,1.025-0.654c8.372-5.254,17.789-8.851,27.534-10.508      c-0.589-0.283-1.177-0.545-1.81-0.785c-9.505,1.853-18.639,5.493-26.793,10.682c-0.349,0.218-0.698,0.458-1.046,0.676      c-1.679,1.112-3.336,2.311-4.927,3.554c-0.305,0.24-0.632,0.48-0.937,0.741c-1.766,1.417-3.466,2.921-5.08,4.491      c-0.283,0.284-0.567,0.545-0.807,0.828c-0.414,0.393-0.807,0.785-1.177,1.177c-0.959,1.003-1.897,2.049-2.791,3.117      c-0.24,0.284-0.501,0.567-0.741,0.872c-9.941,12.121-16.002,27.403-17.135,43.056c0.305,0.589,0.632,1.133,0.981,1.7      c0.828-16.067,6.911-31.851,17.157-44.255C347.398,359.717,347.637,359.412,347.877,359.129z"/>
				<path style="fill:#523E3F;" d="M356.881,364.23c0.218-0.24,0.458-0.48,0.676-0.698c1.177-1.177,2.42-2.333,3.684-3.423      c0.283-0.261,0.567-0.501,0.85-0.741c1.679-1.417,3.444-2.769,5.254-4.011c0.305-0.24,0.632-0.458,0.959-0.676      c1.701-1.155,3.488-2.245,5.298-3.292c0.349-0.174,0.698-0.37,1.047-0.566c9.113-4.971,19.228-8.132,29.496-9.156      c-0.371-0.327-0.741-0.654-1.133-0.959c-10.203,1.155-20.297,4.404-29.344,9.418c-0.37,0.196-0.719,0.393-1.068,0.611      c-1.81,1.024-3.554,2.136-5.276,3.292c-0.305,0.218-0.632,0.436-0.937,0.676c-1.831,1.286-3.575,2.638-5.276,4.077      c-0.284,0.262-0.567,0.502-0.85,0.741c-1.199,1.046-2.355,2.136-3.466,3.248c-0.283,0.283-0.567,0.567-0.85,0.872      c-0.262,0.262-0.523,0.545-0.785,0.829c-11.663,12.448-19.032,29.191-20.558,46.239c0.327,0.393,0.654,0.763,1.003,1.134      c1.286-17.223,8.699-34.227,20.493-46.806C356.357,364.753,356.619,364.492,356.881,364.23z"/>
				<path style="fill:#523E3F;" d="M391.609,366.715c9.353,9.657,17.571,21.168,24.504,34.38c0.218-0.393,0.414-0.785,0.589-1.199      c-6.889-12.993-15.042-24.373-24.329-33.943c-2.834-2.943-5.799-5.712-8.851-8.306c9.222-4.012,19.25-6.17,29.322-6.279      c-0.24-0.37-0.501-0.719-0.763-1.068c-10.159,0.218-20.231,2.463-29.496,6.562c-0.392,0.152-0.763,0.327-1.134,0.501      c-1.94,0.894-3.837,1.853-5.69,2.921c-0.349,0.174-0.676,0.37-1.025,0.567c-1.853,1.09-3.662,2.267-5.407,3.488      c-0.305,0.218-0.61,0.436-0.915,0.676c-1.548,1.134-3.074,2.311-4.535,3.575c-0.065,0.044-0.109,0.109-0.174,0.153      c-0.283,0.24-0.545,0.48-0.828,0.763c-13.124,11.554-21.975,27.6-24.853,44.844c0.305,0.305,0.632,0.611,0.959,0.916      c2.725-17.353,11.554-33.529,24.787-45.127c16.764,12.056,30.63,28.036,40.026,46.544c0.283-0.24,0.567-0.479,0.828-0.719      c-9.418-18.487-23.261-34.489-40.026-46.566c1.526-1.308,3.118-2.55,4.752-3.706c4.295,3.205,8.372,6.715,12.187,10.486      c10.857,10.704,19.577,23.436,25.637,37.366c0.284-0.283,0.567-0.567,0.828-0.85c-6.104-13.909-14.846-26.618-25.681-37.301      c-3.771-3.728-7.805-7.194-12.056-10.355c1.744-1.221,3.532-2.376,5.363-3.423c3.728,3.052,7.347,6.431,10.835,10.094      c9.309,9.789,17.658,21.43,25.681,35.949c0.24-0.327,0.48-0.654,0.698-1.003c-8.001-14.389-16.307-25.943-25.572-35.687      c-3.401-3.597-6.954-6.911-10.595-9.919c1.853-1.068,3.771-2.027,5.712-2.899C385.57,360.786,388.644,363.663,391.609,366.715z"/>
			</g>
		</g>
		<g>
			<path style="fill:#8F76C9;" d="M358.736,448.926c-5.476,0-10.959-1.051-15.974-3.132c-1.879-0.778-3.502-1.633-4.89-2.578     c-1.914,0.686-4.12,1.117-6.724,1.321c-4.787,0.378-8.794-0.136-12.253-1.567c-4.276-1.765-7.505-4.976-8.86-8.809     c-2.691-7.602,2.368-15.701,8-20.745c1.734-1.556,3.603-3.016,5.411-4.426c4.134-3.226,8.037-6.277,10.668-10.483     c0.319-0.508,0.99-0.666,1.502-0.347c0.51,0.321,0.666,0.993,0.346,1.503c-2.834,4.534-7.074,7.844-11.175,11.046     c-1.779,1.389-3.619,2.826-5.298,4.33c-5.107,4.574-9.731,11.809-7.4,18.398c1.132,3.202,3.988,6.013,7.638,7.521     c3.133,1.297,6.811,1.756,11.248,1.409c1.815-0.145,3.41-0.402,4.826-0.785c-0.432-0.4-0.832-0.813-1.201-1.244     c-2.459-2.859-3.486-6.47-2.744-9.659c0.87-3.747,4.309-6.486,7.86-6.264c3.768,0.251,6.95,3.921,6.949,8.015     c-0.001,3.481-2.098,6.993-5.471,9.163c-0.305,0.196-0.619,0.382-0.941,0.558c0.985,0.574,2.092,1.114,3.341,1.631     c8.431,3.495,18.254,3.923,26.958,1.169c5.689-1.8,10.988-4.919,16.112-7.934c2.986-1.756,6.074-3.574,9.238-5.136     c6.328-3.123,18.453-7.528,28.557-1.925c2.558,1.418,4.738,3.363,6.846,5.246c0.903,0.805,1.807,1.613,2.74,2.376     c3.717,3.053,6.997,4.426,10.138,4.312c5.538-0.27,9.665-5.347,13.096-10.083c0.355-0.488,1.035-0.591,1.522-0.244     c0.488,0.354,0.597,1.035,0.243,1.523c-3.728,5.147-8.251,10.666-14.756,10.98c-3.681,0.194-7.474-1.393-11.626-4.802     c-0.956-0.782-1.883-1.609-2.809-2.435c-2.111-1.886-4.105-3.666-6.451-4.965c-9.238-5.121-20.589-0.965-26.536,1.974     c-3.092,1.525-6.145,3.323-9.098,5.059c-5.228,3.077-10.635,6.259-16.56,8.134C367.204,448.297,362.972,448.926,358.736,448.926z      M339.295,426.581c-2.367,0-4.714,2-5.315,4.589c-0.576,2.477,0.296,5.446,2.274,7.747c0.56,0.651,1.197,1.259,1.923,1.831     c0.654-0.29,1.265-0.62,1.838-0.989c2.757-1.774,4.47-4.582,4.471-7.329c0.001-2.936-2.296-5.666-4.914-5.839     C339.48,426.583,339.388,426.581,339.295,426.581z"/>
		</g>
	</g>
	<g>
		<g>
			<path style="fill:#FFE4CF;" d="M268.213,126.317c1.298,2.559,4.674,5.196,7.501,5.862l13.822,3.251     c2.827,0.665,3.004,2.293,0.39,3.616l-12.773,6.472c-2.612,1.325-5.34,4.701-6.06,7.504l-3.519,13.703     c-0.72,2.803-2.372,3.003-3.67,0.445l-6.346-12.509c-1.299-2.558-4.674-5.196-7.501-5.861l-13.822-3.25     c-2.828-0.666-3.003-2.293-0.39-3.617l12.774-6.471c2.612-1.325,5.34-4.702,6.06-7.505l3.52-13.703     c0.72-2.803,2.37-3.003,3.669-0.444L268.213,126.317z"/>
		</g>
		<g>
			<path style="fill:#FFE4CF;" d="M200.232,122.238c1.298,2.559,4.674,5.196,7.501,5.862l13.822,3.251     c2.827,0.665,3.004,2.293,0.39,3.616l-12.773,6.472c-2.612,1.325-5.339,4.701-6.06,7.504l-3.519,13.703     c-0.72,2.803-2.371,3.003-3.67,0.445l-6.346-12.509c-1.299-2.558-4.674-5.196-7.502-5.861l-13.822-3.25     c-2.828-0.666-3.003-2.293-0.39-3.617l12.774-6.471c2.612-1.325,5.34-4.702,6.06-7.505l3.52-13.703     c0.72-2.804,2.37-3.003,3.669-0.444L200.232,122.238z"/>
		</g>
		<g>
			<path style="fill:#FFE4CF;" d="M244.42,76.49c0.29,2.447,2.231,5.572,4.314,6.944l10.181,6.709     c2.083,1.372,1.743,2.737-0.755,3.031l-12.212,1.44c-2.498,0.296-5.695,2.211-7.104,4.257l-6.89,10.006     c-1.409,2.047-2.8,1.72-3.09-0.727l-1.416-11.961c-0.29-2.446-2.231-5.571-4.314-6.944l-10.181-6.708     c-2.083-1.373-1.742-2.737,0.755-3.031l12.212-1.439c2.498-0.296,5.695-2.211,7.105-4.258l6.89-10.006     c1.41-2.047,2.799-1.72,3.089,0.727L244.42,76.49z"/>
		</g>
	</g>
	<g>
		<path style="fill:none;" d="M334.456,382.188c-0.772-0.479-1.571-0.959-2.396-1.385"/>
	</g>
</g>















</svg>
