<?xml version="1.0" encoding="UTF-8"?>
<!-- Generator: Adobe Illustrator 25.2.0, SVG Export Plug-In . SVG Version: 6.00 Build 0)  -->
<svg xmlns="http://www.w3.org/2000/svg" xmlns:xlink="http://www.w3.org/1999/xlink" version="1.1" id="Capa_1" x="0px" y="0px" viewBox="0 0 512 512" style="enable-background:new 0 0 512 512;" xml:space="preserve" width="512" height="512">
<g>
	<path style="fill:#251426;" d="M367.001,512c-3.752,0-7.796-9.95-9.372-14.258c-0.203-0.555,0.084-1.169,0.637-1.373   c0.556-0.204,1.17,0.084,1.373,0.637c2.514,6.874,5.93,12.853,7.336,12.853c0.008,0,0.015,0,0.023,0   c1.741-0.084,6.348-6.211,9.616-11.841c0.184-0.317,0.516-0.517,0.882-0.532c0.359-0.03,0.715,0.158,0.922,0.459   c3.61,5.194,8.321,10.83,9.817,11.267c0.974-1.158,1.766-8.042,1.908-13.996c0.015-0.589,0.571-1.056,1.095-1.045   c0.591,0.015,1.06,0.505,1.045,1.095c-0.13,5.4-0.706,14.648-3.116,15.913c-1.925,1.018-5.804-2.579-11.552-10.655   c-2.353,3.874-7.288,11.32-10.517,11.472C367.066,511.998,367.032,512,367.001,512z"/>
	<path style="fill:#251426;" d="M169.381,503.594c-0.556,0-1.049-0.116-1.455-0.373c-2.73-1.727-3.34-10.641-3.472-15.172   c-8.996,4.184-14.135,5.378-15.31,3.555c-1.471-2.29,2.598-10.615,5.154-15.374c0.278-0.523,0.93-0.715,1.448-0.436   c0.52,0.28,0.717,0.928,0.437,1.449c-3.156,5.874-5.497,11.739-5.254,13.111c1.501,0.332,8.394-2.211,14.1-4.944   c0.33-0.159,0.715-0.136,1.028,0.056c0.309,0.193,0.5,0.532,0.504,0.899c0.061,6.511,1.037,14.114,2.51,15.047   c1.168,0.728,7.131-2.772,12.747-7.536c0.451-0.379,1.124-0.325,1.507,0.124c0.382,0.45,0.328,1.126-0.123,1.508   C180.124,498.122,173.215,503.593,169.381,503.594z"/>
	<path style="fill:#251426;" d="M436.3,444.025c-0.153,0-0.305-0.032-0.451-0.1c-0.535-0.25-0.767-0.885-0.518-1.421   c0.046-0.1,4.59-10.064,0.922-17.756c-1.906-3.997-5.737-6.743-11.387-8.162c-5.432-1.362-8.862,0.365-11.013,2.77   c1.607,1.562,2.92,3.31,3.699,5.241c1.313,3.252,0.98,6.633-0.991,10.048c-2.431,4.218-4.502,4.384-5.796,3.786   c-3.012-1.384-3.827-8.821-1.649-15.014c0.5-1.417,1.112-2.683,1.829-3.791c-6.233-5.096-15.795-7.901-15.922-7.937   c-0.566-0.164-0.895-0.757-0.732-1.324c0.163-0.567,0.746-0.898,1.325-0.733c0.539,0.156,10.076,2.951,16.62,8.288   c3.146-3.541,7.704-4.78,13.151-3.41c6.302,1.582,10.609,4.72,12.802,9.327c4.099,8.61-0.713,19.126-0.92,19.571   C437.088,443.796,436.703,444.025,436.3,444.025z M412.569,421.089c-0.644,1.043-1.106,2.109-1.434,3.038   c-2.084,5.922-0.876,11.717,0.523,12.36c0.541,0.247,1.691-0.557,3.052-2.911c1.645-2.854,1.927-5.527,0.859-8.174   C414.939,423.84,413.882,422.4,412.569,421.089z"/>
	<path style="fill:#251426;" d="M92.675,263.3c-0.303,0-0.606-0.13-0.817-0.38c-3.367-3.99-20.136-24.142-19.687-28.954   c0.065-0.699,0.395-1.106,0.663-1.323c6.164-5.029,16.491,0.821,23.144,5.693c-5.039-7.424-12.106-19.19-10.785-25.071   c0.276-1.22,1.016-2.091,2.142-2.518c6.672-2.526,28.068,12.707,30.488,14.453c0.479,0.345,0.587,1.014,0.24,1.493   c-0.347,0.482-1.016,0.586-1.494,0.241c-8.778-6.333-24.278-15.782-28.475-14.186c-0.451,0.171-0.694,0.466-0.813,0.987   c-1.459,6.489,10.421,23.778,15.122,29.891c0.339,0.441,0.282,1.07-0.13,1.444c-0.416,0.374-1.041,0.368-1.451-0.01   c-5.163-4.827-20.015-16.169-26.634-10.761c-0.42,2.074,9.658,15.803,19.304,27.24c0.382,0.451,0.324,1.127-0.127,1.508   C93.164,263.217,92.92,263.3,92.675,263.3z"/>
	<path style="fill:#F29FA6;" d="M207.781,244.329c0,0-46.927,10.662-94.737-22.695l-22.036,39.711c0,0,47.143,47.31,98.763,40.777   L207.781,244.329z"/>
	<path style="fill:#F29FA6;" d="M249.745,218.475c0,0-172.366,73.919-82.525,233.182l225.171-0.006   c0,0,73.839-159.449-68.757-237.015L249.745,218.475z"/>
	<path style="fill:#251426;" d="M315.184,346.624c-1.354,0-2.73-0.061-4.138-0.186c-0.589-0.052-1.024-0.573-0.972-1.161   c0.052-0.59,0.61-1.041,1.16-0.971c43.869,3.899,58.727-58.188,58.871-58.815c0.134-0.575,0.702-0.935,1.285-0.802   c0.575,0.134,0.934,0.709,0.801,1.284C372.044,286.6,357.633,346.624,315.184,346.624z"/>
	<path style="fill:#251426;" d="M302.419,302.779c-0.472,0-0.903-0.314-1.033-0.791c-0.155-0.57,0.182-1.158,0.752-1.312   c17.634-4.772,30.522-35.937,30.649-36.25c0.224-0.55,0.853-0.813,1.394-0.587c0.548,0.223,0.811,0.848,0.587,1.394   c-0.539,1.323-13.414,32.462-32.07,37.509C302.605,302.768,302.511,302.779,302.419,302.779z"/>
	<path style="fill:#F29FA6;" d="M155.187,134.036l41.867-5.137c0,0,4.29-51.603,68.654-51.531   c129.811,0.146,90.769,120.384,71.217,136.607s-162.226,8.931-162.226,8.931L155.187,134.036z"/>
	<path style="fill:#F8C0B8;" d="M125.91,130.343c0,0,68.165-8.08,73.802-0.177c5.637,7.903,3.826,83.599-9.9,89.097   c-13.726,5.498-54.624,10.345-58.321,2.489C127.796,213.896,125.91,130.343,125.91,130.343z"/>
	<path style="fill:#251426;" d="M167.093,205.867c-0.529,0-0.989-0.392-1.06-0.93c-3.929-29.751-1.599-47.404,6.929-52.467   c6.837-4.06,14.783,1.629,15.116,1.875c0.477,0.348,0.581,1.016,0.234,1.493c-0.347,0.475-1.016,0.583-1.494,0.236   c-0.073-0.052-7.142-5.11-12.773-1.759c-5.303,3.158-10.63,14.455-5.888,50.342c0.077,0.586-0.337,1.123-0.922,1.201   C167.187,205.864,167.141,205.867,167.093,205.867z"/>
	<path style="fill:#251426;" d="M151.547,209.823c-0.067,0-0.132-0.006-0.199-0.019c-0.581-0.109-0.964-0.668-0.855-1.249   c8.011-42.734,2.888-56.488-2.82-60.5c-4.822-3.389-10.745,0.017-10.804,0.052c-0.506,0.299-1.164,0.13-1.465-0.378   c-0.299-0.509-0.132-1.163,0.376-1.464c0.288-0.171,7.146-4.147,13.105,0.027c9.067,6.346,10.315,27.427,3.71,62.658   C152.5,209.464,152.05,209.823,151.547,209.823z"/>
	<path style="fill:#251426;" d="M290.7,137.812c-0.918,0-1.749-0.357-2.42-1.044c-3.384-3.463-2.046-15.432-1.881-16.785   c0.071-0.587,0.652-1.001,1.189-0.934c0.587,0.071,1.005,0.604,0.934,1.191c-0.568,4.719-0.723,12.974,1.288,15.033   c0.305,0.311,0.629,0.435,1.039,0.392c3.438-0.334,5.907-9.638,6.655-15.425c0.077-0.587,0.598-0.993,1.2-0.925   c0.585,0.076,0.999,0.612,0.924,1.199c-0.222,1.706-2.335,16.675-8.569,17.281C290.937,137.806,290.817,137.812,290.7,137.812z"/>
	<path style="fill:#251426;" d="M241.006,133.452c-0.92,0-1.751-0.357-2.422-1.045c-3.382-3.463-2.044-15.432-1.879-16.785   c0.071-0.587,0.654-0.994,1.189-0.934c0.587,0.071,1.005,0.605,0.934,1.191c-0.571,4.719-0.725,12.975,1.287,15.033   c0.303,0.314,0.627,0.438,1.037,0.393c3.438-0.335,5.907-9.639,6.655-15.426c0.077-0.587,0.602-0.995,1.2-0.925   c0.585,0.076,0.999,0.612,0.924,1.199c-0.222,1.706-2.335,16.675-8.569,17.282C241.241,133.446,241.123,133.452,241.006,133.452z"/>
	<path style="fill:#251426;" d="M213.84,218.185c-2.976,0-5.194-0.816-5.359-0.879c-0.552-0.209-0.83-0.826-0.623-1.377   c0.207-0.554,0.828-0.835,1.377-0.625c0.065,0.021,6.498,2.361,11.675-1.51c5.438-4.065,7.779-13.694,6.772-27.847   c-0.042-0.589,0.403-1.101,0.993-1.143c0.548-0.057,1.101,0.399,1.143,0.991c1.076,15.148-1.497,25.15-7.648,29.73   C219.372,217.608,216.337,218.185,213.84,218.185z"/>
	<path style="fill:#F29FA6;" d="M327.338,107.092c0,0-3.556-32.232,12.626-36.79s36.631-6.542,36.631-6.542   s1.115,30.937-4.712,41.925s-40.926,5.203-40.926,5.203L327.338,107.092z"/>
	<path style="fill:#F29FA6;" d="M226.89,95.176c0,0,5.094-32.025-10.852-37.352s-36.276-8.286-36.276-8.286   s-2.593,30.848,2.702,42.103c5.295,11.254,40.631,7.154,40.631,7.154L226.89,95.176z"/>
	<path style="fill:#251426;" d="M223.753,137.364c-0.196,0-0.395-0.053-0.573-0.167c-0.169-0.108-17.377-10.715-59.747-8.696   c-0.571,0.027-1.091-0.427-1.118-1.018c-0.029-0.59,0.426-1.092,1.018-1.12c43.156-2.048,60.291,8.578,60.999,9.031   c0.497,0.318,0.642,0.978,0.324,1.476C224.453,137.189,224.106,137.364,223.753,137.364z"/>
	<path style="fill:#251426;" d="M336.709,104.059c-0.008,0-0.017,0-0.027-0.001c-0.589-0.015-1.058-0.504-1.043-1.095   c0.013-0.515,0.391-12.699,8.057-19.589c3.814-3.428,8.743-4.921,14.668-4.428c0.589,0.049,1.028,0.566,0.978,1.156   c-0.048,0.59-0.606,1.017-1.154,0.978c-5.305-0.448-9.698,0.865-13.055,3.878c-6.979,6.264-7.353,17.94-7.355,18.057   C337.765,103.597,337.288,104.059,336.709,104.059z"/>
	<path style="fill:#251426;" d="M214.941,88.542c-0.55,0-1.018-0.423-1.064-0.982c-0.819-9.964-3.858-17.027-9.029-20.991   c-5.856-4.486-12.532-3.331-12.597-3.32c-0.575,0.101-1.137-0.277-1.246-0.858c-0.107-0.58,0.274-1.138,0.855-1.247   c0.305-0.056,7.629-1.358,14.259,3.702c5.691,4.343,9.019,11.926,9.89,22.538c0.048,0.589-0.389,1.106-0.978,1.155   C215.002,88.541,214.97,88.542,214.941,88.542z"/>
	<path style="fill:#FCEBDF;" d="M218.215,316.788c0,0,111.088-5.671,121.553,16.83c6.548,14.078-33.519,44.444-127.494,25.954   C110.45,339.537,218.215,316.788,218.215,316.788z"/>
	<path style="fill:#F29FA6;" d="M180.949,391.681c0,0-30.082,79.404-28.276,85.405c1.806,6,32.654,18.799,32.654,18.799   l38.413-76.187L180.949,391.681z"/>
	<path style="fill:#F29FA6;" d="M342.718,406.962c0,0,9.061,84.427,13.384,88.963s37.625,2.008,37.625,2.008l-0.175-85.322   L342.718,406.962z"/>
	<g>
		<polygon style="fill:#EC7355;" points="188.254,345.497 189.73,283.77 325.224,281.594 321.53,345.434   "/>
		<path style="fill:#251426;" d="M188.541,311.9c-0.581,0-1.058-0.465-1.07-1.049c-0.013-0.59,0.458-1.08,1.049-1.091l136.048-2.706    c0.629-0.037,1.078,0.459,1.091,1.049s-0.458,1.08-1.049,1.091L188.562,311.9C188.556,311.9,188.547,311.9,188.541,311.9z"/>
		<path style="fill:#251426;" d="M188.1,330.31c-0.583,0-1.06-0.468-1.07-1.052c-0.01-0.591,0.462-1.078,1.053-1.088l134.953-2.189    c0.512-0.003,1.076,0.462,1.087,1.052c0.01,0.591-0.462,1.078-1.053,1.088l-134.953,2.189    C188.111,330.31,188.106,330.31,188.1,330.31z"/>
		<path style="fill:#419390;" d="M278.811,284.618c0,0,3.58-36.911,5.167-36.566c1.588,0.345,10.93,0.71,10.93,0.71l-2.706,35.438    L278.811,284.618z"/>
		<path style="fill:#419390;" d="M246.755,284.695c0,0,3.58-36.911,5.167-36.566s10.93,0.71,10.93,0.71l-2.706,35.438    L246.755,284.695z"/>
		<path style="fill:#419390;" d="M220.097,288.724c0,0-2.691-36.986-1.068-36.914c1.623,0.072,10.894-1.142,10.894-1.142    l3.304,35.387L220.097,288.724z"/>
		<g>
			<path style="fill:#FCEBDF;" d="M186.941,287.089c0,0-6.177-13.557,9.264-13.593c15.441-0.037,11.592,7.997,9.204,5.909     c-2.388-2.089,1.084-11.351,13.595-7.801s9.097,10.376,5.907,7.861s6.779-11.621,17.26-8.12     c10.481,3.501,9.851,12.832,4.65,9.457c-5.202-3.375,7.35-18.515,16.941-11.784c9.591,6.731,4.514,15.142,1.382,10.191     s10.57-17.219,18.14-10.943c7.57,6.276,0.144,10.974-0.204,8.528c-0.348-2.446-0.017-16.253,15.259-9.387     c15.276,6.867,6.187,13.15,3.402,10.646c-2.784-2.505,2.757-13.343,14.446-9.406s11.823,15.317,6.457,18.845     c-5.367,3.529-9.669-3.482-5.598-3.791c4.071-0.309-1.422,8.499-10.405,10.316c-8.983,1.817-16.059-8.104-11.641-5.967     s-0.542,5.676-11.516,5.819c-10.974,0.144-17.239-9.758-12.414-7.611c4.825,2.147,1.758,11.419-14.05,9.822     s-17.229-10.164-14.444-7.659c2.784,2.505-8.742,8.73-16.448,8.139c-7.706-0.591-8.806-10.568-7.521-8.306     c3.509,6.179-3.859,8.441-17.289,9.338c-13.43,0.898-6.941-15.606-3.354-12.676S188.816,293.635,186.941,287.089z"/>
			<path style="fill:#251426;" d="M200.287,298.697c-2.947,0-5.158-0.853-6.575-2.536c-1.099-1.305-1.639-3.057-1.572-5.032     c-3.143,0.234-5.484-1.154-6.228-3.745c-0.065-0.113-2.834-6.314,0.031-10.779c1.77-2.761,5.223-4.168,10.26-4.179     c3.722,0,6.63,0.436,8.739,1.298c2.56-3.649,8.001-4.951,14.355-3.15c2.813,0.798,5.064,1.816,6.709,3.031     c2.36-2.028,6.456-4.122,11.291-4.122c1.779,0,3.532,0.285,5.213,0.846c1.687,0.563,3.189,1.299,4.481,2.191     c2.537-3.256,6.849-6.28,11.477-6.28c2.126,0,4.115,0.64,5.911,1.9c1.104,0.774,2.073,1.606,2.893,2.483     c2.575-2.558,6.699-5.177,11.029-5.177c2.165,0,4.071,0.671,5.668,1.994c0.084,0.07,0.167,0.141,0.249,0.211     c2.799-3.748,7.846-4.239,14.562-1.223c1.998,0.899,3.697,1.838,5.064,2.8c1.586-1.25,4.038-2.506,7.476-2.506     c1.668,0,3.419,0.306,5.208,0.909c5.915,1.992,9.842,6.24,10.503,11.363c0.5,3.859-0.993,7.545-3.8,9.391     c-1.95,1.28-4.109,1.5-5.93,0.665c-2.119,2.411-5.796,5.074-10.448,6.014c-0.803,0.162-1.626,0.245-2.445,0.245     c-3.827,0-6.872-1.761-8.461-2.918c-2.335,1.534-6.866,2.474-12.446,2.547l-0.253,0.001c-4.381,0.001-7.781-1.509-9.846-2.758     c-1.601,2.672-5.624,5.152-12.887,5.152c-1.145,0-2.356-0.064-3.599-0.189c-8.153-0.823-12.367-3.458-14.288-5.152     c-3.07,2.942-10.816,6.081-16.581,5.634c-2.661-0.204-4.97-1.468-6.651-3.605c-2.251,2.539-7.882,3.962-18.006,4.639     c-0.38,0.025-0.748,0.038-1.099,0.038C200.289,298.697,200.289,298.697,200.287,298.697z M194.31,290.734     c-0.107,1.163-0.01,2.802,1.039,4.048c0.991,1.178,2.654,1.774,4.939,1.774c0.002,0,0.002,0,0.002,0     c0.305,0,0.625-0.012,0.957-0.033c3.806-0.254,15.128-1.011,16.915-4.458c-0.748-1.51-1.425-3.693-0.876-4.63     c0.192-0.327,0.629-0.586,1.007-0.586c0.746,0,1.12,0.658,1.244,0.875c0.846,1.491,1.162,2.871,0.941,4.109     c0.991,1.617,2.755,3.431,5.731,3.659c5.451,0.417,12.587-2.717,14.975-5.073c-0.75-1.053-0.999-2.019-0.686-2.722     c0.422-0.944,1.643-1.107,2.792-0.072c0.773,0.694,0.974,1.637,0.594,2.623c1.574,1.464,5.351,3.969,13.243,4.766     c1.173,0.119,2.312,0.179,3.386,0.179c6.525,0,9.961-2.149,11.121-4.232c-2.009-1.582-3.653-3.619-3.204-5.031     c0.324-1.025,1.451-1.374,3.075-0.651c2,0.89,3.003,2.781,2.663,4.859c1.783,1.141,4.937,2.662,9.079,2.661l0.224-0.001     c5.158-0.068,8.864-0.918,10.758-1.883c-0.92-0.935-1.944-2.278-1.565-3.335c0.328-0.915,1.317-1.213,2.803-0.494     c1.308,0.633,2.044,1.441,2.188,2.403c0.052,0.355,0.036,0.823-0.213,1.341c1.411,0.987,3.904,2.34,6.966,2.34     c0.677,0,1.359-0.068,2.021-0.203c4.028-0.814,7.276-3.145,9.123-5.172c-0.947-1.011-1.386-2.28-1.097-3.342     c0.136-0.5,0.652-1.678,2.51-1.819c0.027-0.002,0.255-0.011,0.282-0.011c1.277,0,1.812,0.699,2.017,1.115     c0.533,1.084,0.004,2.451-0.642,3.53c0.915,0.276,2.234,0.117,3.434-0.67c2.126-1.398,3.246-4.274,2.853-7.327     c-0.268-2.062-1.683-7.124-9.063-9.61c-1.57-0.528-3.093-0.796-4.527-0.796c-2.567,0-4.458,0.838-5.756,1.751     c2.813,2.631,2.648,4.846,2.255,5.993c-0.692,2.019-2.767,3.075-4.46,3.076l0,0c-0.918,0-1.724-0.289-2.333-0.837     c-0.69-0.619-1.058-1.54-1.064-2.664c-0.01-1.763,0.851-3.764,2.299-5.444c-1.191-0.799-2.652-1.591-4.36-2.358     c-5.871-2.639-9.986-2.398-12.143,0.796c2.539,2.955,2.111,5.378,1.597,6.602c-0.658,1.563-2.161,2.743-3.497,2.743l0,0     c-0.964,0-1.701-0.634-1.837-1.578c-0.157-1.106-0.226-4.423,1.104-7.404c-0.165-0.149-0.339-0.3-0.523-0.453     c-1.202-0.996-2.648-1.501-4.301-1.501c-3.555,0-7.294,2.277-9.679,4.714c2.119,3.113,2.034,5.999,1.256,7.603     c-0.566,1.167-1.557,1.864-2.654,1.864c0,0,0,0-0.002,0c-0.644,0-1.885-0.258-2.98-1.989c-1.223-1.931-0.619-4.712,1.601-7.549     c-0.746-0.82-1.647-1.604-2.692-2.338c-1.43-1.002-3.003-1.511-4.682-1.511c-3.892,0-7.66,2.718-9.811,5.488     c2.638,2.51,3.269,5.293,2.684,6.936c-0.671,1.878-2.828,2.367-5.102,0.893c-0.849-0.551-1.407-1.374-1.614-2.381     c-0.293-1.423,0.121-3.18,1.17-5.021c-1.131-0.785-2.46-1.435-3.963-1.938c-1.463-0.488-2.987-0.736-4.535-0.736     c-4.13,0-7.625,1.721-9.7,3.436c1.227,1.429,1.66,2.985,1.16,4.307c-0.654,1.721-2.851,2.246-4.508,0.938     c-0.61-0.482-0.959-1.145-1.007-1.921c-0.059-0.981,0.382-2.099,1.26-3.223c-1.415-0.982-3.39-1.847-5.79-2.528     c-1.781-0.505-3.453-0.761-4.974-0.761c-3.95,0-5.957,1.656-6.904,2.895c1.726,1.29,2.09,2.878,1.8,4.04     c-0.443,1.79-2.567,2.589-3.927,1.404c-1.099-0.96-1.361-2.744-0.744-4.572c-1.438-0.553-3.81-1.072-7.648-1.072     c-4.364,0.01-7.211,1.083-8.565,3.188c-2.238,3.478,0.142,8.838,0.165,8.892c0.558,1.9,2.186,2.614,4.533,2.298     c0.686-2.792,2.479-5.449,4.59-5.449c0.577,0,1.131,0.204,1.603,0.59c0.851,0.696,1.191,1.618,0.955,2.597     C199.15,288.529,196.715,290.046,194.31,290.734z M271.148,287.527c0.18,0.226,0.403,0.477,0.671,0.745     C271.66,287.987,271.434,287.734,271.148,287.527z M197.037,285.636c-0.5,0-1.484,0.965-2.138,2.625     c1.492-0.641,2.483-1.529,2.615-2.08c0.021-0.089,0.05-0.21-0.228-0.438C197.169,285.649,197.092,285.636,197.037,285.636z      M317.247,283.692l-0.119,1.075c-0.13,0.009-0.556,0.056-0.608,0.247c-0.056,0.21,0.052,0.604,0.347,1.018     c0.46-0.805,0.497-1.266,0.47-1.366L317.247,283.692z M247.467,275.705c-0.637,1.228-0.913,2.369-0.746,3.182     c0.092,0.45,0.309,0.773,0.683,1.016c0.74,0.48,1.204,0.552,1.417,0.552c0.228,0,0.393-0.062,0.502-0.367     C249.616,279.266,249.181,277.479,247.467,275.705z M267.176,274.019c-1.325,1.865-1.768,3.603-1.127,4.617     c0.911,1.446,1.496,1.169,1.902,0.334C268.47,277.901,268.378,276.043,267.176,274.019z M226.094,276.599     c-0.546,0.728-0.738,1.307-0.717,1.653c0.01,0.165,0.067,0.269,0.196,0.372c0.514,0.403,1.014,0.422,1.181-0.017     C226.921,278.168,226.754,277.429,226.094,276.599z M205.87,276.74c-0.201,0.866-0.077,1.578,0.245,1.859     c0.207,0.083,0.372-0.031,0.443-0.31C206.658,277.882,206.499,277.316,205.87,276.74z M303.96,272.049     c-1.285,1.455-1.864,3.061-1.858,4.122c0.004,0.497,0.13,0.883,0.353,1.086c0.265,0.237,0.637,0.287,0.903,0.287     c0.922,0,2.086-0.61,2.435-1.63C306.167,274.827,305.502,273.446,303.96,272.049z M284.723,271.344     c-0.621,1.894-0.704,3.902-0.619,4.973c0.368-0.154,0.949-0.585,1.277-1.368C285.828,273.886,285.592,272.638,284.723,271.344z"/>
		</g>
	</g>
	<circle style="fill:#EF8296;" cx="305.411" cy="163.12" r="16.826"/>
	<path style="fill:#251426;" d="M261.974,228.074c-18.882,0-35.442-3.159-35.688-3.207c-0.579-0.113-0.959-0.674-0.846-1.254   c0.113-0.582,0.686-0.964,1.256-0.846c0.366,0.072,36.781,7.015,62.845,0.139c0.579-0.153,1.16,0.19,1.308,0.762   c0.151,0.572-0.19,1.157-0.761,1.307C281.285,227.296,271.342,228.074,261.974,228.074z"/>
	<path style="fill:#419390;" d="M246.607,80.479c0,0,56.42,5.87,58.266,5.697c0.338-0.032-0.094-2.279-1.025-5.93   c-0.296-1.16-3.642-2.462-4.03-3.879c-0.469-1.713,2.001-3.594,1.426-5.598c-0.745-2.596-1.567-5.398-2.432-8.306   c-0.358-1.204-3.724-2.426-4.094-3.658c-0.363-1.207,2.27-2.424,1.9-3.645c-0.946-3.123-1.91-6.272-2.853-9.336   c-0.344-1.116-4.685-2.221-5.022-3.309c-0.427-1.379,3.154-2.731,2.745-4.046c-3.297-10.602-5.898-18.762-5.898-18.762   l-13.251,20.659l0.933,3.222l-5.647,4.127l-5.258,8.197l0.809,3.417l-5.478,3.864l-4.894,7.63l1.981,3.147l-6.216,3.455   L246.607,80.479z"/>
	<path style="fill:#FCEBDF;" d="M218.923,231.838c0,0-6.506,17.934,3.923,17.467C233.276,248.838,218.923,231.838,218.923,231.838z"/>
	<path style="fill:#FCEBDF;" d="M258.832,228.908c0,0-12.961,13.998-3.169,17.62S258.832,228.908,258.832,228.908z"/>
	<path style="fill:#FCEBDF;" d="M291.598,228.444c0,0-12.961,13.998-3.169,17.62C298.22,249.685,291.598,228.444,291.598,228.444z"/>
	<path style="fill:#251426;" d="M291.777,35.032c-2.69,0-6.049-7.159-8.158-12.437c-2.211,2.522-6.939,7.367-10.626,7.367   c-0.403,0-0.79-0.055-1.152-0.165c-1.168-0.355-1.467-1.162-1.542-1.613c-0.408-2.478,4.849-6.984,8.609-9.853   c-3.146-0.636-8.009-2.354-8.81-6.931c-0.18-1.016-0.021-1.827,0.468-2.409c0.462-0.55,1.152-0.828,2.052-0.828   c2.583,0,7.131,2.493,9.871,4.154c-0.702-3.488-1.505-9.183,0.163-11.324c0.646-0.831,1.62-1.161,2.715-0.913   c3.988,0.898,4.109,6.975,3.768,10.814c2.663-2.379,7.064-5.863,9.991-5.863c0.874,0,2.937,0.34,3.242,3.484   c0.255,2.656-5.593,5.981-9.924,8.064c3.764,1.074,9.123,3.013,9.899,5.491c0.261,0.841,0.044,1.701-0.612,2.423   c-0.748,0.823-1.791,1.242-3.095,1.242h-0.002c-2.203,0.001-4.953-1.265-7.215-2.578c1.854,3.349,3.672,7.825,2.182,10.634   c-0.571,1.078-1.388,1.239-1.823,1.24H291.777z M283.96,19.454c0.054,0,0.109,0.004,0.163,0.013c0.38,0.059,0.7,0.318,0.836,0.677   c2.422,6.359,5.413,11.997,6.703,12.69c1.352-2.848-2.186-9.291-4.747-12.767c-0.318-0.431-0.268-1.029,0.115-1.402   c0.382-0.375,0.982-0.405,1.405-0.076c1.783,1.393,7.092,5.008,10.202,5.007c0.686,0,1.181-0.177,1.511-0.541   c0.194-0.213,0.167-0.296,0.153-0.346c-0.441-1.414-6.189-3.626-11.28-4.804c-0.451-0.105-0.784-0.485-0.826-0.945   s0.215-0.896,0.64-1.08c6.045-2.632,11.374-5.98,11.404-7.163c-0.15-1.545-0.75-1.545-1.11-1.545c-2.489,0-7.88,4.493-10.693,7.325   c-0.33,0.332-0.844,0.409-1.256,0.192c-0.416-0.218-0.642-0.682-0.554-1.144c0.644-3.44,1.07-10.747-1.724-11.376   c-0.255-0.057-0.389-0.076-0.558,0.14c-1.17,1.501-0.238,7.94,0.796,12.034c0.109,0.43-0.059,0.881-0.42,1.136   c-0.359,0.256-0.842,0.261-1.21,0.017c-2.165-1.444-8.342-5.191-10.889-5.191c-0.316,0-0.414,0.066-0.418,0.069l0,0   c0.002,0-0.084,0.156,0.004,0.657c0.884,5.047,9.42,5.523,9.506,5.527c0.456,0.023,0.844,0.33,0.974,0.766   c0.13,0.437-0.033,0.907-0.401,1.173c-5.315,3.813-9.928,8.182-9.871,9.348c0.213-0.048,0.389-0.024,0.581-0.023   c2.771,0,7.683-4.883,10.129-7.962C283.327,19.601,283.636,19.454,283.96,19.454z"/>
	<path style="fill:#F0B366;" d="M267.623,47.714l26.14-1.892c-0.732-2.378-1.452-4.703-2.143-6.927   c-0.099-0.189-0.179-0.336-0.22-0.402c-0.347-0.549-15.718,1.433-19.062,1.871L267.623,47.714z"/>
	<path style="fill:#F0B366;" d="M257.696,63.191l41.114-0.729c-0.709-2.382-1.446-4.834-2.194-7.304   c-4.261-0.239-28.456,0.556-34.251,0.752L257.696,63.191z"/>
	<path style="fill:#F0B366;" d="M248.568,77.423c5.885,0.453,46.6,3.538,55.279,2.823c-0.654-2.562-1.552-5.812-2.604-9.477   l-48.441,0.052L248.568,77.423z"/>
	<g>
		<path style="fill:#251426;" d="M394.632,399.778c-0.161,0-0.326-0.037-0.479-0.114c-0.529-0.264-0.742-0.908-0.479-1.436    c0.021-0.041,2.052-4.159,1.089-7.077c-0.186-0.561,0.119-1.166,0.679-1.351c0.569-0.192,1.168,0.119,1.352,0.68    c1.244,3.763-1.106,8.508-1.208,8.708C395.401,399.562,395.023,399.778,394.632,399.778z"/>
		<path style="fill:#251426;" d="M389.016,390.741c-0.161,0-0.326-0.037-0.479-0.114c-0.529-0.264-0.742-0.908-0.479-1.436    c0.021-0.042,2.052-4.158,1.089-7.077c-0.186-0.561,0.119-1.166,0.679-1.351c0.568-0.191,1.168,0.12,1.352,0.68    c1.244,3.764-1.106,8.509-1.208,8.708C389.785,390.525,389.407,390.741,389.016,390.741z"/>
		<path style="fill:#251426;" d="M388.684,406.846c-0.161,0-0.326-0.037-0.481-0.114c-0.527-0.265-0.74-0.908-0.477-1.436    c0.021-0.042,2.055-4.158,1.091-7.077c-0.186-0.561,0.119-1.166,0.679-1.351c0.571-0.189,1.166,0.119,1.352,0.68    c1.244,3.764-1.108,8.509-1.21,8.708C389.451,406.63,389.074,406.846,388.684,406.846z"/>
		<path style="fill:#251426;" d="M397.278,382.26c-0.161,0-0.326-0.037-0.481-0.114c-0.527-0.265-0.74-0.908-0.477-1.436    c0.021-0.042,2.055-4.159,1.091-7.077c-0.186-0.561,0.119-1.166,0.679-1.351c0.569-0.192,1.168,0.119,1.352,0.68    c1.244,3.763-1.108,8.509-1.21,8.708C398.045,382.045,397.669,382.26,397.278,382.26z"/>
		<path style="fill:#251426;" d="M392.047,375.783c-0.161,0-0.326-0.037-0.481-0.114c-0.527-0.265-0.74-0.908-0.477-1.436    c0.021-0.042,2.055-4.159,1.089-7.076c-0.186-0.561,0.119-1.167,0.679-1.352c0.571-0.188,1.166,0.119,1.352,0.679    c1.246,3.764-1.106,8.51-1.208,8.709C392.814,375.568,392.437,375.783,392.047,375.783z"/>
	</g>
	<g>
		<path style="fill:#251426;" d="M157.994,408.37c-0.393,0-0.769-0.216-0.957-0.591c-0.1-0.201-2.439-4.951-1.185-8.713    c0.19-0.561,0.796-0.858,1.354-0.676c0.56,0.187,0.863,0.793,0.677,1.353c-0.974,2.916,1.047,7.038,1.068,7.079    c0.263,0.529,0.048,1.172-0.481,1.435C158.318,408.334,158.155,408.37,157.994,408.37z"/>
		<path style="fill:#251426;" d="M163.634,399.347c-0.393,0-0.769-0.216-0.957-0.591c-0.1-0.201-2.439-4.951-1.185-8.711    c0.188-0.561,0.794-0.86,1.354-0.676c0.56,0.187,0.863,0.793,0.677,1.353c-0.974,2.915,1.047,7.037,1.068,7.078    c0.263,0.529,0.048,1.172-0.481,1.435C163.958,399.311,163.794,399.347,163.634,399.347z"/>
		<path style="fill:#251426;" d="M163.924,415.454c-0.391,0-0.769-0.216-0.957-0.591c-0.1-0.201-2.441-4.951-1.187-8.713    c0.19-0.561,0.796-0.861,1.354-0.676c0.56,0.187,0.863,0.793,0.677,1.353c-0.811,2.431,0.497,5.934,1.07,7.078    c0.263,0.529,0.05,1.171-0.479,1.436C164.25,415.417,164.085,415.454,163.924,415.454z"/>
		<path style="fill:#251426;" d="M155.392,390.845c-0.393,0-0.769-0.216-0.957-0.591c-0.1-0.201-2.439-4.951-1.187-8.711    c0.19-0.561,0.796-0.859,1.354-0.677c0.56,0.187,0.863,0.793,0.677,1.354c-0.972,2.915,1.049,7.037,1.07,7.078    c0.263,0.529,0.048,1.172-0.481,1.435C155.716,390.808,155.553,390.845,155.392,390.845z"/>
		<path style="fill:#251426;" d="M160.641,384.382c-0.393,0-0.769-0.216-0.957-0.591c-0.1-0.201-2.439-4.951-1.185-8.713    c0.19-0.56,0.796-0.862,1.354-0.676c0.56,0.187,0.863,0.793,0.677,1.353c-0.974,2.916,1.047,7.038,1.068,7.079    c0.263,0.529,0.048,1.172-0.481,1.435C160.965,384.346,160.801,384.382,160.641,384.382z"/>
	</g>
	<g>
		<path style="fill:#251426;" d="M144.056,286.114c-0.702,0-5.593-0.096-8.285-2.709c-0.424-0.412-0.435-1.089-0.025-1.513    c0.412-0.422,1.091-0.434,1.513-0.023c1.843,1.787,5.601,2.166,6.843,2.105c0.006,0,0.013,0,0.017,0    c0.583,0,1.062,0.468,1.07,1.054c0.008,0.59-0.464,1.076-1.053,1.086C144.123,286.114,144.095,286.114,144.056,286.114z"/>
		<path style="fill:#251426;" d="M138.369,277.12c-0.711,0-5.595-0.097-8.285-2.708c-0.424-0.412-0.433-1.089-0.021-1.513    c0.41-0.424,1.087-0.435,1.513-0.023c2.203,2.139,6.793,2.115,6.841,2.104c0.004,0,0.008,0,0.015,0    c0.583,0,1.062,0.469,1.07,1.054c0.008,0.59-0.464,1.076-1.053,1.086C138.435,277.12,138.408,277.12,138.369,277.12z"/>
		<path style="fill:#251426;" d="M153.01,283.841c-0.711,0-5.593-0.097-8.285-2.708c-0.424-0.412-0.435-1.089-0.025-1.513    c0.414-0.42,1.091-0.436,1.513-0.023c1.837,1.782,5.509,2.138,6.843,2.104c0.006,0,0.013,0,0.017,0    c0.583,0,1.062,0.468,1.07,1.053c0.008,0.591-0.462,1.077-1.053,1.087C153.077,283.841,153.049,283.841,153.01,283.841z"/>
		<path style="fill:#251426;" d="M127.134,280.863c-0.711,0-5.593-0.097-8.285-2.708c-0.424-0.412-0.435-1.089-0.025-1.513    c0.416-0.421,1.091-0.435,1.513-0.023c1.837,1.782,5.482,2.141,6.843,2.104c0.006,0,0.013,0,0.017,0    c0.583,0,1.062,0.468,1.07,1.053c0.008,0.591-0.462,1.077-1.053,1.087C127.201,280.863,127.174,280.863,127.134,280.863z"/>
		<path style="fill:#251426;" d="M123.585,273.331c-0.702,0-5.593-0.096-8.285-2.709c-0.424-0.412-0.435-1.089-0.025-1.513    c0.414-0.422,1.091-0.434,1.513-0.023c1.843,1.786,5.629,2.152,6.843,2.105c0.006,0,0.013,0,0.017,0    c0.583,0,1.062,0.468,1.07,1.054c0.008,0.59-0.464,1.076-1.053,1.086C123.652,273.331,123.625,273.331,123.585,273.331z"/>
	</g>
	<g>
		<path style="fill:#251426;" d="M334.189,206.967c-0.247,0-0.493-0.085-0.694-0.257c-0.449-0.382-0.504-1.059-0.119-1.508    c0.029-0.034,2.987-3.547,2.748-6.611c-0.046-0.589,0.393-1.105,0.982-1.151c0.577-0.044,1.104,0.393,1.15,0.983    c0.309,3.953-3.108,7.999-3.254,8.169C334.791,206.839,334.49,206.967,334.189,206.967z"/>
		<path style="fill:#251426;" d="M330.897,196.848c-0.245,0-0.493-0.085-0.694-0.256c-0.449-0.384-0.504-1.059-0.121-1.509    c0.031-0.034,2.987-3.547,2.748-6.61c-0.046-0.589,0.393-1.105,0.982-1.151c0.594-0.033,1.104,0.394,1.15,0.983    c0.309,3.952-3.106,7.997-3.252,8.167C331.499,196.721,331.198,196.848,330.897,196.848z"/>
		<path style="fill:#251426;" d="M326.725,212.408c-0.247,0-0.493-0.085-0.694-0.257c-0.449-0.382-0.504-1.059-0.119-1.508    c0.029-0.034,2.987-3.547,2.748-6.611c-0.046-0.589,0.393-1.105,0.982-1.151c0.591-0.028,1.104,0.393,1.15,0.983    c0.309,3.953-3.108,7.999-3.254,8.169C327.327,212.281,327.026,212.408,326.725,212.408z"/>
		<path style="fill:#251426;" d="M340.948,190.589c-0.245,0-0.493-0.085-0.694-0.256c-0.449-0.384-0.504-1.059-0.121-1.509    c0.031-0.035,2.987-3.547,2.748-6.611c-0.046-0.589,0.393-1.105,0.982-1.151c0.585-0.04,1.104,0.394,1.15,0.983    c0.309,3.953-3.106,7.998-3.252,8.168C341.55,190.461,341.249,190.589,340.948,190.589z"/>
		<path style="fill:#251426;" d="M337.414,183.049c-0.247,0-0.493-0.085-0.694-0.257c-0.449-0.382-0.504-1.059-0.119-1.508    c0.029-0.034,2.987-3.547,2.748-6.61c-0.046-0.589,0.393-1.105,0.982-1.151c0.589-0.033,1.104,0.394,1.15,0.983    c0.309,3.952-3.108,7.998-3.254,8.168C338.016,182.921,337.715,183.049,337.414,183.049z"/>
	</g>
	<path style="fill:#251426;" d="M217.944,261.451c-0.55,0-1.018-0.423-1.064-0.983c-0.048-0.588,0.391-1.106,0.978-1.154   l13.109-1.07c0.627-0.03,1.106,0.39,1.154,0.98c0.048,0.588-0.391,1.106-0.978,1.154l-13.109,1.07   C218.003,261.45,217.974,261.451,217.944,261.451z"/>
	<path style="fill:#251426;" d="M218.749,269.477c-0.581,0-1.058-0.464-1.07-1.047c-0.013-0.592,0.456-1.081,1.047-1.093   l12.574-0.268c0.008,0,0.017,0,0.023,0c0.581,0,1.058,0.464,1.07,1.047c0.013,0.591-0.456,1.081-1.047,1.093l-12.574,0.268   C218.764,269.477,218.755,269.477,218.749,269.477z"/>
	<path style="fill:#251426;" d="M262.894,256.903c-0.038,0-0.075-0.002-0.113-0.006l-12.841-1.338   c-0.587-0.061-1.016-0.587-0.953-1.175c0.061-0.589,0.591-1.026,1.175-0.953l12.842,1.338c0.587,0.061,1.016,0.587,0.953,1.175   C263.899,256.494,263.435,256.903,262.894,256.903z"/>
	<path style="fill:#251426;" d="M250.048,263.324c-0.548,0-1.016-0.42-1.064-0.977c-0.052-0.589,0.385-1.108,0.974-1.159   l12.306-1.07c0.571-0.061,1.108,0.383,1.158,0.973c0.052,0.589-0.385,1.108-0.974,1.159l-12.306,1.07   C250.111,263.323,250.08,263.324,250.048,263.324z"/>
	<path style="fill:#251426;" d="M295.263,256.1c-0.006,0-0.015,0-0.021,0l-13.109-0.268c-0.591-0.013-1.062-0.501-1.049-1.092   c0.013-0.589,0.462-1.066,1.091-1.048l13.109,0.268c0.591,0.013,1.062,0.501,1.049,1.092   C296.321,255.635,295.844,256.1,295.263,256.1z"/>
	<path style="fill:#251426;" d="M280.816,263.056c-0.581,0-1.058-0.465-1.07-1.049c-0.01-0.59,0.458-1.08,1.049-1.091l13.644-0.268   c0.61-0.028,1.078,0.459,1.091,1.049c0.01,0.59-0.458,1.08-1.049,1.091l-13.644,0.268   C280.831,263.056,280.823,263.056,280.816,263.056z"/>
	<path style="fill:#251426;" d="M237.947,454.26c-49.938,0-56.294-37.359-56.357-37.761c-0.09-0.584,0.309-1.13,0.895-1.22   c0.581-0.096,1.131,0.309,1.221,0.892c0.259,1.664,7.019,40.675,64.124,35.482c0.55-0.052,1.108,0.38,1.162,0.969   c0.054,0.589-0.38,1.11-0.97,1.163C244.482,454.109,241.123,454.26,237.947,454.26z"/>
	<path style="fill:#251426;" d="M266.445,109.802c-5.844,0.001-9.915-2.304-11.955-5.397c-0.37,0.191-0.746,0.361-1.127,0.503   c-2.711,1.008-7.932,1.46-12.377-6.876c-1.597-2.995-1.837-5.809-0.711-8.365c2.477-5.619,10.72-7.785,11.069-7.874   c0.579-0.146,1.154,0.198,1.302,0.771c0.146,0.572-0.199,1.155-0.771,1.302c-0.075,0.02-7.591,2.002-9.644,6.669   c-0.844,1.921-0.629,4.105,0.644,6.489c2.803,5.258,6.076,7.234,9.725,5.884c0.316-0.116,0.625-0.254,0.926-0.408   c-0.268-0.724-0.435-1.472-0.504-2.227c-0.318-3.552,1.877-7.606,7.453-8.114c0.907-0.086,1.626,0.436,1.827,1.322   c0.477,2.093-2.241,6.945-6.003,9.776c1.885,2.827,5.994,4.856,12.064,4.317c5.148-0.458,8.868-1.893,11.362-3.562   c-0.56-0.513-0.951-1.025-1.221-1.47c-1.049-1.725-1.097-3.791-0.125-5.389c0.878-1.445,2.414-2.242,4.13-2.128   c2.044,0.137,3.38,1.507,3.403,3.491c0.017,1.571-0.798,3.467-2.523,5.258c1.735,0.704,4.345,1.188,8.3,0.93   c3.793-0.253,6.166-1.361,7.056-3.293c1.662-3.617-1.992-9.777-3.541-11.847c-0.353-0.473-0.257-1.143,0.215-1.498   c0.47-0.353,1.141-0.261,1.499,0.214c0.257,0.345,6.304,8.507,3.773,14.02c-1.242,2.702-4.222,4.229-8.86,4.539   c-4.943,0.331-8.145-0.446-10.21-1.521c-2.842,2.114-7.148,3.859-13.069,4.386C267.826,109.771,267.124,109.802,266.445,109.802z    M282.19,97.155c-0.834,0-1.549,0.397-1.981,1.109c-0.554,0.913-0.506,2.127,0.125,3.168c0.199,0.327,0.541,0.771,1.11,1.229   c1.607-1.504,2.339-3.036,2.328-4.12c-0.01-0.866-0.47-1.318-1.405-1.379C282.307,97.158,282.248,97.155,282.19,97.155z    M260.2,94.344c-4.042,0.563-5.254,3.405-5.045,5.737c0.038,0.403,0.111,0.803,0.224,1.197   C258.128,99.049,259.953,95.653,260.2,94.344z"/>
</g>















</svg>
